<svg width="16" height="18" viewBox="0 0 16 18" fill="none" xmlns="http://www.w3.org/2000/svg">
<path d="M6.75122 8.43407V2.19018C6.75122 1.50113 7.31095 0.941406 8 0.941406C8.68905 0.941406 9.24878 1.50113 9.24878 2.19018V8.43407C9.24878 9.12312 8.68905 9.68285 8 9.68285C7.31095 9.68285 6.75122 9.12312 6.75122 8.43407ZM12.95 2.77246C12.5455 2.45214 11.9552 2.52244 11.6349 2.92765C11.3146 3.33351 11.3842 3.92242 11.7901 4.2434C13.2756 5.41525 14.1272 7.17004 14.1272 9.05879C14.1272 12.4371 11.3783 15.186 8.00066 15.186C4.6224 15.186 1.8735 12.4371 1.8735 9.05879C1.8735 7.1707 2.72436 5.41658 4.20857 4.24539C4.61444 3.92508 4.68408 3.33617 4.36376 2.92963C4.04344 2.52377 3.45519 2.45479 3.048 2.77445C1.11083 4.30309 0 6.59373 0 9.05879C0 13.4703 3.58916 17.0588 8 17.0588C12.4108 17.0588 16 13.4696 16 9.05879C16 6.5924 14.8878 4.30176 12.95 2.77246Z" fill="#2C6CF6"/>
</svg>
