<svg width="78" height="78" viewBox="0 0 78 78" fill="none" xmlns="http://www.w3.org/2000/svg">
<rect width="78" height="78" rx="18.75" fill="#E9F0FE"/>
<g clip-path="url(#clip0_783_5145)">
<path d="M51.7859 34.2459C51.0508 34.2459 50.356 34.4199 49.739 34.7275C48.8368 31.9884 45.386 30.7303 42.9263 32.3451C41.8372 30.4623 39.252 29.5738 37.1979 30.492V24.9851C37.1979 24.8501 37.1908 24.7169 37.1789 24.5849L37.8103 23.9649C38.1915 23.5906 38.3277 23.0326 38.1618 22.5247C37.9959 22.0169 37.5564 21.647 37.0277 21.5699L35.2484 21.3109C34.1795 20.5545 32.6145 20.3258 31.3487 20.7742L28.8869 15.7841C28.6501 15.304 28.1612 15 27.626 15C27.0907 14.9999 26.6017 15.3038 26.3648 15.7838L23.8492 20.8809L18.2242 21.6982C17.6945 21.7752 17.2544 22.1463 17.089 22.6553C16.9236 23.1644 17.0616 23.7232 17.4448 24.0968L21.5151 28.0643L20.5541 33.6666C20.3516 34.8044 21.5772 35.6926 22.5945 35.1489L27.6256 32.504L28.3155 32.8667V39.3156C26.5829 36.4529 22.5194 35.53 19.7198 37.3646L18.3823 38.2021C17.7501 38.598 17.537 39.4189 17.8968 40.0723C17.9563 40.1804 23.8769 50.9408 26.2787 56.0876C26.3198 56.1755 26.3609 56.2622 26.4024 56.348C27.3697 58.3493 28.8851 60.0302 30.785 61.209C32.6734 62.3807 34.8492 63 37.0774 63H44.2088C47.4168 63 50.4387 61.7566 52.7178 59.4988C54.9969 57.241 56.2687 54.231 56.2989 51.0231L56.391 41.2268C56.391 41.2245 56.3907 41.2222 56.3907 41.22C56.3907 41.2178 56.391 41.2158 56.391 41.2135V38.8509C56.391 36.3117 54.3252 34.2459 51.7859 34.2459ZM28.2803 29.6707C27.8706 29.4552 27.3811 29.4553 26.9715 29.6707L23.808 31.3338L24.4122 27.8112C24.4904 27.355 24.3392 26.8896 24.0078 26.5665L21.4484 24.0719L24.9852 23.558C25.4433 23.4914 25.8392 23.2037 26.044 22.7887L27.6255 19.5843L29.0698 22.512C28.5939 23.2193 28.3156 24.0703 28.3156 24.9851V29.6893L28.2803 29.6707ZM50.7384 57.5008C48.9895 59.2333 46.6705 60.1875 44.2088 60.1875H37.0774C33.6177 60.1875 30.4215 58.2 28.9348 55.1243C28.899 55.0501 28.8632 54.9749 28.8276 54.8985C26.8339 50.6263 22.6142 42.8379 20.9995 39.8818L21.2124 39.7485C21.9916 39.2607 22.9141 39.1058 23.8097 39.3125C24.7055 39.5192 25.4667 40.0625 25.9533 40.8425L28.5287 44.9705C28.8609 45.5029 29.5058 45.7508 30.1089 45.578C30.7122 45.4052 31.1281 44.8536 31.1281 44.2261V24.9851C31.2178 22.8241 34.2964 22.8257 34.3853 24.9851V41.2136C34.4596 43.0794 37.1242 43.078 37.1978 41.2136V34.7338C37.2965 32.3551 40.6852 32.357 40.783 34.7338V41.2136C40.8574 43.0794 43.5219 43.078 43.5955 41.2136V36.2338C43.6943 33.8551 47.0829 33.857 47.1807 36.2338V41.2136C47.2551 43.0794 49.9196 43.078 49.9932 41.2136V38.851C50.0919 36.4723 53.4806 36.4741 53.5785 38.851V41.2053L53.4865 50.9967C53.4633 53.4584 52.4874 55.7682 50.7384 57.5008Z" fill="#2C6CF6"/>
<path d="M60.911 19.8721C60.7456 19.3631 60.3055 18.992 59.7758 18.915L56.871 18.493L55.572 15.8608C55.0673 14.8219 53.5543 14.8223 53.0499 15.8608L51.7509 18.493L48.8462 18.915C48.3165 18.992 47.8763 19.3631 47.711 19.8721C47.5455 20.3812 47.6835 20.94 48.0668 21.3136L50.1686 23.3624L49.6725 26.2555C49.582 26.783 49.7989 27.3163 50.2319 27.6309C50.6659 27.9462 51.2406 27.9864 51.7129 27.7379L54.311 26.3721L56.9091 27.7379C57.3828 27.987 57.957 27.9455 58.39 27.6309C58.8231 27.3163 59.04 26.7831 58.9494 26.2555L58.4532 23.3624L60.5551 21.3136C60.9384 20.94 61.0763 20.3812 60.911 19.8721ZM55.9606 21.8646C55.6292 22.1877 55.478 22.6531 55.5562 23.1093L55.6957 23.9226L54.9653 23.5386C54.5557 23.3232 54.0661 23.3232 53.6565 23.5386L52.9261 23.9226L53.0656 23.1093C53.1438 22.6531 52.9926 22.1877 52.6612 21.8646L52.0703 21.2886L52.8868 21.1699C53.3449 21.1033 53.7408 20.8157 53.9456 20.4006L54.3109 19.6606L54.676 20.4006C54.8809 20.8156 55.2769 21.1033 55.7348 21.1699L56.5514 21.2886L55.9606 21.8646Z" fill="#2C6CF6"/>
</g>
<defs>
<clipPath id="clip0_783_5145">
<rect width="48" height="48" fill="white" transform="translate(15 15)"/>
</clipPath>
</defs>
</svg>
