<svg width="78" height="78" viewBox="0 0 78 78" fill="none" xmlns="http://www.w3.org/2000/svg">
<rect width="78" height="78" rx="18.75" fill="#E9F0FE"/>
<g clip-path="url(#clip0_788_5199)">
<path d="M61.3208 45.0965C59.6004 43.8189 57.208 44.0442 55.7561 45.6203L51.9524 49.7492C51.9522 49.7494 51.952 49.7496 51.9518 49.7497L51.2589 50.4975C51.5572 47.99 49.5394 45.727 47.0122 45.7436H41.1371C40.1691 45.7724 38.2675 44.6129 37.3272 44.2506C33.6603 42.6578 29.3135 43.3607 26.2535 46.0411L24.5916 47.497L18.5069 47.4455C17.5763 47.439 16.6923 47.7986 16.0291 48.4573C15.3661 49.1159 15.001 49.9933 15.001 50.928V57.7894C15.001 59.7098 16.5633 61.2722 18.4837 61.2722H50.0671C52.3458 61.2722 54.4719 60.2551 55.9017 58.4815L62.0443 51.0349C63.5412 49.2717 63.1974 46.4485 61.3208 45.0965ZM59.8742 49.2448L53.7262 56.6982C53.7225 56.7027 53.7188 56.7072 53.7152 56.7118C52.822 57.8223 51.4923 58.4593 50.0671 58.4593H18.4836C18.1144 58.4593 17.8138 58.1587 17.8138 57.7894V50.928C17.8138 50.6855 17.9377 50.5262 18.0115 50.4528C18.0841 50.3796 18.2492 50.2557 18.4856 50.2581L25.1034 50.3141C25.4463 50.3193 25.7826 50.193 26.0421 49.9657L28.107 48.1568C30.3529 46.1895 33.532 45.6686 36.2065 46.8304C37.5997 47.4202 39.5216 48.6206 41.137 48.5563H47.0121C47.8176 48.5563 48.4728 49.2116 48.4728 50.0171C48.4728 50.8225 47.8176 51.4778 47.0121 51.4778H35.5831C33.7219 51.5496 33.7139 54.2152 35.5831 54.2907H50.9645C51.3561 54.2907 51.7298 54.1275 51.996 53.8403L53.2718 52.4636C53.2873 52.4484 53.3034 52.4342 53.3182 52.4181L57.8248 47.5262C58.2995 47.011 59.0816 46.9375 59.6439 47.355C59.9358 47.5717 60.1207 47.8898 60.1646 48.2506C60.2087 48.6113 60.1056 48.9644 59.8742 49.2448Z" fill="#2C6CF6"/>
<path d="M59.0088 32.39C59.7466 31.3843 60.1836 30.1447 60.1836 28.8046C60.1833 27.9487 60.1863 26.3752 60.1836 25.5049C60.1836 22.7832 57.9694 20.569 55.2477 20.569H52.9688C50.2472 20.569 48.0329 22.7832 48.0329 25.5049V28.8046C48.0329 30.1447 48.4699 31.3843 49.2078 32.39C48.2594 32.7172 47.4188 33.2777 46.7572 34.0047C46.0451 33.1029 45.077 32.4129 43.9628 32.0454C44.7154 31.0237 45.1613 29.7629 45.1613 28.3995C45.1613 27.5895 45.1613 25.858 45.1613 25.039C45.1613 22.2814 42.9178 20.038 40.1603 20.038H37.8394C35.0819 20.038 32.8384 22.2814 32.8384 25.039V28.3995C32.8384 29.7629 33.2843 31.0237 34.0368 32.0454C32.9226 32.4129 31.9545 33.1029 31.2423 34.0048C30.5807 33.2777 29.7401 32.7172 28.7918 32.3901C29.5296 31.3844 29.9666 30.1448 29.9666 28.8046C29.9663 27.9488 29.9694 26.3753 29.9666 25.505C29.9666 24.2958 29.5289 23.1874 28.8043 22.3282C28.8163 22.171 28.8177 22.0114 28.8174 21.8309L28.8173 21.7412C28.8173 19.0038 26.5907 16.755 23.8537 16.7282C22.5277 16.7179 21.2701 17.2317 20.3117 18.1824C19.3431 19.1433 18.7888 20.4716 18.7911 21.8266C18.7915 22.0683 18.7966 22.2883 18.8271 22.5167C18.1937 23.3468 17.8164 24.3824 17.8164 25.5048V28.8045C17.8164 30.1446 18.2534 31.3842 18.9912 32.3899C16.6715 33.1903 15 35.394 15 37.9821V38.3625C15 39.1393 15.6297 39.769 16.4065 39.769H61.5935C62.3703 39.769 63 39.1393 63 38.3625V37.9821C63 35.394 61.3285 33.1903 59.0088 32.39ZM50.846 28.8046V28.1228H57.3708V28.8046C57.1911 33.1337 51.0241 33.1303 50.846 28.8046ZM52.9689 23.3819H55.2478C56.3526 23.3819 57.2626 24.2304 57.3614 25.3099H50.8553C50.9541 24.2304 51.8641 23.3819 52.9689 23.3819ZM35.6515 28.3994V27.0705L42.3486 28.2599V28.3994C42.1641 32.8428 35.8344 32.8394 35.6515 28.3994ZM37.8396 22.8508H40.1605C41.367 22.8508 42.3486 23.8324 42.3486 25.0389V25.4029L35.803 24.2404C36.1228 23.4278 36.9148 22.8508 37.8396 22.8508ZM20.6292 28.8046V28.1228H27.154V28.8046C26.9743 33.1337 20.8073 33.1303 20.6292 28.8046ZM27.1447 25.3099H20.6385C20.7373 24.2304 21.6473 23.3819 22.7521 23.3819H25.031C26.1358 23.3819 27.0459 24.2304 27.1447 25.3099ZM23.8266 19.5408C24.617 19.5486 25.3103 19.9788 25.692 20.6145C25.4756 20.5853 25.2553 20.5689 25.031 20.5689H22.7522C22.4735 20.5689 22.2006 20.5933 21.9343 20.6379C22.0337 20.4719 22.1538 20.3174 22.2929 20.1793C22.7136 19.7621 23.2609 19.5352 23.8266 19.5408ZM17.9872 36.9561C18.4118 35.7482 19.5639 34.8799 20.9152 34.8799H26.868C28.2192 34.8799 29.3713 35.7482 29.796 36.9561H17.9872ZM32.8645 36.9561C33.1853 35.585 34.4181 34.5609 35.8855 34.5609H42.1145C43.5819 34.5609 44.8147 35.585 45.1355 36.9561H32.8645ZM48.204 36.9561C48.6286 35.7482 49.7807 34.8799 51.132 34.8799H57.0848C58.436 34.8799 59.5881 35.7482 60.0128 36.9561H48.204Z" fill="#2C6CF6"/>
</g>
<defs>
<clipPath id="clip0_788_5199">
<rect width="48" height="48" fill="white" transform="translate(15 15)"/>
</clipPath>
</defs>
</svg>
