<svg width="78" height="78" viewBox="0 0 78 78" fill="none" xmlns="http://www.w3.org/2000/svg">
<rect width="78" height="78" rx="18.75" fill="#E9F0FE"/>
<g clip-path="url(#clip0_788_5221)">
<path d="M61.5755 25.3587C62.9986 20.2519 63.0007 16.5758 63 16.4218C62.9985 16.0399 62.8414 15.6749 62.5649 15.4113C62.2884 15.1476 61.9167 15.0083 61.5348 15.0247C50.0199 15.5092 39.0959 20.9727 32.0883 30.1597L23.9568 29.7644C23.5614 29.7459 23.1758 29.8939 22.8958 30.174L15.4113 37.6585C15.0479 38.0219 14.9121 38.5548 15.0572 39.0477C15.2023 39.5407 15.6052 39.915 16.1073 40.0236L24.7734 41.8975C23.5898 44.1264 22.8476 45.6915 22.7626 45.8718C22.5101 46.4077 22.621 47.0443 23.0398 47.4632L23.6663 48.0897C22.9875 48.3272 22.3506 48.7166 21.8089 49.2582C21.3868 49.6803 21.0483 50.169 20.802 50.7119L15.2336 60.8303C14.9338 61.3751 15.028 62.0523 15.4654 62.4945C15.7359 62.768 16.0977 62.9113 16.4641 62.9113C16.6901 62.9113 16.9179 62.8567 17.127 62.7447L27.3611 57.2583C27.5201 57.1859 27.674 57.106 27.8193 57.0203C27.8343 57.0118 27.849 57.0029 27.8635 56.9939C28.2056 56.7872 28.5226 56.5389 28.8061 56.2555C29.3476 55.7139 29.7371 55.0769 29.9747 54.3981L30.68 55.1033C31.1201 55.544 31.7969 55.6392 32.3386 55.3467C32.5229 55.2474 34.0037 54.4474 36.0924 53.2556L37.9555 61.8718C38.175 62.9445 39.5515 63.3532 40.3207 62.5678L47.8052 55.0833C48.0853 54.8033 48.234 54.418 48.2148 54.0223L47.8199 45.8995C49.274 44.848 50.5377 43.8343 51.4349 42.9371C56.8504 37.4191 59.7038 31.7537 61.5755 25.3587ZM58.8442 24.699C58.5452 25.7622 58.1618 26.9452 57.6735 28.2061L49.78 20.3126C53.0658 19.0294 56.5256 18.2298 60.1079 17.9288C59.9799 19.3892 59.6573 21.8086 58.8442 24.699ZM19.2177 37.8233L24.4416 32.5994L30.1401 32.8763C28.6665 35.0516 27.313 37.3126 26.1782 39.3283L19.2177 37.8233ZM27.8132 48.2656L25.7327 46.185C26.067 45.5088 26.5842 44.4839 27.2409 43.2478L30.036 46.0429L27.8132 48.2656ZM26.8205 54.2699C26.6945 54.3958 26.5536 54.5057 26.4016 54.5963C26.3992 54.5978 26.3967 54.5993 26.3942 54.6007C26.3264 54.6409 26.2521 54.6787 26.1734 54.7135C26.141 54.7279 26.109 54.7434 26.0777 54.7603L19.9807 58.0288L23.2905 52.0148C23.3111 51.9773 23.33 51.939 23.347 51.8998C23.4543 51.6543 23.6048 51.4337 23.7945 51.2441C24.6287 50.4098 25.9861 50.4099 26.8204 51.2441C27.6547 52.0782 27.6547 53.4356 26.8205 54.2699ZM31.9215 52.3738L29.7988 50.2511L32.0216 48.0284L34.7675 50.7743C33.5815 51.4521 32.5885 52.0057 31.9215 52.3738ZM45.3797 53.5374L40.1558 58.7613L38.6453 51.7758C40.685 50.5744 42.9688 49.1809 45.0995 47.7732L45.3797 53.5374ZM49.4492 40.9515C47.0695 43.3313 41.637 46.7494 37.2806 49.3164L34.007 46.0429L38.6208 41.4291C39.1692 40.8808 39.1692 39.9918 38.6208 39.4435C38.0726 38.8952 37.1836 38.8952 36.6353 39.4435L32.0215 44.0573L28.6451 40.6809C28.7684 40.462 28.8941 40.2405 29.0224 40.0165C31.9242 34.9486 34.7219 31.0061 37.1128 28.6151C40.0308 25.6973 43.361 23.3146 47.0202 21.5239L56.4739 30.9776C54.9251 34.2054 52.6852 37.7155 49.4492 40.9515Z" fill="#2C6CF6"/>
<path d="M49.3557 28.7086C45.6926 25.0294 39.3118 27.671 39.3332 32.8602C39.268 36.0159 42.0484 38.7965 45.2043 38.7312C50.393 38.7526 53.0356 32.3712 49.3557 28.7086ZM47.3702 35.0261C46.2299 36.2142 44.1785 36.2143 43.0384 35.026C41.8501 33.8859 41.8501 31.8343 43.0384 30.6943C44.2326 29.5 46.1759 29.5001 47.3702 30.6943C48.5644 31.8885 48.5644 33.8318 47.3702 35.0261Z" fill="#2C6CF6"/>
</g>
<defs>
<clipPath id="clip0_788_5221">
<rect width="48" height="48" fill="white" transform="translate(15 15)"/>
</clipPath>
</defs>
</svg>
