<svg width="78" height="78" viewBox="0 0 78 78" fill="none" xmlns="http://www.w3.org/2000/svg">
<rect width="78" height="78" rx="18.75" fill="#E9F0FE"/>
<path d="M52.6902 42.204V30.883C52.7278 27.7457 49.4011 25.5162 46.5216 26.7362C46.1623 23.0686 41.6607 21.3894 38.9975 23.9304C37.351 22.3152 34.5073 22.3155 32.8611 23.9303C30.0626 21.2545 25.3023 23.2782 25.3141 27.1887V37.7509C25.3141 37.756 25.3149 37.7609 25.3149 37.7658C25.3141 37.7999 25.3122 37.8335 25.3122 37.8677V42.1396L24.5341 40.5629C24.0294 39.524 22.5165 39.5244 22.0121 40.5629L20.2176 44.1988L16.2052 44.7818C15.6755 44.8588 15.2354 45.2299 15.0701 45.7389C14.9046 46.248 15.0426 46.8068 15.426 47.1805L18.3294 50.0105L17.6439 54.0066C17.5534 54.5341 17.7703 55.0674 18.2033 55.382C18.6364 55.6965 19.2103 55.7382 19.6843 55.4891L23.2731 53.6024L26.8617 55.4891C27.3341 55.7376 27.9087 55.6974 28.3427 55.382C28.7757 55.0674 28.9927 54.5342 28.9022 54.0066L28.3541 50.8109C28.4957 50.9861 28.6405 51.1585 28.7905 51.3265C29.98 52.6588 30.6352 54.4015 30.6352 56.2334V61.5934C30.6352 62.37 31.2649 62.9996 32.0415 62.9996H46.055C46.8126 63.0146 47.4792 62.3452 47.4612 61.5877L47.4395 56.1681C47.4355 54.3452 48.0829 52.6056 49.2624 51.2696C51.4727 48.7661 52.6902 45.5466 52.6902 42.204ZM46.5449 30.883C46.6367 28.6717 49.7868 28.6736 49.8777 30.883V37.8193C49.8777 38.7004 49.1609 39.4172 48.2796 39.4172H48.143C47.2618 39.4172 46.5449 38.7004 46.5449 37.8193V30.883ZM42.0655 25.5223C42.9843 25.5223 43.7318 26.2699 43.7318 27.1887V33.2876H40.4081V27.1887C40.4081 27.1487 40.4061 27.1092 40.4051 27.0695C40.4667 26.2063 41.1868 25.5223 42.0655 25.5223ZM35.9292 25.5223C36.808 25.5223 37.5283 26.2065 37.5896 27.07C37.5885 27.1102 37.5866 27.1501 37.5866 27.1904L37.5939 33.2876H34.2646L34.2719 27.1887C34.2719 27.1492 34.2699 27.1101 34.2689 27.0707C34.3298 26.2069 35.0503 25.5223 35.9292 25.5223ZM29.7929 25.5223C30.6722 25.5223 31.3926 26.2072 31.4534 27.0697C31.4524 27.1093 31.4504 27.1488 31.4504 27.1887V33.2876H29.8924C29.2668 33.2876 28.6703 33.414 28.1266 33.6421V27.1887C28.1266 26.2699 28.8741 25.5223 29.7929 25.5223ZM25.3198 49.7572L25.6485 51.6736L23.9276 50.7689C23.5178 50.5534 23.0285 50.5534 22.6187 50.7689L20.8977 51.6736L21.2265 49.7572C21.3047 49.301 21.1535 48.8356 20.822 48.5125L19.4297 47.1553L21.3538 46.8757C21.8118 46.8092 22.2076 46.5215 22.4126 46.1064L23.2732 44.3627L24.1337 46.1063C24.3386 46.5214 24.7345 46.8091 25.1925 46.8756L27.002 47.1385C27.016 47.141 27.03 47.1426 27.0441 47.1446L27.1168 47.1552L25.7245 48.5124C25.3929 48.8356 25.2416 49.301 25.3198 49.7572ZM33.4477 60.1871V57.6397H44.6328L44.643 60.1871H33.4477ZM47.1541 49.4081C45.8145 50.9253 44.9709 52.8124 44.7125 54.8272H33.3527C33.0802 52.8253 32.229 50.9548 30.8886 49.4534C30.5609 49.0863 30.2587 48.6963 29.9834 48.2885L31.1202 47.1804C31.5035 46.8068 31.6415 46.248 31.4761 45.7389C31.3107 45.2299 30.8706 44.8588 30.341 44.7818L28.3684 44.4952C28.2073 43.7422 28.1248 42.9748 28.1248 42.2041V37.8678C28.1248 36.8932 28.9178 36.1002 29.8924 36.1002H32.8541H32.855H32.8567H32.8577H38.9449C38.964 36.1009 38.9828 36.1031 39.0021 36.1031H39.0039C39.0227 36.1031 39.041 36.1009 39.0597 36.1002H43.6462C43.5075 37.226 43.1855 38.0854 42.6729 38.7067C41.828 39.7305 40.3619 40.2282 38.1908 40.2282H35.2084C33.3428 40.3025 33.3438 42.9669 35.2084 43.0407C36.4174 43.0407 37.4011 44.0243 37.4011 45.2334V48.3183C37.4755 50.1841 40.14 50.1827 40.2136 48.3183V45.2334C40.2136 44.418 40.0164 43.6483 39.669 42.9674C41.9011 42.7352 43.5928 41.95 44.7393 40.6209C45.5489 41.6028 46.7742 42.2298 48.1432 42.2298H48.2799C48.8434 42.2298 49.3821 42.1224 49.878 41.9289V42.204C49.8777 44.8605 48.9104 47.4189 47.1541 49.4081Z" fill="#2C6CF6"/>
<path d="M53.5432 22.1904L53.1535 24.4625C53.0631 24.9901 53.2799 25.5233 53.7129 25.8379C54.1461 26.1525 54.72 26.1941 55.1939 25.945L57.2346 24.8723L59.275 25.945C59.7473 26.1935 60.3221 26.1533 60.756 25.8379C61.189 25.5233 61.406 24.9902 61.3155 24.4625L60.9259 22.1904L62.5766 20.5812C63.4087 19.7802 62.9407 18.3414 61.7973 18.1826L59.5159 17.8511L58.4955 15.7839C57.9908 14.745 56.4779 14.7454 55.9734 15.7839L54.9532 17.8512L52.6718 18.1827C51.5278 18.3417 51.0606 19.7808 51.8925 20.5813L53.5432 22.1904ZM56.0892 20.5281C56.5473 20.4616 56.9431 20.1739 57.148 19.7588L57.2345 19.5837L57.3208 19.7587C57.5257 20.1738 57.9216 20.4615 58.3796 20.528L58.5729 20.5561L58.4331 20.6924C58.1017 21.0154 57.9505 21.4809 58.0287 21.937L58.0618 22.1295L57.8889 22.0386C57.4792 21.8233 56.9899 21.8232 56.5802 22.0386L56.4072 22.1295L56.4403 21.937C56.5186 21.4808 56.3674 21.0153 56.0359 20.6923L55.8961 20.556L56.0892 20.5281Z" fill="#2C6CF6"/>
<path d="M61.7971 54.1866L58.993 53.7792L57.7391 51.2383C57.2344 50.1993 55.7215 50.1998 55.217 51.2383L53.963 53.7793L51.159 54.1867C50.6293 54.2637 50.1891 54.6347 50.0239 55.1438C49.8584 55.6528 49.9964 56.2117 50.3797 56.5853L52.4088 58.5631L51.9298 61.3558C51.8393 61.8834 52.0563 62.4166 52.4893 62.7313C52.9222 63.0458 53.4961 63.0874 53.9703 62.8383L56.4783 61.5198L58.9862 62.8383C59.4586 63.0868 60.0332 63.0466 60.4671 62.7313C60.9002 62.4166 61.1171 61.8835 61.0266 61.3558L60.5477 58.5631L62.5767 56.5853C63.4085 55.7843 62.9405 54.3454 61.7971 54.1866ZM58.0548 57.0651C57.7233 57.3882 57.5721 57.8536 57.6504 58.3098L57.7728 59.0228L57.1325 58.6862C56.7228 58.4708 56.2335 58.4708 55.8237 58.6862L55.1834 59.0229L55.3057 58.3098C55.384 57.8536 55.2328 57.3882 54.9013 57.0651L54.3833 56.5602L55.0993 56.4562C55.5573 56.3896 55.9532 56.1019 56.1581 55.6869L56.4783 55.0382L56.7983 55.6869C57.0032 56.1019 57.3991 56.3896 57.8571 56.4562L58.5731 56.5602L58.0548 57.0651Z" fill="#2C6CF6"/>
<path d="M15.8838 25.4865L20.236 27.2334C20.9383 27.5208 21.7758 27.1801 22.0648 26.4521C22.354 25.7314 22.0043 24.9126 21.2835 24.6233L16.9314 22.8765C16.2108 22.5871 15.3918 22.937 15.1025 23.6577C14.8132 24.3784 15.163 25.1973 15.8838 25.4865Z" fill="#2C6CF6"/>
<path d="M24.0885 20.7893C24.6219 21.3552 25.5122 21.3801 26.0763 20.8481C26.6415 20.3154 26.6678 19.4255 26.1351 18.8602L22.9129 15.4417C22.3802 14.8766 21.4902 14.8502 20.925 15.3829C20.3599 15.9156 20.3334 16.8055 20.8662 17.3707L24.0885 20.7893Z" fill="#2C6CF6"/>
</svg>
