<svg width="20" height="20" viewBox="0 0 20 20" fill="none" xmlns="http://www.w3.org/2000/svg">
<path d="M10 2.82475C12.3367 2.82475 12.6161 2.8311 13.5368 2.87554C14.3877 2.91364 14.8512 3.05969 15.1624 3.17398C15.5688 3.33273 15.8608 3.52322 16.1656 3.82801C16.4704 4.1328 16.6609 4.42489 16.8197 4.83128C16.9403 5.14242 17.08 5.60595 17.1181 6.45682C17.1626 7.37754 17.1689 7.65693 17.1689 9.99365C17.1689 12.3304 17.1626 12.6161 17.1245 13.5368C17.0864 14.3877 16.9403 14.8512 16.826 15.1624C16.6673 15.5688 16.4768 15.8608 16.172 16.1656C15.8672 16.4704 15.5751 16.6609 15.1687 16.8197C14.8576 16.9403 14.394 17.08 13.5432 17.1181C12.6225 17.1626 12.3431 17.1689 10.0063 17.1689C7.66963 17.1689 7.39024 17.1626 6.46952 17.1181C5.61865 17.08 5.15512 16.934 4.84398 16.8197C4.43759 16.6609 4.1455 16.4704 3.84071 16.1656C3.53592 15.8608 3.34543 15.5688 3.18668 15.1624C3.06604 14.8512 2.92634 14.3877 2.88824 13.5368C2.8438 12.6161 2.83745 12.3367 2.83745 10C2.83745 7.66328 2.83745 7.39024 2.87554 6.46317C2.91364 5.6123 3.05969 5.14877 3.17398 4.83763C3.33273 4.43124 3.52322 4.13915 3.82801 3.83436C4.1328 3.52957 4.42489 3.33908 4.83128 3.18033C5.14242 3.05969 5.60595 2.91999 6.45682 2.88189C7.38389 2.83745 7.66328 2.82475 10 2.82475ZM10 1.25C7.62518 1.25 7.32674 1.2627 6.39332 1.3008C5.45991 1.34525 4.82493 1.49129 4.26615 1.70718C3.69467 1.93578 3.20573 2.23422 2.7168 2.7168C2.23422 3.20573 1.93578 3.69467 1.70718 4.26615C1.49129 4.82493 1.34525 5.45991 1.3008 6.39332C1.2627 7.32674 1.25 7.62518 1.25 10C1.25 12.3748 1.2627 12.6733 1.3008 13.6067C1.34525 14.5401 1.49129 15.1751 1.70718 15.7339C1.92943 16.3117 2.22787 16.7943 2.7168 17.2832C3.20573 17.7721 3.68832 18.0706 4.26615 18.2928C4.82493 18.5087 5.45991 18.6548 6.39332 18.6992C7.32674 18.7437 7.62518 18.75 10 18.75C12.3748 18.75 12.6733 18.7373 13.6067 18.6992C14.5401 18.6548 15.1751 18.5087 15.7339 18.2928C16.3117 18.0706 16.7943 17.7721 17.2832 17.2832C17.7721 16.7943 18.0706 16.3117 18.2928 15.7339C18.5087 15.1751 18.6548 14.5401 18.6992 13.6067C18.7437 12.6733 18.75 12.3748 18.75 10C18.75 7.62518 18.7373 7.32674 18.6992 6.39332C18.6548 5.45991 18.5087 4.82493 18.2928 4.26615C18.0706 3.68832 17.7721 3.20573 17.2832 2.7168C16.7943 2.22787 16.3117 1.92943 15.7339 1.70718C15.1751 1.49129 14.5401 1.34525 13.6067 1.3008C12.6733 1.2627 12.3748 1.25 10 1.25Z" fill="white"/>
<path d="M9.99858 5.50293C7.51581 5.50293 5.50293 7.51581 5.50293 9.99858C5.50293 12.4813 7.51581 14.4942 9.99858 14.4942C12.4813 14.4942 14.4942 12.4813 14.4942 9.99858C14.4942 7.51581 12.4813 5.50293 9.99858 5.50293ZM9.99858 12.9131C8.38573 12.9131 7.08403 11.6051 7.08403 9.99858C7.08403 8.39208 8.39208 7.08403 9.99858 7.08403C11.6051 7.08403 12.9131 8.39208 12.9131 9.99858C12.9131 11.6051 11.6114 12.9131 9.99858 12.9131Z" fill="white"/>
<path d="M14.6756 6.37521C15.2543 6.37521 15.7234 5.90614 15.7234 5.3275C15.7234 4.74886 15.2543 4.27979 14.6756 4.27979C14.097 4.27979 13.6279 4.74886 13.6279 5.3275C13.6279 5.90614 14.097 6.37521 14.6756 6.37521Z" fill="white"/>
</svg>
