<svg width="20" height="20" viewBox="0 0 20 20" fill="none" xmlns="http://www.w3.org/2000/svg">
<path d="M16.3027 5.46484L17.5 4.31445V4.0625H13.3535L10.3984 11.4531L7.03711 4.0625H2.68945V4.31445L4.08789 6.00586C4.22461 6.13086 4.29492 6.31445 4.27734 6.49805V13.1445C4.32031 13.3848 4.24414 13.6289 4.07617 13.8027L2.5 15.7227V15.9707H6.96484V15.7188L5.39062 13.8047C5.30628 13.7191 5.24284 13.6151 5.20523 13.5009C5.16763 13.3868 5.15688 13.2655 5.17383 13.1465V7.39648L9.09375 15.9746H9.54883L12.9199 7.39648V14.2305C12.9199 14.4102 12.9199 14.4473 12.8027 14.5664L11.5898 15.7441V15.9961H17.4727V15.7441L16.3027 14.5938C16.2012 14.5156 16.1484 14.3848 16.1699 14.2578V5.80078C16.1598 5.73802 16.1668 5.67369 16.1902 5.61457C16.2136 5.55545 16.2524 5.50372 16.3027 5.46484Z" fill="#D5E2FD"/>
</svg>
