<svg width="20" height="21" viewBox="0 0 20 21" fill="none" xmlns="http://www.w3.org/2000/svg">
<path d="M16.3027 5.76221L17.5 4.61182V4.35986H13.3535L10.3984 11.7505L7.03711 4.35986H2.68945V4.61182L4.08789 6.30322C4.22461 6.42822 4.29492 6.61182 4.27734 6.79541V13.4419C4.32031 13.6821 4.24414 13.9263 4.07617 14.1001L2.5 16.02V16.2681H6.96484V16.0161L5.39062 14.1021C5.30628 14.0164 5.24284 13.9125 5.20523 13.7983C5.16763 13.6841 5.15688 13.5628 5.17383 13.4438V7.69385L9.09375 16.272H9.54883L12.9199 7.69385V14.5278C12.9199 14.7075 12.9199 14.7446 12.8027 14.8638L11.5898 16.0415V16.2935H17.4727V16.0415L16.3027 14.8911C16.2012 14.813 16.1484 14.6821 16.1699 14.5552V6.09814C16.1598 6.03538 16.1668 5.97105 16.1902 5.91193C16.2136 5.85281 16.2524 5.80109 16.3027 5.76221V5.76221Z" fill="white"/>
</svg>
