<svg width="20" height="20" viewBox="0 0 20 20" fill="none" xmlns="http://www.w3.org/2000/svg">
<path d="M6.8125 16.8938C13.4937 16.8938 17.15 11.3562 17.15 6.55625C17.15 6.4 17.1437 6.24375 17.1375 6.0875C17.8437 5.575 18.4625 4.9375 18.95 4.20625C18.3 4.49375 17.6 4.6875 16.8625 4.775C17.6125 4.325 18.1875 3.6125 18.4625 2.76875C17.7625 3.1875 16.9813 3.4875 16.1563 3.65C15.4938 2.94375 14.55 2.5 13.5063 2.5C11.5 2.5 9.875 4.125 9.875 6.13125C9.875 6.41875 9.90625 6.69375 9.96875 6.9625C6.95 6.8125 4.275 5.3625 2.48125 3.16875C2.16875 3.70625 1.9875 4.33125 1.9875 4.99375C1.9875 6.25625 2.63125 7.36875 3.60625 8.01875C3.0125 8 2.45 7.8375 1.9625 7.5625C1.9625 7.575 1.9625 7.59375 1.9625 7.60625C1.9625 9.3625 3.2125 10.8312 4.875 11.1687C4.56875 11.25 4.25 11.2937 3.91875 11.2937C3.6875 11.2937 3.45625 11.2687 3.2375 11.2312C3.7 12.675 5.04375 13.725 6.63125 13.7563C5.3875 14.7313 3.81875 15.3125 2.11875 15.3125C1.825 15.3125 1.5375 15.2938 1.25 15.2625C2.85 16.2938 4.7625 16.8938 6.8125 16.8938Z" fill="white"/>
</svg>
