<svg width="1440" height="686" viewBox="0 0 1440 686" fill="none" xmlns="http://www.w3.org/2000/svg">
<g clip-path="url(#clip0_788_5288)">
<rect width="1440" height="686" fill="#EEF8FE"/>
<path d="M1978.98 648.681C1923.55 695.192 1857.5 727.953 1784.62 745.093C1711.73 762.232 1633.43 763.415 1554.19 748.574C1474.94 733.733 1396.31 703.158 1322.77 658.596C1249.23 614.033 1182.23 556.355 1125.59 488.856C1068.95 421.356 1023.78 345.356 992.666 265.196C961.55 185.035 945.095 102.284 944.24 21.6659C943.385 -58.9518 958.147 -135.857 987.682 -204.659C1017.22 -273.46 1060.95 -332.811 1116.38 -379.322L1547.68 134.68L1978.98 648.681Z" fill="#2C6CF6"/>
</g>
<defs>
<clipPath id="clip0_788_5288">
<rect width="1440" height="686" fill="white"/>
</clipPath>
</defs>
</svg>
