<svg width="375" height="717" viewBox="0 0 375 717" fill="none" xmlns="http://www.w3.org/2000/svg">
<g clip-path="url(#clip0_808_6413)">
<rect width="375" height="717" fill="#EEF8FE"/>
<path d="M716.136 425.681C708.562 485.202 678.507 539.572 632.133 577.645C585.76 615.718 526.579 634.611 466.722 630.45C406.866 626.29 350.868 599.392 310.206 555.27C269.545 511.148 247.301 453.143 248.034 393.147C248.766 333.151 272.42 275.707 314.146 232.59C355.872 189.474 412.511 163.951 472.451 161.254C532.391 158.556 591.093 178.888 636.523 218.082C681.954 257.276 710.672 312.363 716.791 372.051L483.016 396.016L716.136 425.681Z" fill="#2C6CF6"/>
</g>
<defs>
<clipPath id="clip0_808_6413">
<rect width="375" height="717" fill="white"/>
</clipPath>
</defs>
</svg>
