<svg width="550" height="462" viewBox="0 0 550 462" fill="none" xmlns="http://www.w3.org/2000/svg">
<path d="M550 390.94H0V391.215H550V390.94Z" fill="#B8C1CA"/>
<path d="M494.89 408.639H471.042V408.914H494.89V408.639Z" fill="#B8C1CA"/>
<path d="M379.137 402.941H341.616V403.216H379.137V402.941Z" fill="#B8C1CA"/>
<path d="M485.232 398.431H436.249V398.706H485.232V398.431Z" fill="#B8C1CA"/>
<path d="M190.322 403.975H178.068V404.25H190.322V403.975Z" fill="#B8C1CA"/>
<path d="M168.267 403.975H126.038V404.25H168.267V403.975Z" fill="#B8C1CA"/>
<path d="M103.411 399.333H72.941V399.608H103.411V399.333Z" fill="#B8C1CA"/>
<path d="M260.7 341.88H48.301C46.6371 341.877 45.0423 341.214 43.8668 340.037C42.6912 338.859 42.031 337.263 42.031 335.599V37.0263C42.0455 35.3719 42.7121 33.7901 43.8861 32.6243C45.0601 31.4586 46.6466 30.8031 48.301 30.8003H260.7C262.366 30.8003 263.963 31.462 265.141 32.64C266.319 33.8179 266.981 35.4155 266.981 37.0813V335.599C266.981 337.265 266.319 338.863 265.141 340.041C263.963 341.219 262.366 341.88 260.7 341.88V341.88ZM48.301 31.0203C46.71 31.0232 45.1852 31.6573 44.0612 32.7833C42.9373 33.9093 42.306 35.4353 42.306 37.0263V335.599C42.306 337.19 42.9373 338.716 44.0612 339.842C45.1852 340.968 46.71 341.602 48.301 341.605H260.7C262.292 341.602 263.818 340.969 264.944 339.843C266.069 338.717 266.703 337.191 266.706 335.599V37.0263C266.703 35.4343 266.069 33.9083 264.944 32.7826C263.818 31.6569 262.292 31.0232 260.7 31.0203H48.301Z" fill="#B8C1CA"/>
<path d="M498.641 341.88H286.231C284.566 341.877 282.97 341.215 281.793 340.037C280.616 338.86 279.953 337.264 279.95 335.599V37.0263C279.967 35.3709 280.636 33.7891 281.812 32.6236C282.988 31.4582 284.576 30.8031 286.231 30.8003H498.641C500.294 30.806 501.877 31.4628 503.049 32.6282C504.22 33.7936 504.886 35.3738 504.9 37.0263V335.599C504.9 337.261 504.241 338.856 503.068 340.033C501.895 341.21 500.303 341.874 498.641 341.88V341.88ZM286.231 31.0203C284.639 31.0232 283.113 31.6569 281.987 32.7826C280.862 33.9083 280.228 35.4343 280.225 37.0263V335.599C280.228 337.191 280.862 338.717 281.987 339.843C283.113 340.969 284.639 341.602 286.231 341.605H498.641C500.233 341.602 501.759 340.969 502.885 339.843C504.01 338.717 504.644 337.191 504.647 335.599V37.0263C504.644 35.4343 504.01 33.9083 502.885 32.7826C501.759 31.6569 500.233 31.0232 498.641 31.0203H286.231Z" fill="#B8C1CA"/>
<path d="M237.677 191.268L238.172 176.814L229.306 173.91C228.925 169.012 228.13 164.154 226.93 159.39L234.454 153.89L229.35 140.316L220.044 141.064C217.838 136.691 215.262 132.514 212.344 128.579L217.162 120.538L207.262 109.967L198.946 114.224C195.206 111.028 191.211 108.143 187 105.6L188.342 96.3601L175.142 90.3761L169.092 97.4601C164.425 95.9671 159.642 94.8633 154.792 94.1601L152.592 85.1071L138.094 84.6121L135.234 93.4891C130.34 93.8738 125.487 94.6648 120.725 95.8541L115.137 88.3741L101.563 93.4451L102.311 102.751C97.9399 104.991 93.7637 107.592 89.826 110.528L81.73 105.6L71.115 115.5L75.372 123.86C72.1747 127.581 69.304 131.57 66.792 135.784L57.563 134.398L51.535 147.598L58.663 153.637C57.1594 158.302 56.0554 163.085 55.363 167.937L46.2 170.236L45.705 184.69L54.615 187.594C54.9835 192.49 55.7748 197.344 56.98 202.103L49.456 207.603L54.571 221.188L63.877 220.44C66.0778 224.817 68.6541 228.994 71.577 232.925L66.748 240.966L76.648 251.537L84.964 247.28C88.6936 250.476 92.682 253.357 96.888 255.893L95.502 265.122L108.702 271.117L114.785 264.033C119.452 265.54 124.235 266.662 129.085 267.388L131.285 276.441L145.783 276.936L148.643 268.059C153.54 267.67 158.396 266.879 163.163 265.694L168.663 273.174L182.237 268.103L181.533 258.797C185.896 256.543 190.071 253.942 194.018 251.02L202.015 255.838L212.63 245.938L208.373 237.578C211.571 233.858 214.442 229.869 216.953 225.654L226.182 227.04L232.21 213.84L225.082 207.79C226.611 203.129 227.733 198.345 228.437 193.49L237.677 191.268ZM140.008 238.095C128.665 237.712 117.69 233.973 108.472 227.352C99.2538 220.73 92.2066 211.523 88.2217 200.896C84.2369 190.269 83.4934 178.699 86.0853 167.649C88.6772 156.599 94.4881 146.566 102.783 138.819C111.078 131.073 121.484 125.96 132.685 124.128C143.886 122.296 155.378 123.827 165.709 128.528C176.039 133.229 184.743 140.888 190.72 150.536C196.697 160.185 199.679 171.389 199.287 182.732C198.765 197.934 192.227 212.305 181.111 222.687C169.994 233.069 155.21 238.612 140.008 238.095V238.095Z" fill="#B8C1CA"/>
<path d="M485.1 143.462L488.741 140.063L487.3 137.192C488.399 135.906 489.389 134.53 490.259 133.078L493.449 133.551L495.506 128.997L493.064 126.918C493.59 125.308 493.976 123.656 494.219 121.979L497.354 121.198L497.508 116.204L494.45 115.214C494.316 113.523 494.043 111.845 493.636 110.198L496.221 108.273L494.461 103.598L491.26 103.851C490.488 102.344 489.594 100.901 488.587 99.5393L490.248 96.7893L486.827 93.1373L483.967 94.6003C482.679 93.5036 481.303 92.514 479.853 91.6413L480.315 88.4513L475.772 86.3723L473.682 88.8253C472.069 88.323 470.417 87.9551 468.743 87.7253L467.962 84.6013L462.968 84.4143L461.967 87.4943C460.282 87.6231 458.611 87.8954 456.973 88.3083L455.059 85.7233L450.373 87.4723L450.637 90.6843C449.125 91.4487 447.682 92.3431 446.325 93.3573L443.553 91.6963L439.901 95.0953L441.32 97.9003C440.213 99.1831 439.219 100.56 438.35 102.014L435.171 101.541L433.103 106.095L435.556 108.185C435.047 109.793 434.679 111.442 434.456 113.113L431.31 113.894L431.156 118.888L434.225 119.878C434.35 121.57 434.619 123.248 435.028 124.894L432.432 126.808L434.192 131.483L437.404 131.241C438.176 132.749 439.07 134.191 440.077 135.553L438.416 138.303L441.837 141.955L444.697 140.492C445.983 141.593 447.359 142.582 448.811 143.451L448.338 146.63L452.892 148.709L454.982 146.267C456.597 146.764 458.248 147.132 459.921 147.367L460.702 150.491L465.696 150.678L466.697 147.598C468.382 147.47 470.053 147.198 471.691 146.784L473.605 149.369L478.291 147.62L478.038 144.408C479.546 143.643 480.985 142.749 482.339 141.735L485.1 143.462ZM459.118 122.419C458.157 121.39 457.524 120.099 457.297 118.709C457.07 117.32 457.261 115.894 457.845 114.613C458.428 113.332 459.379 112.253 460.576 111.512C461.773 110.771 463.163 110.402 464.57 110.451C465.977 110.5 467.338 110.966 468.481 111.788C469.623 112.611 470.496 113.754 470.988 115.073C471.481 116.392 471.571 117.828 471.248 119.198C470.925 120.568 470.202 121.812 469.172 122.771C468.488 123.416 467.684 123.919 466.804 124.25C465.925 124.582 464.989 124.736 464.05 124.703C463.11 124.67 462.187 124.451 461.333 124.059C460.479 123.667 459.711 123.11 459.074 122.419H459.118Z" fill="#B8C1CA"/>
<path d="M352 291.874L340.626 284.009C339.511 279.914 337.978 275.944 336.05 272.162L338.965 260.722L322.465 243.056L310.849 245.179C307.205 242.996 303.345 241.193 299.332 239.8V239.8L292.27 227.909L268.07 227.084L260.216 238.458C256.125 239.572 252.159 241.102 248.38 243.023L236.94 240.108L219.274 256.608L221.397 268.202C219.216 271.854 217.417 275.721 216.029 279.741L204.138 286.803L203.313 311.003L214.698 318.857C215.794 322.975 217.325 326.965 219.263 330.759V330.759L216.315 342.1L232.815 359.766L244.354 357.654C248.026 359.84 251.91 361.646 255.948 363.044V363.044L262.999 374.913L287.199 375.749L295.042 364.375C299.169 363.261 303.172 361.727 306.988 359.799L318.362 362.703L336.039 346.203L333.916 334.609C336.104 330.957 337.903 327.086 339.284 323.059V323.059L351.175 315.997L352 291.874ZM276.705 328.603C271.333 328.42 266.135 326.647 261.77 323.51C257.405 320.373 254.068 316.012 252.182 310.978C250.295 305.945 249.943 300.465 251.171 295.231C252.398 289.998 255.15 285.246 259.078 281.576C263.006 277.906 267.934 275.484 273.239 274.615C278.544 273.746 283.987 274.469 288.881 276.693C293.774 278.917 297.899 282.543 300.732 287.111C303.566 291.679 304.981 296.985 304.799 302.357C304.547 309.563 301.445 316.373 296.176 321.294C290.907 326.215 283.9 328.844 276.694 328.603H276.705Z" fill="#B8C1CA"/>
<path d="M377.905 223.3H377.828L358.776 222.651C358.39 222.644 358.012 222.54 357.678 222.347C357.343 222.155 357.062 221.881 356.862 221.551L351.725 212.916C348.956 211.904 346.277 210.66 343.717 209.198L335.5 210.617C335.117 210.687 334.723 210.66 334.354 210.537C333.984 210.413 333.652 210.199 333.388 209.913L320.375 195.987C320.102 195.699 319.908 195.345 319.811 194.959C319.715 194.574 319.72 194.17 319.825 193.787L321.904 185.636C320.616 182.995 319.563 180.245 318.758 177.419L310.475 171.699C310.154 171.479 309.894 171.181 309.719 170.833C309.544 170.484 309.459 170.098 309.474 169.708L310.123 150.656C310.136 150.272 310.243 149.896 310.435 149.562C310.626 149.229 310.897 148.947 311.223 148.742L319.88 143.605C320.878 140.843 322.119 138.174 323.587 135.63L322.069 127.347C321.998 126.963 322.025 126.567 322.148 126.195C322.271 125.824 322.486 125.49 322.773 125.224L336.699 112.222C336.987 111.948 337.34 111.753 337.726 111.654C338.111 111.556 338.515 111.559 338.899 111.661L347.083 113.751C349.718 112.463 352.46 111.406 355.278 110.594L360.998 102.311C361.211 101.982 361.507 101.716 361.857 101.54C362.207 101.364 362.598 101.285 362.989 101.31L382.03 101.97C382.417 101.979 382.796 102.084 383.132 102.276C383.469 102.468 383.751 102.741 383.955 103.07L389.092 111.716C391.841 112.726 394.498 113.97 397.034 115.434L405.35 113.905C405.733 113.834 406.128 113.862 406.497 113.985C406.866 114.108 407.198 114.323 407.462 114.609L420.475 128.535C420.746 128.825 420.939 129.179 421.035 129.564C421.132 129.949 421.128 130.352 421.025 130.735L418.935 138.908C420.224 141.544 421.284 144.286 422.103 147.103L430.375 152.823C430.696 153.044 430.956 153.342 431.131 153.69C431.306 154.038 431.391 154.425 431.376 154.814L430.727 173.855C430.714 174.241 430.607 174.619 430.415 174.954C430.224 175.289 429.953 175.573 429.627 175.78L420.97 180.917C419.965 183.673 418.725 186.338 417.263 188.881L418.781 197.175C418.852 197.558 418.825 197.953 418.702 198.322C418.579 198.692 418.364 199.024 418.077 199.287L404.063 212.3C403.775 212.573 403.421 212.768 403.035 212.864C402.65 212.96 402.246 212.956 401.863 212.85L393.723 210.771C391.071 212.054 388.314 213.11 385.484 213.928L379.819 222.2C379.615 222.527 379.334 222.798 379 222.99C378.666 223.182 378.29 223.288 377.905 223.3V223.3ZM360.206 218.053L376.706 218.614L382.206 210.705C382.511 210.244 382.978 209.914 383.515 209.781C386.61 208.935 389.614 207.781 392.48 206.338V206.338C392.98 206.098 393.548 206.039 394.086 206.173L401.786 208.142L413.886 196.867L412.5 188.914C412.393 188.359 412.495 187.783 412.786 187.297C414.42 184.574 415.765 181.687 416.801 178.684C416.976 178.14 417.344 177.678 417.835 177.386L426.118 172.48L426.679 155.98L418.759 150.48C418.342 150.195 418.029 149.782 417.868 149.303C417.868 149.248 417.868 149.182 417.868 149.116C417.021 146.076 415.871 143.128 414.436 140.316C414.182 139.813 414.119 139.234 414.26 138.688L416.24 130.9L404.965 118.8L397.056 120.252C396.504 120.352 395.934 120.251 395.45 119.966C392.721 118.329 389.831 116.977 386.826 115.929C386.654 115.874 386.488 115.8 386.331 115.709C386.014 115.512 385.75 115.24 385.561 114.917L380.6 106.612L364.1 106.04L358.6 113.971C358.272 114.436 357.788 114.768 357.236 114.906C354.172 115.744 351.202 116.89 348.37 118.327C347.871 118.582 347.295 118.645 346.753 118.503L338.965 116.523L326.865 127.798L328.317 135.685C328.403 136.183 328.33 136.695 328.108 137.148L327.998 137.335C326.362 140.07 325.016 142.967 323.983 145.981C323.801 146.498 323.443 146.934 322.971 147.213L314.688 152.13L314.127 168.63L322.058 174.13C322.51 174.44 322.838 174.9 322.982 175.428C323.807 178.517 324.953 181.511 326.403 184.36C326.482 184.523 326.544 184.692 326.59 184.866C326.673 185.228 326.673 185.604 326.59 185.966L324.61 193.666L335.885 205.766L343.739 204.325C344.288 204.225 344.854 204.327 345.334 204.611C348.084 206.245 350.992 207.598 354.013 208.648C354.558 208.81 355.019 209.177 355.3 209.671L360.206 218.053ZM370.403 197.186C369.996 197.186 369.589 197.186 369.182 197.186C360.038 197.025 351.327 193.259 344.946 186.707C338.565 180.156 335.03 171.349 335.111 162.203C335.191 153.058 338.881 144.315 345.376 137.876C351.871 131.438 360.647 127.826 369.793 127.826C378.938 127.826 387.714 131.438 394.209 137.876C400.704 144.315 404.394 153.058 404.474 162.203C404.555 171.349 401.02 180.156 394.639 186.707C388.258 193.259 379.547 197.025 370.403 197.186ZM370.403 132.187C362.412 132.325 354.799 135.614 349.221 141.338C343.644 147.062 340.553 154.757 340.622 162.749C340.691 170.741 343.914 178.382 349.589 184.009C355.265 189.636 362.933 192.793 370.926 192.793C378.918 192.793 386.586 189.636 392.262 184.009C397.937 178.382 401.16 170.741 401.229 162.749C401.298 154.757 398.207 147.062 392.63 141.338C387.052 135.614 379.439 132.325 371.448 132.187H370.403Z" fill="#B8C1CA"/>
<path d="M421.784 86.1523L413.886 84.0403L411.774 76.1423L414.865 73.0623L418.121 79.8053L424.875 83.0723L421.784 86.1523Z" fill="#EEF8FE"/>
<path d="M422.268 80.8722C422.61 80.5306 422.881 80.125 423.065 79.6786C423.25 79.2322 423.346 78.7538 423.346 78.2707C423.346 77.7875 423.25 77.3091 423.065 76.8628C422.881 76.4164 422.61 76.0108 422.268 75.6692C421.926 75.3276 421.521 75.0566 421.074 74.8717C420.628 74.6868 420.15 74.5916 419.666 74.5916C419.183 74.5916 418.705 74.6868 418.259 74.8717C417.812 75.0566 417.407 75.3276 417.065 75.6692L420.992 69.7732L426.25 72.4352L427.405 77.9352L422.268 80.8722Z" fill="#EEF8FE"/>
<path d="M414.238 73.7001L420.024 67.9141L427.9 70.0151L430.023 77.9021L424.237 83.6881L416.35 81.5651L414.238 73.7001ZM424.743 78.4301C425.258 77.9146 425.609 77.2579 425.75 76.5432C425.892 75.8285 425.819 75.0878 425.54 74.4146C425.261 73.7415 424.789 73.1662 424.183 72.7615C423.577 72.3567 422.865 72.1407 422.136 72.1407C421.407 72.1407 420.695 72.3567 420.089 72.7615C419.483 73.1662 419.011 73.7415 418.732 74.4146C418.453 75.0878 418.38 75.8285 418.522 76.5432C418.663 77.2579 419.014 77.9146 419.529 78.4301C420.226 79.1137 421.164 79.4948 422.141 79.4907C423.117 79.4865 424.052 79.0975 424.743 78.4081V78.4301Z" fill="#B8C1CA"/>
<path d="M99.2419 296.681L103.477 295.537L104.61 291.302L102.96 289.652L101.211 293.271L97.5809 295.02L99.2419 296.681Z" fill="#EEF8FE"/>
<path d="M99 293.843C98.669 293.465 98.4941 292.975 98.5107 292.473C98.5274 291.971 98.7343 291.494 99.0896 291.139C99.4448 290.783 99.9219 290.577 100.424 290.56C100.926 290.543 101.416 290.718 101.794 291.049L99.693 287.892L96.8 289.3L96.184 292.27L99 293.843Z" fill="#EEF8FE"/>
<path d="M103.29 289.982L100.188 286.88L95.953 287.98L94.853 292.215L97.9 295.35L102.135 294.25L103.29 289.982ZM97.658 292.523C97.4541 292.345 97.289 292.126 97.1729 291.881C97.0569 291.636 96.9924 291.37 96.9834 291.099C96.9744 290.828 97.0212 290.558 97.1208 290.306C97.2203 290.054 97.3706 289.825 97.5623 289.633C97.7539 289.442 97.9829 289.291 98.235 289.192C98.4871 289.092 98.757 289.046 99.0279 289.055C99.2988 289.064 99.565 289.128 99.81 289.244C100.055 289.36 100.273 289.525 100.452 289.729C100.783 290.107 100.958 290.597 100.941 291.099C100.925 291.601 100.718 292.078 100.362 292.434C100.007 292.789 99.5301 292.996 99.0279 293.012C98.5258 293.029 98.036 292.854 97.658 292.523V292.523Z" fill="#B8C1CA"/>
<path d="M83.996 64.5261L87.516 68.0461C87.9562 68.4787 88.5487 68.7211 89.166 68.7211C89.7832 68.7211 90.3758 68.4787 90.816 68.0461V68.0461C91.246 67.6045 91.4867 67.0125 91.4867 66.3961C91.4867 65.7797 91.246 65.1877 90.816 64.7461L87.307 61.2371C86.8654 60.807 86.2734 60.5664 85.657 60.5664C85.0406 60.5664 84.4486 60.807 84.007 61.2371V61.2371C83.5762 61.6754 83.3339 62.2648 83.3318 62.8793C83.3297 63.4939 83.5681 64.0849 83.996 64.5261Z" fill="#B8C1CA"/>
<path d="M81.521 55.7812C82.4395 55.5258 83.4126 55.5442 84.3209 55.8341C85.2291 56.124 86.0329 56.6728 86.6336 57.4132C87.2343 58.1535 87.6057 59.0531 87.7022 60.0016C87.7988 60.9501 87.6163 61.9061 87.1771 62.7523C86.7379 63.5985 86.0611 64.298 85.2299 64.765C84.3987 65.2319 83.4493 65.446 82.4981 65.3809C81.547 65.3158 80.6355 64.9743 79.8757 64.3984C79.1159 63.8226 78.5408 63.0374 78.221 62.1392C78.018 61.5052 77.9424 60.8372 77.9985 60.1738C78.0547 59.5103 78.2415 58.8646 78.5482 58.2737C78.8549 57.6827 79.2755 57.1583 79.7857 56.7305C80.2959 56.3028 80.8856 55.9802 81.521 55.7812V55.7812Z" fill="#EEF8FE"/>
<path d="M77.6928 61.5505L78.2023 62.9688L88.6581 59.2127L88.1486 57.7944L77.6928 61.5505Z" fill="#B8C1CA"/>
<path d="M275 440.616C392.791 440.616 488.279 435.041 488.279 428.164C488.279 421.287 392.791 415.712 275 415.712C157.209 415.712 61.721 421.287 61.721 428.164C61.721 435.041 157.209 440.616 275 440.616Z" fill="#B8C1CA"/>
<path d="M95.392 103.015C94.292 98.1638 94.776 94.0938 96.866 90.7718C98.956 87.4498 102.366 85.2718 107.217 84.1718C112.068 83.0718 116.259 83.5118 119.537 85.5578C122.815 87.6038 125.037 91.0578 126.137 95.7878C126.914 98.7072 126.978 101.77 126.324 104.72C125.684 107.169 124.333 109.374 122.441 111.056C120.193 112.948 117.496 114.229 114.609 114.774C111.779 115.525 108.816 115.627 105.941 115.071C103.442 114.463 101.182 113.123 99.451 111.221C97.3831 108.901 95.9806 106.066 95.392 103.015V103.015ZM104.566 100.969C105.248 103.961 106.293 105.985 107.701 107.041C108.428 107.525 109.245 107.858 110.104 108.019C110.962 108.179 111.845 108.165 112.698 107.976C113.55 107.787 114.356 107.427 115.067 106.918C115.777 106.41 116.377 105.763 116.831 105.017C117.623 103.488 117.634 101.057 116.886 97.7458C116.248 94.9518 115.218 93.0378 113.795 92.0038C113.079 91.4897 112.256 91.1427 111.388 90.9885C110.52 90.8343 109.629 90.8768 108.779 91.1128C107.929 91.272 107.126 91.622 106.43 92.1364C105.735 92.6509 105.165 93.3163 104.764 94.0828C103.95 95.6998 103.873 97.8998 104.566 100.969Z" fill="#102F4E"/>
<path d="M130.449 99.3847C130.058 97.8856 129.989 96.3209 130.245 94.793C130.5 93.2652 131.076 91.8086 131.934 90.5187C132.896 89.1483 134.119 87.9812 135.533 87.0846C136.946 86.1879 138.523 85.5793 140.173 85.2937C144.478 84.3183 148.012 84.828 150.777 86.8227C153.104 88.6263 154.685 91.2229 155.221 94.1176C155.757 97.0124 155.208 100.003 153.681 102.52C151.965 105.138 149.171 106.883 145.299 107.756C142.316 108.59 139.133 108.332 136.323 107.03C134.82 106.295 133.508 105.223 132.489 103.897C131.47 102.57 130.772 101.026 130.449 99.3847V99.3847ZM138.71 97.4817C138.933 99.0188 139.683 100.431 140.833 101.475C141.289 101.82 141.814 102.061 142.373 102.183C142.931 102.304 143.51 102.303 144.068 102.178C144.626 102.053 145.15 101.809 145.604 101.461C146.057 101.114 146.43 100.672 146.696 100.166C147.272 98.6881 147.326 97.0583 146.85 95.5457C146.619 94.0446 145.877 92.6693 144.749 91.6517C144.311 91.2969 143.798 91.0479 143.249 90.9239C142.699 90.7999 142.129 90.8043 141.581 90.9367C141.01 91.055 140.474 91.3017 140.013 91.6581C139.551 92.0145 139.177 92.4712 138.919 92.9937C138.327 94.4192 138.253 96.0073 138.71 97.4817Z" fill="#102F4E"/>
<path d="M163.438 111.727L156.695 82.027L164.395 80.267L165.121 83.446C165.664 82.1782 166.453 81.0304 167.442 80.069C168.527 79.1478 169.823 78.5092 171.215 78.21C172.501 77.8602 173.854 77.84 175.15 78.1515C176.446 78.463 177.642 79.0959 178.629 79.992C180.803 82.0243 182.278 84.6928 182.842 87.615C183.656 91.19 183.414 94.116 182.138 96.415C181.531 97.5142 180.692 98.4682 179.68 99.2109C178.668 99.9536 177.506 100.467 176.275 100.716C175.089 100.997 173.86 101.046 172.656 100.859C171.501 100.657 170.4 100.219 169.422 99.572L171.754 109.835L163.438 111.727ZM167.409 90.981C167.611 92.3548 168.298 93.6111 169.345 94.523C169.765 94.8445 170.252 95.067 170.77 95.1736C171.289 95.2803 171.824 95.2685 172.337 95.139C172.813 95.0435 173.261 94.8375 173.643 94.5375C174.025 94.2375 174.331 93.852 174.537 93.412C175.005 92.0353 175.005 90.5427 174.537 89.166C174.336 87.7852 173.673 86.5134 172.656 85.558C172.279 85.2447 171.835 85.0222 171.358 84.9078C170.881 84.7934 170.384 84.79 169.906 84.898C169.401 85.0071 168.926 85.229 168.519 85.547C168.111 85.8651 167.781 86.2712 167.552 86.735C167.014 88.0909 166.963 89.5919 167.409 90.981Z" fill="#102F4E"/>
<path d="M186.373 91.63L194.381 89.001C194.807 89.7752 195.47 90.3921 196.273 90.761C197.137 91.0112 198.051 91.0312 198.925 90.8189C199.8 90.6067 200.603 90.1696 201.256 89.551C201.439 89.3569 201.571 89.1212 201.642 88.8644C201.713 88.6075 201.72 88.3373 201.663 88.077C201.597 87.7792 201.443 87.508 201.222 87.2982C201 87.0885 200.721 86.9498 200.42 86.9C199.177 86.7636 197.923 86.7636 196.68 86.9C194.594 87.0774 192.496 87.0774 190.41 86.9C189.189 86.7227 188.044 86.1998 187.11 85.393C186.114 84.5309 185.426 83.3677 185.15 82.0795C184.874 80.7914 185.025 79.4484 185.581 78.254C186.222 76.9759 187.219 75.9102 188.452 75.185C190.207 74.1882 192.113 73.4858 194.095 73.106C195.987 72.5925 197.943 72.3554 199.903 72.402C201.134 72.4812 202.327 72.8588 203.379 73.502C204.5 74.2584 205.452 75.2399 206.173 76.384L198.473 78.925C198.185 78.3519 197.707 77.8968 197.12 77.638C196.318 77.351 195.447 77.3126 194.623 77.528C193.894 77.6296 193.219 77.9655 192.698 78.485C192.533 78.6621 192.413 78.877 192.35 79.1109C192.286 79.3448 192.281 79.5907 192.335 79.827C192.395 80.0871 192.532 80.323 192.728 80.5037C192.924 80.6843 193.171 80.8012 193.435 80.839C194.665 80.9817 195.908 80.9558 197.131 80.762C199.252 80.4546 201.404 80.425 203.533 80.674C204.872 80.8631 206.127 81.4406 207.141 82.335C208.058 83.1668 208.696 84.2617 208.967 85.47C209.249 86.7656 209.146 88.1153 208.67 89.353C208.088 90.8183 207.076 92.0725 205.766 92.95C203.837 94.2112 201.675 95.0751 199.408 95.491C195.485 96.3856 192.551 96.4626 190.608 95.722C188.715 94.9659 187.194 93.4964 186.373 91.63V91.63Z" fill="#102F4E"/>
<path d="M213.235 64.427H222.266V71.357L220.605 85.294H215.017L213.235 71.379V64.427ZM213.675 87.395H222.101V94.853H213.675V87.395Z" fill="#102F4E"/>
<path d="M141.548 159.038H141.35C136.4 157.113 133.441 155.243 131.901 152.988C130.696 153.216 129.448 153.046 128.348 152.504C127.059 151.873 125.99 150.869 125.279 149.622C124.905 149.908 124.466 150.096 124 150.167C123.535 150.238 123.059 150.191 122.617 150.029C121.261 149.522 120.105 148.592 119.317 147.378C118.824 147.745 118.212 147.914 117.601 147.851C114.301 147.587 109.901 141.075 109.582 134.145C109.579 133.999 109.632 133.857 109.73 133.748C109.828 133.64 109.964 133.573 110.11 133.562C110.182 133.559 110.254 133.57 110.322 133.595C110.39 133.62 110.452 133.658 110.505 133.707C110.559 133.756 110.602 133.815 110.632 133.881C110.662 133.947 110.679 134.018 110.682 134.09C110.99 140.69 115.203 146.553 117.7 146.751C117.882 146.771 118.066 146.756 118.241 146.705C118.417 146.654 118.58 146.568 118.723 146.454C117.863 144.886 117.322 143.162 117.134 141.383C116.945 139.604 117.111 137.806 117.623 136.092C118.569 132.792 119.405 131.494 120.417 131.692C122.309 132.165 122.056 139.392 121.055 144.111C120.903 144.962 120.59 145.776 120.131 146.509C120.779 147.596 121.758 148.448 122.925 148.94C123.236 149.058 123.574 149.085 123.9 149.017C124.226 148.948 124.525 148.788 124.762 148.555C123.904 146.432 123.662 143.528 124.894 139.832C126.434 134.959 127.094 134.827 127.435 134.739C127.563 134.712 127.696 134.72 127.82 134.763C127.944 134.805 128.054 134.881 128.139 134.981C129.162 136.136 127.941 143.704 126.665 147.444C126.516 147.894 126.308 148.323 126.049 148.72C126.639 149.91 127.601 150.875 128.788 151.47C129.567 151.849 130.433 152.012 131.296 151.943C131.197 151.734 131.109 151.525 131.021 151.305C130.152 148.94 130.581 146.223 132.33 142.967C133.485 140.822 134.431 139.81 135.311 139.81C135.545 139.813 135.772 139.883 135.967 140.012C136.162 140.14 136.316 140.322 136.411 140.536C137.368 142.307 136.675 148.148 134.783 151.052C134.34 151.718 133.724 152.25 133.001 152.592C134.475 154.528 137.28 156.233 141.801 157.971C141.869 157.995 141.931 158.033 141.984 158.082C142.037 158.131 142.079 158.19 142.109 158.255C142.139 158.321 142.155 158.392 142.157 158.464C142.159 158.536 142.146 158.608 142.12 158.675C142.077 158.789 141.998 158.887 141.895 158.952C141.792 159.018 141.67 159.048 141.548 159.038ZM135.3 140.921C135.3 140.921 134.673 140.921 133.287 143.506C131.692 146.454 131.285 148.885 132.044 150.931C132.136 151.184 132.246 151.431 132.374 151.668C132.97 151.422 133.476 151 133.826 150.458C135.366 148.104 136.103 143.264 135.531 141.372C135.454 140.987 135.3 140.921 135.3 140.921ZM127.402 136.29C126.807 137.542 126.314 138.841 125.928 140.173C125.084 142.481 124.939 144.987 125.51 147.378L125.609 147.092C126.764 143.605 127.38 139.963 127.435 136.29H127.402ZM120.164 132.825C119.977 132.99 119.438 133.683 118.679 136.367C117.781 139.379 118.064 142.62 119.471 145.431C119.697 144.939 119.863 144.422 119.966 143.891C121.143 138.49 120.813 133.606 120.197 132.825H120.164Z" fill="#102F4E"/>
<path d="M183.37 216.7C181.611 216.717 179.88 216.265 178.354 215.391C178.228 215.316 178.137 215.194 178.1 215.052C178.063 214.91 178.083 214.76 178.156 214.632C178.192 214.57 178.24 214.516 178.298 214.473C178.355 214.43 178.421 214.399 178.491 214.381C178.56 214.364 178.633 214.361 178.704 214.372C178.775 214.383 178.843 214.408 178.904 214.445C182.831 216.744 187.902 215.138 188.947 213.455C189.022 213.35 189.076 213.23 189.104 213.104C189.133 212.977 189.135 212.846 189.112 212.718C187.104 212.834 185.115 212.268 183.469 211.112C180.664 209.363 180.444 208.835 180.466 208.417C180.471 208.297 180.509 208.181 180.575 208.08C180.64 207.98 180.732 207.898 180.84 207.845C181.94 207.295 186.901 209.572 188.969 210.936C189.217 211.101 189.446 211.293 189.651 211.508C190.464 211.324 191.196 210.885 191.741 210.254C192.048 209.894 192.27 209.469 192.39 209.011H192.17C190.41 209.187 188.65 208.428 186.769 206.69C185.471 205.502 184.976 204.677 185.141 204.028C185.191 203.846 185.292 203.682 185.432 203.555C185.573 203.428 185.746 203.344 185.933 203.313C187.451 202.928 191.213 204.534 192.742 206.217C193.083 206.583 193.325 207.03 193.446 207.515C194.887 206.844 196.405 205.315 198.198 202.818C198.24 202.759 198.293 202.708 198.354 202.669C198.415 202.63 198.484 202.604 198.555 202.592C198.627 202.58 198.7 202.582 198.771 202.598C198.842 202.614 198.909 202.644 198.968 202.686C199.086 202.772 199.165 202.901 199.19 203.045C199.215 203.188 199.182 203.336 199.1 203.456C197.021 206.36 195.283 208.01 193.545 208.681C193.455 209.494 193.121 210.261 192.588 210.881C191.954 211.618 191.122 212.156 190.19 212.432C190.242 212.695 190.242 212.965 190.189 213.228C190.136 213.49 190.032 213.74 189.882 213.961C188.958 215.534 186.296 216.7 183.37 216.7ZM182.391 209.066C182.765 209.341 183.293 209.704 184.052 210.166C185.235 210.964 186.594 211.463 188.012 211.618C186.241 210.557 184.356 209.7 182.391 209.066V209.066ZM186.23 204.391C186.546 204.986 186.985 205.507 187.517 205.92C189.145 207.427 190.63 208.12 192.06 207.944H192.412C192.334 207.603 192.167 207.288 191.928 207.031C190.388 205.293 187 204.215 186.23 204.391Z" fill="#102F4E"/>
<path d="M197.934 215.193L180.796 218.306L165.231 133.364L132.165 139.37L78.265 235.07L84.051 266.651L153.186 254.1L157.916 279.928L190.982 273.9L186.252 248.072L203.39 244.959L197.934 215.193ZM111.199 231L139.799 180.873L147.774 224.367L111.199 231Z" fill="#80A7FA"/>
<path d="M335.973 127.6C335.452 122.26 334.27 117.006 332.453 111.958C330.584 107.123 327.987 102.601 324.753 98.5491C320.925 93.8352 316.17 89.9566 310.783 87.1531C304.916 83.9338 297.136 81.6934 287.441 80.4321C267.311 77.8068 251.625 81.3781 240.383 91.1461C229.141 100.914 221.734 119.614 218.163 147.246C216.737 157.573 216.368 168.018 217.063 178.42C217.796 187.953 219.549 195.628 222.321 201.443C225.848 209.285 231.413 216.039 238.436 221.001C245.381 225.878 254.914 229.101 267.036 230.67C288.581 233.479 304.557 229.339 314.963 218.251C325.369 207.163 332.262 188.426 335.643 162.041C337.146 150.616 337.257 139.052 335.973 127.6V127.6Z" fill="#80A7FA"/>
<path d="M276.947 219.373C274.296 219.285 271.447 219.043 268.576 218.669C258.5 217.36 250.712 214.808 245.41 211.09C240.122 207.357 235.942 202.264 233.31 196.35L233.255 196.229C231.143 191.829 229.757 185.504 229.152 177.529C228.511 167.95 228.85 158.33 230.164 148.819C234.091 118.327 242.198 105.6 248.303 100.298C255.431 94.1161 265.056 91.3221 277.706 91.7621C280.302 91.8501 283.052 92.0811 285.879 92.4441C293.997 93.5441 300.432 95.3041 304.986 97.7901C308.921 99.8166 312.405 102.619 315.227 106.029C317.696 109.109 319.681 112.547 321.112 116.226C322.573 120.328 323.519 124.596 323.928 128.931C325.101 139.436 324.994 150.044 323.609 160.523C320.562 184.217 314.666 200.871 306.097 210.023C299.739 216.799 290.202 219.923 276.936 219.417L276.947 219.373Z" fill="#102F4E"/>
<path d="M298.474 127.919L298.617 123.75L296.054 122.914C295.945 121.504 295.717 120.106 295.372 118.734L297.572 117.128L296.098 113.212L293.414 113.432C292.783 112.174 292.047 110.97 291.214 109.835L292.6 107.514L289.74 104.467L287.342 105.699C286.269 104.777 285.121 103.945 283.91 103.213L284.295 100.551L280.489 98.8241L278.751 100.87C277.405 100.434 276.025 100.11 274.626 99.9021L273.977 97.2951L269.797 97.1521L268.972 99.7041C267.562 99.8169 266.164 100.045 264.792 100.386L263.175 98.1861L259.259 99.6491L259.479 102.333C258.221 102.965 257.018 103.701 255.882 104.533L253.572 103.136L250.514 105.985L251.746 108.394C250.821 109.466 249.993 110.619 249.271 111.837L246.609 111.43L244.871 115.236L246.928 116.974C246.482 118.321 246.158 119.705 245.96 121.11L243.342 121.77L243.199 125.928L245.762 126.764C245.869 128.178 246.098 129.58 246.444 130.955L244.244 132.55L245.718 136.466L248.402 136.246C249.027 137.508 249.763 138.712 250.602 139.843L249.205 142.164L252.065 145.211L254.463 143.99C255.536 144.909 256.684 145.737 257.895 146.465L257.499 149.127L261.305 150.854L263.054 148.819C264.404 149.253 265.787 149.573 267.19 149.776L267.839 152.394L272.008 152.537L272.833 149.974C274.247 149.867 275.649 149.639 277.024 149.292L278.619 151.492L282.535 150.029L282.326 147.356C283.58 146.716 284.782 145.981 285.923 145.156L288.233 146.542L291.291 143.693L290.07 141.284C290.992 140.215 291.816 139.067 292.534 137.852L295.196 138.248L296.934 134.442L294.888 132.704C295.326 131.359 295.646 129.979 295.845 128.579L298.474 127.919ZM270.314 141.416C267.056 141.297 263.906 140.216 261.262 138.308C258.618 136.4 256.599 133.752 255.459 130.698C254.318 127.644 254.108 124.32 254.855 121.147C255.602 117.973 257.273 115.092 259.656 112.867C262.039 110.642 265.027 109.173 268.245 108.645C271.462 108.117 274.763 108.554 277.732 109.901C280.701 111.247 283.205 113.443 284.927 116.212C286.649 118.98 287.512 122.197 287.408 125.455C287.338 127.627 286.841 129.764 285.943 131.743C285.045 133.722 283.766 135.504 282.177 136.987C280.589 138.47 278.723 139.625 276.687 140.385C274.652 141.145 272.486 141.495 270.314 141.416V141.416Z" fill="#80A7FA"/>
<path opacity="0.3" d="M315.832 204.457L316.14 201.641L314.446 200.959C314.443 200.001 314.362 199.044 314.204 198.099L315.733 197.12L314.952 194.403H313.126C312.765 193.519 312.327 192.669 311.817 191.862L312.851 190.366L311.091 188.166L309.408 188.87C308.726 188.195 307.99 187.577 307.208 187.022L307.615 185.24L305.14 183.876L303.842 185.185C302.958 184.821 302.046 184.531 301.114 184.316L300.806 182.523L298.001 182.204L297.308 183.898C296.352 183.903 295.399 183.991 294.459 184.162L293.48 182.6L290.763 183.403V185.229C289.879 185.594 289.029 186.036 288.222 186.549L286.726 185.449L284.526 187.209L285.23 188.892C284.559 189.575 283.945 190.31 283.393 191.092L281.611 190.696L280.258 193.171L281.556 194.458C281.187 195.344 280.896 196.261 280.687 197.197L278.883 197.494L278.586 200.299L280.269 201.003C280.27 201.955 280.354 202.904 280.522 203.841L278.971 204.82L279.763 207.537H281.6C281.967 208.416 282.409 209.263 282.92 210.067L281.82 211.563L283.58 213.763L285.285 213.048C285.962 213.725 286.698 214.34 287.485 214.885L287.1 216.7L289.575 218.053L290.862 216.766C291.747 217.121 292.659 217.405 293.59 217.613L293.909 219.417L296.714 219.725L297.396 218.042C298.369 218.041 299.34 217.96 300.3 217.8L301.279 219.351L303.985 218.559V216.733C304.869 216.361 305.723 215.92 306.537 215.413L308.011 216.513L310.211 214.742L309.496 213.059C310.174 212.377 310.795 211.641 311.355 210.859L313.126 211.255L314.49 208.78L313.192 207.504C313.546 206.618 313.829 205.706 314.039 204.776L315.832 204.457ZM301.675 203.357C301.209 204.209 300.502 204.903 299.642 205.353C298.781 205.802 297.807 205.986 296.842 205.882C295.877 205.777 294.965 205.389 294.221 204.766C293.477 204.143 292.934 203.313 292.661 202.382C292.389 201.45 292.399 200.459 292.69 199.533C292.981 198.607 293.54 197.788 294.296 197.18C295.053 196.572 295.973 196.202 296.94 196.117C297.906 196.032 298.877 196.236 299.728 196.702C300.866 197.329 301.709 198.381 302.074 199.628C302.439 200.875 302.295 202.216 301.675 203.357V203.357Z" fill="#80A7FA"/>
<path d="M331.419 156.915L328.119 154.649C327.794 153.471 327.352 152.329 326.799 151.239L327.635 147.939L322.883 142.846L319.583 143.462C318.536 142.839 317.431 142.32 316.283 141.911V141.911L314.248 138.479L307.285 138.248L305.019 141.548C303.839 141.868 302.696 142.311 301.609 142.868L298.309 142.021L293.216 146.784L293.832 150.084C293.2 151.126 292.68 152.233 292.281 153.384L288.86 155.419L288.618 162.382L291.918 164.648C292.238 165.835 292.68 166.985 293.238 168.08V168.08L292.402 171.38L297.154 176.473L300.454 175.868C301.501 176.491 302.607 177.01 303.754 177.419V177.419L305.778 180.84L312.752 181.082L315.007 177.782C316.196 177.46 317.35 177.017 318.45 176.462V176.462L321.75 177.298L326.843 172.546L326.238 169.246C326.863 168.2 327.383 167.095 327.789 165.946V165.946L331.21 163.911L331.419 156.915ZM309.716 167.497C308.168 167.444 306.67 166.933 305.412 166.029C304.155 165.124 303.193 163.867 302.65 162.417C302.107 160.966 302.006 159.387 302.36 157.879C302.715 156.371 303.508 155.002 304.64 153.945C305.773 152.888 307.193 152.19 308.722 151.94C310.251 151.691 311.82 151.9 313.229 152.542C314.639 153.183 315.827 154.229 316.643 155.546C317.459 156.863 317.865 158.392 317.812 159.94C317.737 162.015 316.843 163.975 315.326 165.392C313.808 166.809 311.791 167.566 309.716 167.497V167.497Z" fill="white"/>
<path d="M355.3 101.332L355.872 99.9572C356.261 99.7381 356.629 99.484 356.972 99.1982H358.248L359.744 96.9982L359.26 95.8212C359.445 95.4292 359.593 95.0203 359.7 94.6002V94.6002L360.8 93.5882L360.338 91.0032L358.952 90.4312C358.735 90.0412 358.481 89.6728 358.193 89.3312V88.0552L356.048 86.5592L354.86 87.0542C354.426 86.9013 353.976 86.798 353.518 86.7462L352.506 85.6462L349.932 86.1082L349.349 87.4942C348.941 87.7059 348.554 87.9564 348.194 88.2422V88.2422H346.929L345.433 90.4422L345.917 91.6192C345.769 92.055 345.666 92.5046 345.609 92.9612L344.509 93.9842L344.971 96.5582L346.357 97.1302C346.567 97.5223 346.818 97.891 347.105 98.2302V98.2302V99.4952L349.305 100.991L350.482 100.507C350.922 100.65 351.375 100.75 351.835 100.804V100.804L352.847 101.904L355.3 101.332ZM349.8 94.2042C349.696 93.6303 349.765 93.0384 349.997 92.5034C350.23 91.9685 350.616 91.5145 351.106 91.199C351.597 90.8835 352.17 90.7206 352.753 90.731C353.336 90.7413 353.903 90.9245 354.382 91.2572C354.862 91.5899 355.231 92.0573 355.444 92.6002C355.658 93.1431 355.705 93.7371 355.581 94.3069C355.457 94.8768 355.166 95.397 354.746 95.8017C354.326 96.2063 353.795 96.4773 353.221 96.5802C352.453 96.715 351.662 96.541 351.022 96.0961C350.381 95.6511 349.942 94.9712 349.8 94.2042V94.2042Z" fill="#80A7FA"/>
<path d="M325.171 94.039L324.324 93.324C326.139 91.0727 328.382 89.2033 330.924 87.824L331.441 88.792C329.024 90.108 326.892 91.8916 325.171 94.039V94.039Z" fill="#80A7FA"/>
<path d="M333.949 87.7801L333.52 86.7681C337.582 85.0028 342.024 84.2915 346.434 84.7001L346.324 85.8001C342.098 85.4017 337.84 86.083 333.949 87.7801V87.7801Z" fill="#80A7FA"/>
<path d="M331.87 95.3921L330.968 94.7761C333.618 91.1974 337.475 88.7002 341.825 87.7471L342.034 88.8471C337.969 89.7348 334.36 92.0586 331.87 95.3921V95.3921Z" fill="#80A7FA"/>
<path d="M258.874 201.3C258.724 201.296 258.582 201.233 258.478 201.124L256.179 198.748C255.007 198.642 253.847 198.429 252.714 198.11L249.117 199.694C249.038 199.738 248.949 199.76 248.858 199.76C248.768 199.76 248.679 199.738 248.6 199.694L242.572 195.701C242.494 195.65 242.431 195.58 242.389 195.497C242.346 195.414 242.326 195.321 242.33 195.228V191.312C241.594 190.392 240.946 189.405 240.394 188.364L237.303 187.176C237.216 187.143 237.14 187.088 237.08 187.017C237.02 186.946 236.98 186.86 236.962 186.769L235.532 179.685C235.513 179.595 235.517 179.501 235.544 179.413C235.571 179.324 235.62 179.244 235.686 179.179L238.062 176.88C238.176 175.709 238.389 174.55 238.7 173.415L237.116 169.818C237.073 169.739 237.05 169.65 237.05 169.56C237.05 169.469 237.073 169.381 237.116 169.301L241.109 163.273C241.159 163.194 241.229 163.13 241.312 163.087C241.395 163.044 241.489 163.025 241.582 163.031L245.498 163.086C246.416 162.347 247.403 161.699 248.446 161.15L249.645 158.059C249.677 157.974 249.73 157.897 249.799 157.838C249.868 157.778 249.951 157.737 250.041 157.718L257.125 156.288C257.215 156.268 257.31 156.272 257.398 156.299C257.487 156.326 257.567 156.375 257.631 156.442L259.93 158.818C261.106 158.926 262.269 159.139 263.406 159.456L266.992 157.872C267.073 157.829 267.164 157.806 267.256 157.806C267.348 157.806 267.439 157.829 267.52 157.872L273.537 161.865C273.613 161.919 273.676 161.989 273.72 162.072C273.764 162.154 273.788 162.245 273.79 162.338L273.724 166.254C274.463 167.174 275.115 168.161 275.671 169.202L278.751 170.401C278.837 170.433 278.913 170.486 278.973 170.555C279.032 170.624 279.073 170.708 279.092 170.797L280.533 177.881C280.55 177.972 280.545 178.065 280.518 178.153C280.491 178.241 280.443 178.322 280.379 178.387L277.992 180.697C277.882 181.865 277.669 183.021 277.354 184.151L278.938 187.748C278.981 187.83 279.004 187.92 279.004 188.012C279.004 188.104 278.981 188.195 278.938 188.276L275 194.249C274.948 194.324 274.879 194.385 274.799 194.427C274.718 194.469 274.629 194.491 274.538 194.491L270.611 194.436C269.69 195.166 268.707 195.814 267.674 196.372L266.475 199.463C266.442 199.55 266.388 199.628 266.316 199.687C266.245 199.747 266.159 199.787 266.068 199.804L258.984 201.3H258.874ZM252.681 196.9C252.732 196.89 252.784 196.89 252.835 196.9C254.023 197.246 255.243 197.471 256.476 197.571C256.608 197.587 256.732 197.645 256.828 197.736L259.028 200.046L265.518 198.737L266.684 195.723C266.738 195.602 266.831 195.501 266.948 195.437C268.047 194.869 269.083 194.187 270.039 193.402C270.14 193.317 270.27 193.274 270.402 193.281L274.219 193.336L277.871 187.836L276.331 184.338C276.287 184.217 276.287 184.085 276.331 183.964C276.671 182.775 276.896 181.556 277.002 180.323C277.013 180.19 277.072 180.065 277.167 179.971L279.477 177.771L278.168 171.281L275.165 170.115C275.036 170.068 274.93 169.974 274.868 169.851C274.297 168.754 273.615 167.718 272.833 166.76C272.755 166.66 272.712 166.536 272.712 166.408V162.58L267.212 158.928L263.725 160.468C263.6 160.513 263.464 160.513 263.34 160.468C262.148 160.124 260.925 159.899 259.688 159.797C259.556 159.782 259.432 159.724 259.336 159.632L257.136 157.322L250.646 158.642L249.491 161.7C249.445 161.826 249.355 161.932 249.238 161.997C248.135 162.564 247.095 163.246 246.136 164.032C246.089 164.075 246.033 164.108 245.972 164.129C245.912 164.15 245.848 164.158 245.784 164.153L241.967 164.098L238.304 169.598L239.844 173.096C239.879 173.17 239.897 173.251 239.897 173.333C239.897 173.415 239.879 173.495 239.844 173.569C239.518 174.73 239.304 175.92 239.206 177.122C239.196 177.256 239.137 177.381 239.041 177.474L236.731 179.674L238.051 186.164L241.043 187.33C241.176 187.386 241.286 187.487 241.351 187.616C241.918 188.706 242.596 189.735 243.375 190.685C243.457 190.784 243.5 190.909 243.496 191.037V194.865L248.996 198.517L252.494 196.977C252.551 196.941 252.615 196.915 252.681 196.9V196.9ZM258.082 193.336C255.434 193.334 252.837 192.614 250.565 191.254C248.294 189.893 246.434 187.942 245.183 185.609C243.931 183.276 243.336 180.647 243.459 178.002C243.582 175.357 244.42 172.795 245.883 170.588V170.588C247.282 168.471 249.207 166.753 251.469 165.603C253.731 164.453 256.253 163.909 258.788 164.026C261.323 164.142 263.785 164.915 265.932 166.267C268.079 167.62 269.838 169.507 271.038 171.744C272.237 173.98 272.835 176.49 272.774 179.027C272.713 181.564 271.995 184.041 270.689 186.217C269.383 188.394 267.535 190.194 265.325 191.441C263.116 192.689 260.62 193.342 258.082 193.336ZM246.807 171.193C245.326 173.427 244.541 176.05 244.551 178.73C244.561 181.41 245.365 184.027 246.862 186.25C248.36 188.473 250.482 190.202 252.962 191.219C255.442 192.236 258.167 192.495 260.794 191.962C263.421 191.43 265.83 190.131 267.719 188.23C269.608 186.328 270.89 183.909 271.404 181.279C271.918 178.648 271.64 175.925 270.606 173.452C269.572 170.979 267.828 168.869 265.595 167.387C264.114 166.396 262.451 165.708 260.703 165.363C258.954 165.017 257.155 165.022 255.408 165.375C253.661 165.729 252.002 166.426 250.526 167.424C249.049 168.423 247.785 169.704 246.807 171.193V171.193Z" fill="white"/>
<path d="M468.413 225.115L451.143 222.783L462.561 137.192L429.253 132.704L348.458 207.086L344.212 238.909L413.831 248.303L410.355 274.34L443.663 278.828L447.139 252.802L464.409 255.134L468.413 225.115ZM381.051 213.323L423.687 174.46L417.835 218.284L381.051 213.323Z" fill="#80A7FA"/>
<path d="M433.543 278.014H433.4C433.257 277.987 433.131 277.905 433.049 277.786C432.966 277.666 432.934 277.519 432.96 277.376L458.7 136.642C458.729 136.501 458.812 136.376 458.931 136.294C459.05 136.212 459.195 136.179 459.338 136.202C459.481 136.229 459.607 136.311 459.689 136.43C459.772 136.55 459.804 136.697 459.778 136.84L434.093 277.563C434.068 277.69 433.999 277.805 433.899 277.887C433.798 277.969 433.673 278.014 433.543 278.014V278.014Z" fill="#102F4E"/>
<path d="M456.313 139.007C456.304 139.246 456.201 139.472 456.025 139.635C455.85 139.798 455.617 139.885 455.378 139.876C455.139 139.867 454.913 139.764 454.75 139.589C454.587 139.413 454.5 139.18 454.509 138.941C454.518 138.702 454.621 138.476 454.796 138.313C454.972 138.15 455.205 138.063 455.444 138.072C455.683 138.081 455.909 138.184 456.072 138.36C456.235 138.535 456.322 138.768 456.313 139.007Z" fill="#102F4E"/>
<path d="M452.65 158.037C452.643 158.215 452.584 158.388 452.479 158.532C452.375 158.677 452.23 158.787 452.063 158.849C451.896 158.911 451.714 158.922 451.54 158.881C451.367 158.84 451.209 158.748 451.088 158.618C450.966 158.487 450.887 158.323 450.858 158.147C450.83 157.971 450.854 157.791 450.928 157.628C451.002 157.466 451.123 157.33 451.275 157.236C451.427 157.142 451.603 157.096 451.781 157.102C451.899 157.106 452.016 157.134 452.124 157.183C452.232 157.233 452.329 157.303 452.409 157.389C452.49 157.476 452.553 157.578 452.594 157.689C452.635 157.8 452.654 157.919 452.65 158.037Z" fill="#102F4E"/>
<path d="M448.987 177.1C448.983 177.219 448.955 177.335 448.906 177.443C448.857 177.551 448.787 177.648 448.7 177.729C448.613 177.809 448.511 177.872 448.4 177.914C448.289 177.955 448.171 177.974 448.052 177.969C447.934 177.967 447.818 177.94 447.71 177.892C447.602 177.844 447.505 177.775 447.424 177.689C447.344 177.603 447.281 177.502 447.239 177.391C447.198 177.281 447.179 177.163 447.183 177.045C447.186 176.926 447.212 176.808 447.261 176.699C447.31 176.59 447.38 176.492 447.467 176.41C447.554 176.328 447.656 176.264 447.768 176.222C447.88 176.18 447.999 176.161 448.118 176.165C448.356 176.177 448.581 176.281 448.743 176.456C448.905 176.631 448.993 176.862 448.987 177.1Z" fill="#102F4E"/>
<path d="M441.771 196.9C441.746 197.121 441.641 197.325 441.476 197.473C441.311 197.621 441.096 197.703 440.874 197.703C440.652 197.703 440.438 197.621 440.273 197.473C440.107 197.325 440.002 197.121 439.978 196.9C439.964 196.774 439.977 196.647 440.015 196.526C440.054 196.405 440.118 196.294 440.202 196.199C440.287 196.105 440.391 196.029 440.506 195.977C440.622 195.926 440.748 195.899 440.874 195.899C441.001 195.899 441.127 195.926 441.243 195.977C441.358 196.029 441.462 196.105 441.547 196.199C441.631 196.294 441.695 196.405 441.734 196.526C441.772 196.647 441.785 196.774 441.771 196.9V196.9Z" fill="#102F4E"/>
<path d="M441.65 215.127C441.647 215.246 441.621 215.363 441.572 215.472C441.523 215.58 441.453 215.678 441.366 215.759C441.279 215.84 441.176 215.903 441.064 215.943C440.953 215.984 440.834 216.002 440.715 215.996C440.537 215.99 440.364 215.93 440.22 215.826C440.075 215.721 439.965 215.576 439.903 215.409C439.841 215.242 439.83 215.06 439.871 214.887C439.912 214.713 440.004 214.556 440.134 214.434C440.265 214.313 440.429 214.233 440.605 214.204C440.781 214.176 440.962 214.2 441.124 214.275C441.286 214.349 441.422 214.469 441.516 214.621C441.61 214.773 441.656 214.949 441.65 215.127Z" fill="#102F4E"/>
<path d="M437.987 234.157C437.982 234.336 437.925 234.509 437.822 234.655C437.718 234.801 437.574 234.913 437.407 234.977C437.24 235.041 437.058 235.054 436.883 235.014C436.709 234.974 436.551 234.883 436.428 234.752C436.306 234.622 436.225 234.458 436.195 234.282C436.166 234.106 436.19 233.924 436.264 233.762C436.338 233.599 436.458 233.462 436.611 233.367C436.763 233.273 436.939 233.227 437.118 233.233C437.355 233.242 437.58 233.343 437.742 233.516C437.905 233.689 437.993 233.92 437.987 234.157V234.157Z" fill="#102F4E"/>
<path d="M434.324 253.187C434.315 253.427 434.212 253.654 434.037 253.819C433.862 253.984 433.629 254.073 433.389 254.067C433.27 254.063 433.154 254.035 433.046 253.986C432.938 253.937 432.841 253.866 432.761 253.78C432.68 253.693 432.617 253.591 432.576 253.48C432.535 253.369 432.516 253.25 432.52 253.132C432.524 253.014 432.55 252.897 432.599 252.789C432.648 252.681 432.717 252.583 432.804 252.502C432.89 252.421 432.991 252.358 433.102 252.316C433.213 252.274 433.331 252.254 433.449 252.257C433.568 252.261 433.685 252.288 433.793 252.337C433.901 252.385 433.998 252.455 434.079 252.541C434.16 252.627 434.224 252.729 434.266 252.84C434.308 252.951 434.328 253.069 434.324 253.187V253.187Z" fill="#102F4E"/>
<path d="M430.65 272.228C430.643 272.406 430.584 272.579 430.48 272.723C430.375 272.868 430.23 272.978 430.063 273.04C429.896 273.102 429.714 273.113 429.54 273.072C429.367 273.031 429.209 272.939 429.088 272.809C428.966 272.678 428.887 272.514 428.858 272.338C428.83 272.162 428.854 271.982 428.928 271.819C429.003 271.657 429.123 271.521 429.275 271.427C429.427 271.333 429.603 271.287 429.781 271.293C429.9 271.296 430.017 271.322 430.126 271.371C430.234 271.42 430.332 271.49 430.413 271.577C430.494 271.664 430.556 271.767 430.597 271.879C430.638 271.99 430.656 272.109 430.65 272.228V272.228Z" fill="#102F4E"/>
<path d="M440.869 197.395C440.745 197.395 440.625 197.353 440.529 197.274C440.433 197.196 440.366 197.087 440.341 196.966C440.325 196.895 440.323 196.822 440.335 196.75C440.347 196.679 440.374 196.61 440.412 196.549C440.451 196.488 440.502 196.435 440.561 196.393C440.621 196.351 440.688 196.322 440.759 196.306L443.487 195.723C443.559 195.707 443.633 195.705 443.705 195.718C443.777 195.731 443.846 195.759 443.907 195.799C443.969 195.839 444.022 195.89 444.063 195.951C444.104 196.012 444.133 196.08 444.147 196.152C444.161 196.223 444.162 196.296 444.148 196.367C444.134 196.438 444.107 196.505 444.067 196.565C444.027 196.626 443.976 196.678 443.916 196.718C443.856 196.758 443.789 196.787 443.718 196.801L440.99 197.384L440.869 197.395Z" fill="#102F4E"/>
<path d="M449.988 187.264C448.69 190.63 447.589 194.067 446.688 197.56C445.863 201.443 445.819 210.133 445.819 210.133" fill="#102F4E"/>
<path d="M445.819 210.683C445.673 210.677 445.535 210.616 445.433 210.512C445.331 210.408 445.272 210.268 445.269 210.122C445.269 209.77 445.335 201.322 446.16 197.45C447.056 193.927 448.158 190.46 449.46 187.066C449.482 186.994 449.519 186.927 449.568 186.869C449.617 186.811 449.678 186.765 449.746 186.732C449.814 186.698 449.888 186.68 449.964 186.677C450.039 186.673 450.115 186.686 450.185 186.713C450.256 186.74 450.32 186.782 450.374 186.835C450.427 186.889 450.47 186.952 450.498 187.023C450.526 187.093 450.539 187.168 450.536 187.244C450.534 187.319 450.516 187.394 450.483 187.462C449.187 190.802 448.085 194.214 447.183 197.681C446.38 201.465 446.325 210.045 446.314 210.133C446.315 210.27 446.265 210.402 446.173 210.504C446.082 210.605 445.955 210.669 445.819 210.683Z" fill="#102F4E"/>
<path d="M244.695 305.624C246.224 280.984 243.419 236.181 289.74 242.121C339.383 248.468 325.182 306.526 325.182 306.526L244.695 305.624Z" fill="#102F4E"/>
<path d="M276.661 290.818C287.827 290.818 296.879 281.766 296.879 270.6C296.879 259.434 287.827 250.382 276.661 250.382C265.495 250.382 256.443 259.434 256.443 270.6C256.443 281.766 265.495 290.818 276.661 290.818Z" fill="white"/>
<path d="M279.323 250.415C269.742 248.787 259.523 255.838 258.5 262.988L296.461 266.486C295.119 258.335 286.913 251.713 279.323 250.415Z" fill="#102F4E"/>
<path d="M292.138 270.094C291.863 275.385 288.981 279.532 285.703 279.356C282.425 279.18 279.983 274.769 280.203 269.456C280.423 264.143 283.36 260.018 286.638 260.194C289.916 260.37 292.402 264.814 292.138 270.094Z" fill="#102F4E"/>
<path d="M276.661 291.918C272.445 291.918 268.323 290.668 264.817 288.325C261.312 285.983 258.579 282.653 256.966 278.758C255.352 274.863 254.93 270.576 255.753 266.441C256.575 262.306 258.606 258.507 261.587 255.526C264.568 252.545 268.367 250.514 272.502 249.692C276.637 248.869 280.924 249.291 284.819 250.905C288.714 252.518 292.044 255.251 294.386 258.756C296.729 262.262 297.979 266.384 297.979 270.6C297.973 276.252 295.725 281.671 291.729 285.668C287.732 289.664 282.313 291.912 276.661 291.918V291.918ZM276.661 251.493C272.879 251.493 269.183 252.615 266.038 254.716C262.894 256.817 260.444 259.803 258.997 263.297C257.551 266.791 257.173 270.636 257.911 274.345C258.65 278.054 260.472 281.46 263.146 284.133C265.821 286.807 269.229 288.627 272.938 289.363C276.647 290.099 280.492 289.719 283.985 288.271C287.478 286.822 290.463 284.37 292.562 281.224C294.662 278.079 295.781 274.382 295.779 270.6C295.773 265.532 293.757 260.674 290.172 257.092C286.588 253.51 281.729 251.496 276.661 251.493V251.493Z" fill="#80A7FA"/>
<path opacity="0.3" d="M319.539 305.008H319.407C319.336 304.992 319.269 304.963 319.21 304.921C319.151 304.879 319.101 304.826 319.063 304.764C319.025 304.703 319 304.634 318.989 304.563C318.978 304.491 318.982 304.418 319 304.348C319 304.205 322.542 289.289 318.901 274.208C318.866 274.062 318.89 273.908 318.969 273.78C319.047 273.652 319.173 273.561 319.319 273.526C319.465 273.491 319.619 273.515 319.747 273.594C319.875 273.672 319.966 273.798 320.001 273.944C323.708 289.344 320.133 304.458 320.1 304.601C320.067 304.723 319.994 304.83 319.892 304.904C319.79 304.978 319.665 305.015 319.539 305.008V305.008Z" fill="white"/>
<path opacity="0.3" d="M316.47 265.936C316.364 265.935 316.261 265.904 316.172 265.848C316.083 265.792 316.011 265.712 315.964 265.617C314.597 262.595 312.844 259.763 310.75 257.191C310.659 257.078 310.616 256.934 310.63 256.79C310.645 256.646 310.715 256.513 310.827 256.421C310.883 256.374 310.948 256.339 311.018 256.317C311.088 256.296 311.161 256.288 311.234 256.296C311.306 256.303 311.377 256.324 311.441 256.359C311.506 256.394 311.562 256.441 311.608 256.498C313.754 259.144 315.554 262.053 316.965 265.155C316.996 265.22 317.014 265.29 317.018 265.362C317.022 265.434 317.011 265.506 316.986 265.574C316.962 265.641 316.924 265.703 316.875 265.756C316.826 265.809 316.767 265.851 316.701 265.881C316.629 265.915 316.55 265.933 316.47 265.936V265.936Z" fill="white"/>
<path d="M141.603 421.212H141.196C139.737 421.171 138.355 420.553 137.352 419.492C136.35 418.432 135.809 417.017 135.85 415.558C135.891 414.099 136.51 412.717 137.57 411.714C138.63 410.711 140.045 410.171 141.504 410.212H141.603C144.782 410.212 152.427 406.351 168.421 381.139C168.846 380.469 169.41 379.9 170.075 379.468C170.741 379.037 171.491 378.755 172.276 378.641C173.061 378.527 173.861 378.584 174.621 378.809C175.382 379.033 176.085 379.419 176.682 379.94C189.243 390.738 202.941 400.136 217.536 407.968C218.211 408.275 218.818 408.716 219.318 409.264C219.819 409.811 220.204 410.454 220.449 411.155C220.695 411.855 220.796 412.597 220.747 413.338C220.698 414.078 220.5 414.801 220.164 415.463C219.828 416.124 219.362 416.711 218.794 417.188C218.225 417.665 217.566 418.022 216.856 418.238C216.146 418.453 215.4 418.523 214.662 418.442C213.925 418.362 213.211 418.133 212.564 417.769C199 410.561 186.178 402.035 174.284 392.315C160.875 412.5 150.931 421.212 141.603 421.212Z" fill="#102F4E"/>
<path d="M175.637 378.95H175.164C174.3 378.825 173.52 378.362 172.996 377.663C172.473 376.964 172.247 376.086 172.37 375.221C173.151 369.721 172.183 349.228 165.242 333.278C164.934 332.573 164.882 331.783 165.095 331.044C165.308 330.305 165.772 329.663 166.408 329.23C181.478 318.967 213.576 317.735 214.94 317.691C215.373 317.677 215.805 317.748 216.211 317.9C216.617 318.053 216.989 318.284 217.306 318.58C217.622 318.876 217.878 319.232 218.057 319.627C218.236 320.021 218.336 320.448 218.35 320.881C218.364 321.314 218.293 321.746 218.141 322.152C217.988 322.558 217.757 322.93 217.461 323.247C217.165 323.563 216.809 323.819 216.414 323.998C216.02 324.177 215.593 324.277 215.16 324.291C214.863 324.291 186.802 325.391 172.392 333.311C178.53 349.195 179.927 368.984 178.904 376.145C178.785 376.926 178.391 377.639 177.791 378.154C177.192 378.669 176.427 378.951 175.637 378.95Z" fill="#102F4E"/>
<path d="M181.181 374.682C178.981 369.501 169.081 370.084 163.284 374.528C160.182 376.893 155.98 384.032 155.584 386.628C155.452 387.245 155.472 387.885 155.642 388.492C155.811 389.1 156.126 389.657 156.559 390.116C156.992 390.574 157.53 390.921 158.127 391.126C158.723 391.331 159.361 391.388 159.984 391.292C163.779 390.962 168.982 385.451 168.982 385.451C165.517 388.85 169.994 391.248 176.682 386.331C180.334 383.592 183.634 380.479 181.181 374.682Z" fill="#80A7FA"/>
<path d="M370.381 307.076C370.33 307.087 370.278 307.087 370.227 307.076C370.157 307.057 370.091 307.024 370.034 306.979C369.977 306.934 369.93 306.878 369.895 306.815C369.86 306.751 369.838 306.681 369.831 306.609C369.824 306.536 369.831 306.463 369.853 306.394C371.316 301.29 372.911 298.177 375.012 296.494C374.683 295.311 374.744 294.053 375.188 292.908C375.701 291.571 376.606 290.421 377.784 289.608C377.464 289.262 377.236 288.84 377.123 288.383C377.009 287.925 377.013 287.446 377.135 286.99C377.533 285.612 378.357 284.395 379.489 283.514C379.081 283.057 378.857 282.465 378.862 281.853C378.862 278.553 384.923 273.581 391.798 272.635C391.944 272.615 392.092 272.653 392.209 272.742C392.327 272.83 392.405 272.962 392.425 273.108C392.445 273.254 392.407 273.402 392.318 273.519C392.23 273.637 392.098 273.715 391.952 273.735C385.418 274.626 379.94 279.356 379.962 281.853C379.96 282.225 380.102 282.584 380.358 282.854C381.838 281.851 383.502 281.152 385.255 280.799C387.008 280.446 388.813 280.445 390.566 280.797C393.943 281.446 395.318 282.161 395.164 283.184C394.856 285.109 387.673 285.516 382.855 284.944C381.992 284.866 381.152 284.623 380.38 284.229C379.343 284.967 378.571 286.02 378.18 287.232C378.086 287.553 378.086 287.894 378.182 288.214C378.278 288.534 378.464 288.82 378.719 289.036C380.765 287.936 383.636 287.54 387.431 288.376C392.414 289.476 392.601 290.081 392.722 290.444C392.761 290.572 392.764 290.709 392.731 290.838C392.698 290.968 392.63 291.087 392.535 291.181C391.49 292.281 383.845 291.764 380.006 290.818C379.543 290.712 379.095 290.546 378.675 290.323C377.539 291.013 376.664 292.062 376.189 293.304C375.871 294.108 375.784 294.984 375.936 295.834C376.132 295.717 376.334 295.61 376.541 295.515C378.818 294.415 381.568 294.613 384.967 296.065C387.167 297.022 388.267 297.88 388.377 298.749C388.382 298.972 388.326 299.192 388.216 299.386C388.105 299.579 387.944 299.74 387.75 299.849C386.067 300.949 380.193 300.795 377.135 299.167C376.432 298.785 375.846 298.218 375.441 297.528C373.648 299.178 372.196 302.115 370.876 306.724C370.836 306.824 370.768 306.91 370.68 306.973C370.593 307.035 370.489 307.071 370.381 307.076V307.076ZM376.343 296.813C376.649 297.382 377.116 297.849 377.685 298.155C380.171 299.475 385.055 299.772 386.881 299.035C387.255 298.881 387.31 298.76 387.31 298.76C387.31 298.76 387.255 298.144 384.56 296.989C381.48 295.669 379.06 295.482 377.047 296.417C376.804 296.534 376.569 296.666 376.343 296.813V296.813ZM380.017 289.586L380.292 289.663C383.874 290.489 387.561 290.767 391.226 290.488C389.926 290.006 388.586 289.638 387.222 289.388C384.853 288.746 382.347 288.815 380.017 289.586V289.586ZM381.403 283.404C381.911 283.586 382.439 283.704 382.976 283.756C388.476 284.405 393.305 283.646 393.976 282.953C393.789 282.788 393.052 282.315 390.324 281.798C387.254 281.186 384.067 281.76 381.403 283.404V283.404Z" fill="#102F4E"/>
<path d="M227.183 419.375C227.909 419.144 227.667 418.44 226.853 418.44H211.959C183.601 415.437 163.79 419.463 176.275 420.409C188.76 421.355 175.395 421.157 166.276 424.611C157.157 428.065 234.091 428.934 241.076 424.611C247.5 420.629 217.129 422.598 227.183 419.375Z" fill="#102F4E"/>
<path d="M333.817 423.764L204.237 419.463L198.858 293.821L351.879 297.242L333.817 423.764Z" fill="#80A7FA"/>
<path d="M244.695 421.355C244.556 421.356 244.423 421.304 244.321 421.21C244.219 421.116 244.156 420.987 244.145 420.849L233.761 294.657C233.752 294.512 233.799 294.369 233.894 294.258C233.988 294.147 234.122 294.077 234.267 294.063C234.412 294.057 234.553 294.105 234.664 294.199C234.774 294.293 234.844 294.425 234.861 294.569L245.3 420.761C245.306 420.833 245.298 420.906 245.275 420.975C245.253 421.044 245.218 421.108 245.171 421.163C245.124 421.219 245.066 421.264 245.001 421.297C244.937 421.33 244.866 421.35 244.794 421.355H244.695Z" fill="#102F4E"/>
<path d="M333.817 423.764L368.643 418.462L379.61 301.631L351.879 297.242L333.817 423.764Z" fill="#80A7FA"/>
<path opacity="0.2" d="M333.817 423.764L368.643 418.462L379.61 301.631L351.879 297.242L333.817 423.764Z" fill="#102F4E"/>
<path d="M215.303 395.252L212.113 320.595C212.034 318.751 212.335 316.91 212.996 315.186C213.657 313.463 214.665 311.893 215.956 310.574C217.248 309.256 218.797 308.216 220.507 307.52C222.216 306.823 224.05 306.485 225.896 306.526L322.762 308.726C324.669 308.769 326.546 309.216 328.268 310.037C329.99 310.859 331.518 312.036 332.752 313.491C333.986 314.946 334.897 316.647 335.426 318.48C335.955 320.313 336.089 322.237 335.819 324.126L325.083 399.3C324.619 402.592 322.955 405.598 320.412 407.739C317.868 409.881 314.623 411.008 311.3 410.905L228.371 408.155C224.967 408.05 221.728 406.662 219.304 404.269C216.881 401.876 215.451 398.655 215.303 395.252V395.252Z" fill="#102F4E"/>
<path d="M225.775 329.439L240.757 329.912L240.636 333.773L231.253 333.476L231.165 336.358L239.866 336.633L239.745 340.329L231.044 340.043L230.934 343.618L240.581 343.926L240.449 348.018L225.192 347.534L225.775 329.439Z" fill="white"/>
<path d="M243.54 348.117L244.112 330.022L253.44 330.319C254.777 330.312 256.108 330.505 257.389 330.891C258.297 331.195 259.073 331.8 259.589 332.607C259.971 333.194 260.229 333.854 260.345 334.545C260.461 335.236 260.434 335.944 260.264 336.624C260.095 337.304 259.788 337.942 259.361 338.498C258.935 339.054 258.398 339.516 257.785 339.856C257.16 340.178 256.488 340.401 255.794 340.516C256.305 340.681 256.791 340.918 257.235 341.22C257.556 341.518 257.844 341.85 258.093 342.21C258.376 342.552 258.627 342.921 258.841 343.31L261.382 348.645L255.068 348.436L252.252 342.815C252.029 342.278 251.699 341.792 251.284 341.385C250.889 341.099 250.418 340.939 249.931 340.923H249.436L249.205 348.26L243.54 348.117ZM249.502 337.535L251.856 337.612C252.356 337.582 252.852 337.512 253.341 337.403C253.709 337.347 254.043 337.155 254.276 336.864C254.514 336.571 254.649 336.207 254.661 335.83C254.682 335.578 254.646 335.325 254.557 335.089C254.467 334.854 254.326 334.64 254.144 334.466C253.53 334.069 252.805 333.88 252.076 333.927L249.612 333.85L249.502 337.535Z" fill="white"/>
<path d="M263.208 348.7L263.78 330.605L273.097 330.902C274.435 330.894 275.766 331.087 277.046 331.474C277.956 331.775 278.733 332.381 279.246 333.19C279.804 334.072 280.066 335.108 279.994 336.149C279.997 337.027 279.763 337.889 279.315 338.645C278.868 339.4 278.224 340.02 277.453 340.439C276.827 340.759 276.155 340.982 275.462 341.099C275.97 341.263 276.452 341.5 276.892 341.803C277.221 342.093 277.513 342.421 277.761 342.782C278.042 343.126 278.293 343.494 278.509 343.882L281.05 349.206L274.736 349.008L271.92 343.387C271.695 342.851 271.366 342.365 270.952 341.957C270.559 341.66 270.081 341.498 269.588 341.495H269.104L268.862 348.843L263.208 348.7ZM269.159 338.118L271.524 338.184C272.024 338.165 272.521 338.099 273.009 337.986C273.375 337.932 273.706 337.739 273.933 337.447C274.179 337.159 274.316 336.793 274.318 336.413C274.342 336.162 274.309 335.91 274.221 335.673C274.134 335.437 273.994 335.224 273.812 335.049C273.199 334.643 272.467 334.453 271.733 334.51L269.28 334.433L269.159 338.118Z" fill="white"/>
<path d="M281.952 340.296C281.867 339.034 282.063 337.768 282.525 336.59C282.988 335.412 283.706 334.351 284.627 333.483C285.548 332.615 286.65 331.963 287.854 331.571C289.057 331.18 290.333 331.061 291.588 331.221C292.855 331.179 294.117 331.392 295.3 331.848C296.483 332.303 297.562 332.992 298.474 333.872C299.288 334.809 299.902 335.902 300.28 337.084C300.659 338.266 300.793 339.512 300.674 340.747C300.683 342.544 300.26 344.317 299.442 345.917C298.7 347.226 297.591 348.289 296.252 348.975C294.673 349.73 292.927 350.063 291.181 349.943C289.441 349.958 287.719 349.582 286.143 348.843C284.801 348.115 283.706 347.005 282.997 345.653C282.165 343.997 281.804 342.144 281.952 340.296V340.296ZM287.54 340.494C287.375 341.881 287.689 343.282 288.431 344.465C288.778 344.852 289.199 345.166 289.67 345.387C290.14 345.607 290.65 345.731 291.17 345.751C291.689 345.77 292.207 345.685 292.693 345.5C293.179 345.315 293.622 345.034 293.997 344.674C294.812 343.439 295.199 341.971 295.097 340.494C295.245 339.168 294.921 337.833 294.184 336.721C293.851 336.337 293.438 336.029 292.975 335.818C292.512 335.607 292.009 335.499 291.5 335.5C290.987 335.463 290.472 335.543 289.993 335.734C289.515 335.924 289.086 336.22 288.739 336.6C287.906 337.723 287.483 339.097 287.54 340.494V340.494Z" fill="white"/>
<path d="M303.501 350.031L304.073 331.925L313.39 332.222C314.727 332.22 316.057 332.413 317.339 332.794C318.244 333.103 319.019 333.707 319.539 334.51C320.094 335.393 320.356 336.428 320.287 337.469C320.292 338.349 320.059 339.213 319.611 339.971C319.164 340.728 318.519 341.35 317.746 341.77C317.117 342.081 316.447 342.3 315.755 342.419C316.264 342.586 316.746 342.827 317.185 343.134C317.514 343.423 317.806 343.752 318.054 344.113C318.337 344.455 318.588 344.824 318.802 345.213L321.343 350.548L315.029 350.35L312.213 344.718C311.989 344.185 311.66 343.702 311.245 343.299C310.85 343.004 310.374 342.838 309.881 342.826H309.397L309.155 350.174L303.501 350.031ZM309.452 339.438L311.817 339.515C312.317 339.496 312.814 339.43 313.302 339.317C313.666 339.258 313.996 339.066 314.226 338.778C314.486 338.471 314.623 338.08 314.611 337.678C314.635 337.429 314.602 337.178 314.514 336.943C314.426 336.709 314.286 336.497 314.105 336.325C313.492 335.919 312.76 335.729 312.026 335.786L309.573 335.709L309.452 339.438Z" fill="white"/>
<path d="M312.4 380.776C312.194 380.78 311.989 380.74 311.799 380.658C311.609 380.577 311.439 380.456 311.3 380.303L301.884 369.996L291.72 379.28C291.438 379.538 291.066 379.674 290.684 379.657C290.303 379.641 289.943 379.473 289.685 379.192L280.269 368.885L270.105 378.169C269.823 378.427 269.451 378.563 269.069 378.546C268.688 378.53 268.328 378.362 268.07 378.081L258.643 367.774L248.49 377.058C248.342 377.192 248.168 377.295 247.979 377.359C247.79 377.423 247.589 377.448 247.39 377.432C247.008 377.409 246.649 377.24 246.389 376.959L236.973 366.663L226.82 375.936C226.537 376.195 226.162 376.331 225.779 376.314C225.395 376.298 225.034 376.13 224.774 375.848C224.646 375.709 224.546 375.545 224.482 375.367C224.417 375.189 224.388 374.999 224.398 374.81C224.407 374.621 224.454 374.435 224.535 374.264C224.617 374.093 224.732 373.939 224.873 373.813L236.093 363.55C236.376 363.291 236.751 363.156 237.134 363.172C237.518 363.188 237.879 363.356 238.139 363.638L247.555 373.945L257.708 364.661C257.996 364.408 258.37 364.274 258.753 364.287C259.136 364.308 259.495 364.477 259.754 364.76L269.17 375.067L279.334 365.783C279.473 365.654 279.636 365.554 279.814 365.488C279.991 365.423 280.181 365.393 280.37 365.401C280.559 365.41 280.745 365.455 280.917 365.536C281.088 365.617 281.242 365.73 281.369 365.871L290.785 376.178L300.949 366.894C301.231 366.636 301.603 366.5 301.985 366.517C302.366 366.533 302.726 366.701 302.984 366.982L313.5 378.4C313.688 378.61 313.811 378.87 313.853 379.149C313.896 379.428 313.856 379.713 313.74 379.969C313.623 380.226 313.434 380.443 313.196 380.594C312.959 380.745 312.682 380.824 312.4 380.82V380.776Z" fill="white"/>
<path d="M138.325 426.437L131.439 423.148L125.301 393.261L128.634 389.598L138.325 426.437Z" fill="#80A7FA"/>
<path d="M138.325 426.437L147.466 421.091L139.634 396.473L128.634 389.598L138.325 426.437Z" fill="#80A7FA"/>
<path opacity="0.2" d="M138.325 426.437L147.466 421.091L139.634 396.473L128.634 389.598L138.325 426.437Z" fill="#102F4E"/>
<path d="M288.2 431.871H287.441C285.982 431.831 284.599 431.214 283.595 430.155C282.592 429.096 282.05 427.681 282.09 426.222C282.129 424.764 282.746 423.38 283.805 422.377C284.865 421.373 286.279 420.831 287.738 420.871C296.208 421.146 314.138 415.943 324.39 405.999C325.009 405.392 325.763 404.939 326.59 404.679C343.959 399.465 350.416 409.992 350.68 410.443L341.22 416.042C341.253 416.112 341.294 416.178 341.341 416.24C341.242 416.097 338.778 412.94 330.946 414.876C318.087 426.602 298.353 431.871 288.2 431.871Z" fill="#102F4E"/>
<path d="M287.529 439.175L267.498 437.921L265.925 400.983L292.842 401.984L287.529 439.175Z" fill="#80A7FA"/>
<path d="M287.529 439.175L292.215 434.511L295.119 411.488L292.842 401.984L287.529 439.175Z" fill="#80A7FA"/>
<path opacity="0.2" d="M287.529 439.175L292.215 434.511L295.119 411.488L292.842 401.984L287.529 439.175Z" fill="#102F4E"/>
<path d="M403.601 425.194C402.882 425.193 402.183 424.958 401.61 424.523C390.17 415.833 374.715 400.4 368.786 385.517C368.697 385.302 368.634 385.076 368.599 384.846C365.706 367.642 362.945 331.441 362.824 329.912C362.791 329.479 362.845 329.043 362.98 328.63C363.116 328.217 363.332 327.835 363.616 327.506C364.188 326.841 365.001 326.43 365.876 326.365C366.752 326.299 367.617 326.584 368.282 327.156C368.948 327.728 369.358 328.542 369.424 329.417C369.424 329.78 372.251 366.333 375.067 383.394C380.985 397.87 397.067 412.731 405.625 419.265C406.176 419.683 406.582 420.264 406.785 420.925C406.988 421.586 406.978 422.294 406.757 422.95C406.536 423.605 406.114 424.174 405.552 424.577C404.989 424.98 404.315 425.196 403.623 425.194H403.601Z" fill="#102F4E"/>
<path d="M418.858 426.855C416.306 426.855 413.413 425.7 410.256 423.423C409.547 422.91 409.071 422.136 408.933 421.271C408.794 420.407 409.005 419.523 409.519 418.814C410.032 418.105 410.806 417.629 411.671 417.491C412.535 417.353 413.419 417.564 414.128 418.077C416.856 420.046 418.341 420.277 418.858 420.277C419.733 420.277 420.572 420.625 421.191 421.244C421.81 421.863 422.158 422.702 422.158 423.577C422.158 424.452 421.81 425.292 421.191 425.911C420.572 426.529 419.733 426.877 418.858 426.877V426.855Z" fill="#102F4E"/>
<path d="M411.18 423.324C414.711 412.841 429.187 414.909 434.181 416.471C438.447 417.709 442.539 419.483 446.358 421.751C449.053 423.511 449.097 426.47 445.5 428.153C441.1 430.221 429.924 428.384 429.924 428.384C435.688 430.903 429.924 434.984 419.793 430.98C416.504 429.682 409.937 427.174 411.18 423.324Z" fill="#80A7FA"/>
<path d="M376.046 334.4C374.737 343.31 367.356 349.877 361.35 348.997C355.344 348.117 355.102 340.197 356.411 331.243C357.72 322.289 360.096 315.843 366.102 316.723C372.108 317.603 377.355 325.523 376.046 334.4Z" fill="#102F4E"/>
<path d="M230.868 298.87C231.366 298.87 231.77 298.467 231.77 297.968C231.77 297.47 231.366 297.066 230.868 297.066C230.37 297.066 229.966 297.47 229.966 297.968C229.966 298.467 230.37 298.87 230.868 298.87Z" fill="#102F4E"/>
<path d="M240.031 304.458C240.031 304.636 239.978 304.811 239.879 304.959C239.78 305.107 239.639 305.223 239.474 305.291C239.309 305.36 239.128 305.377 238.953 305.343C238.778 305.308 238.617 305.222 238.491 305.096C238.365 304.97 238.279 304.809 238.244 304.634C238.21 304.459 238.227 304.278 238.296 304.113C238.364 303.948 238.48 303.807 238.628 303.708C238.776 303.609 238.951 303.556 239.129 303.556C239.368 303.556 239.598 303.651 239.767 303.82C239.936 303.989 240.031 304.219 240.031 304.458Z" fill="#102F4E"/>
<path d="M241.043 411.048C241.043 411.226 240.99 411.401 240.891 411.549C240.792 411.697 240.651 411.813 240.486 411.881C240.321 411.95 240.14 411.967 239.965 411.933C239.79 411.898 239.629 411.812 239.503 411.686C239.377 411.56 239.291 411.399 239.256 411.224C239.222 411.049 239.239 410.868 239.308 410.703C239.376 410.538 239.492 410.397 239.64 410.298C239.788 410.199 239.963 410.146 240.141 410.146C240.38 410.146 240.61 410.241 240.779 410.41C240.948 410.579 241.043 410.809 241.043 411.048V411.048Z" fill="#102F4E"/>
<path d="M249.304 417.549C249.304 417.728 249.251 417.902 249.152 418.05C249.053 418.199 248.912 418.314 248.747 418.383C248.582 418.451 248.401 418.469 248.226 418.434C248.051 418.399 247.89 418.313 247.764 418.187C247.638 418.061 247.552 417.9 247.517 417.725C247.483 417.55 247.5 417.369 247.569 417.204C247.637 417.039 247.753 416.898 247.901 416.799C248.049 416.7 248.224 416.647 248.402 416.647C248.641 416.647 248.871 416.742 249.04 416.911C249.209 417.081 249.304 417.31 249.304 417.549Z" fill="#102F4E"/>
<path d="M90.761 428.362C89.1774 428.288 87.6307 427.859 86.2351 427.107C84.8395 426.355 83.6307 425.299 82.698 424.017C82.6523 423.958 82.619 423.89 82.6003 423.818C82.5816 423.746 82.5777 423.67 82.589 423.597C82.6003 423.523 82.6265 423.452 82.666 423.389C82.7055 423.326 82.7575 423.271 82.8188 423.228C82.8801 423.186 82.9494 423.156 83.0225 423.141C83.0956 423.126 83.171 423.126 83.2441 423.141C83.3172 423.156 83.3864 423.186 83.4476 423.229C83.5088 423.272 83.5607 423.326 83.6 423.39C85.657 426.36 90.2 427.933 92.18 426.998C92.3783 426.914 92.555 426.786 92.697 426.624C91.6965 426.184 90.8199 425.504 90.1446 424.644C89.4693 423.785 89.0161 422.772 88.825 421.696C88.572 420.299 88.374 418.396 89.518 418.154C91.102 417.802 93.17 421.619 93.918 424.512C94.0535 424.991 94.1019 425.49 94.061 425.986C94.6955 426.175 95.3628 426.227 96.019 426.14C96.3147 426.117 96.6024 426.033 96.8638 425.893C97.1252 425.753 97.3544 425.56 97.537 425.326C96.8131 424.78 96.2126 424.087 95.7747 423.293C95.3368 422.498 95.0715 421.621 94.996 420.717C94.578 417.703 94.897 417.186 95.227 416.922C95.3339 416.84 95.4615 416.789 95.5956 416.776C95.7296 416.762 95.8648 416.786 95.986 416.845C97.163 417.34 98.582 421.608 98.857 424.028C98.89 424.28 98.89 424.535 98.857 424.787C99.3312 424.969 99.834 425.066 100.342 425.073C101.275 425.109 102.197 424.868 102.993 424.38C102.839 424.281 102.696 424.171 102.553 424.061C101.453 423.082 100.947 421.52 101.145 419.298C101.299 417.571 101.684 416.625 102.377 416.328C102.601 416.238 102.845 416.215 103.082 416.262C103.318 416.309 103.536 416.424 103.708 416.592C104.451 417.412 105.005 418.384 105.334 419.44C105.663 420.496 105.757 421.611 105.611 422.708C105.516 423.164 105.324 423.596 105.05 423.973C107.074 424.325 109.912 423.753 112.365 423.148C112.437 423.131 112.512 423.128 112.586 423.139C112.659 423.151 112.729 423.177 112.793 423.216C112.856 423.255 112.911 423.305 112.955 423.366C112.998 423.426 113.03 423.494 113.047 423.566C113.064 423.638 113.067 423.713 113.056 423.786C113.044 423.86 113.018 423.93 112.979 423.993C112.94 424.057 112.89 424.112 112.829 424.156C112.769 424.199 112.701 424.231 112.629 424.248C109.648 424.985 106.436 425.59 104.17 424.93C103.064 425.771 101.709 426.22 100.32 426.206C99.7034 426.198 99.093 426.082 98.516 425.865C98.2601 426.261 97.9168 426.592 97.5125 426.835C97.1082 427.077 96.6537 427.223 96.184 427.262C95.3572 427.368 94.5171 427.297 93.72 427.053C93.4634 427.485 93.0791 427.827 92.62 428.032C92.03 428.27 91.3969 428.382 90.761 428.362V428.362ZM89.815 419.254C89.6629 420.002 89.693 420.775 89.903 421.509C90.0582 422.388 90.4232 423.218 90.967 423.926C91.5108 424.635 92.2175 425.202 93.027 425.579C93.0116 425.318 92.9674 425.06 92.895 424.809C92.037 421.663 90.387 419.496 89.815 419.254V419.254ZM95.942 418.297C95.9492 419.056 96.0117 419.813 96.129 420.563C96.2503 421.904 96.8427 423.159 97.801 424.105C97.5303 422.074 96.9009 420.107 95.942 418.297V418.297ZM102.861 417.34C102.861 417.34 102.443 417.549 102.289 419.386C102.135 421.223 102.454 422.488 103.312 423.225C103.515 423.389 103.737 423.53 103.972 423.643C104.261 423.333 104.466 422.955 104.566 422.543C104.762 420.811 104.294 419.07 103.257 417.67C103.026 417.384 102.894 417.34 102.861 417.34V417.34Z" fill="#102F4E"/>
<path d="M251.757 436.678L254.738 431.508L251.757 426.338H248.567L250.371 431.508L248.567 436.678H251.757Z" fill="#102F4E"/>
<path d="M248.776 434.203C248.408 434.227 248.04 434.174 247.693 434.05C247.346 433.925 247.029 433.731 246.76 433.479C246.491 433.227 246.277 432.923 246.131 432.584C245.984 432.246 245.909 431.882 245.909 431.514C245.909 431.145 245.984 430.781 246.131 430.443C246.277 430.104 246.491 429.8 246.76 429.548C247.029 429.296 247.346 429.102 247.693 428.977C248.04 428.853 248.408 428.8 248.776 428.824L243.716 427.812L242.363 431.904L244.629 435.358L248.776 434.203Z" fill="#102F4E"/>
<path d="M249.216 426.338H243.243L240.262 431.508L243.243 436.678H249.216L252.197 431.508L249.216 426.338ZM246.235 434.203C245.702 434.205 245.179 434.049 244.735 433.754C244.29 433.459 243.943 433.039 243.737 432.547C243.532 432.055 243.477 431.512 243.579 430.989C243.682 430.465 243.938 429.984 244.314 429.606C244.691 429.228 245.171 428.97 245.694 428.866C246.217 428.761 246.76 428.813 247.253 429.017C247.746 429.221 248.167 429.566 248.464 430.01C248.761 430.453 248.919 430.974 248.919 431.508C248.919 432.221 248.637 432.905 248.134 433.41C247.631 433.915 246.948 434.2 246.235 434.203V434.203Z" fill="#80A7FA"/>
<path d="M459.679 425.986L457.468 422.147L459.679 418.308H462.044L460.713 422.147L462.044 425.986H459.679Z" fill="#80A7FA"/>
<path d="M461.89 424.149C462.165 424.169 462.441 424.133 462.701 424.042C462.96 423.951 463.199 423.807 463.401 423.62C463.602 423.432 463.763 423.205 463.873 422.953C463.984 422.7 464.04 422.428 464.04 422.152C464.04 421.877 463.984 421.605 463.873 421.352C463.763 421.1 463.602 420.873 463.401 420.685C463.199 420.498 462.96 420.354 462.701 420.263C462.441 420.172 462.165 420.136 461.89 420.156L465.652 419.408L466.653 422.444L464.981 425.007L461.89 424.149Z" fill="#80A7FA"/>
<path d="M461.571 418.308H465.971L468.171 422.147L465.971 425.986H461.571L459.371 422.147L461.571 418.308ZM463.771 424.149C464.167 424.151 464.555 424.036 464.886 423.817C465.217 423.598 465.475 423.287 465.628 422.921C465.781 422.555 465.823 422.152 465.747 421.763C465.671 421.374 465.481 421.016 465.201 420.735C464.922 420.454 464.565 420.263 464.176 420.184C463.788 420.106 463.385 420.145 463.018 420.296C462.652 420.448 462.338 420.704 462.118 421.034C461.897 421.363 461.78 421.751 461.78 422.147C461.778 422.41 461.829 422.671 461.929 422.915C462.029 423.159 462.177 423.38 462.363 423.566C462.549 423.752 462.77 423.9 463.014 424C463.257 424.1 463.518 424.151 463.782 424.149H463.771Z" fill="#102F4E"/>
<path d="M377.3 431.09H382.272C382.894 431.087 383.49 430.838 383.929 430.396C384.368 429.955 384.615 429.358 384.615 428.736V428.736C384.615 428.113 384.368 427.516 383.929 427.075C383.49 426.634 382.894 426.385 382.272 426.382H377.3C376.676 426.382 376.077 426.63 375.635 427.071C375.194 427.513 374.946 428.112 374.946 428.736V428.736C374.946 429.36 375.194 429.959 375.635 430.4C376.077 430.842 376.676 431.09 377.3 431.09V431.09Z" fill="#102F4E"/>
<path d="M369.303 426.646C369.764 425.807 370.461 425.121 371.308 424.673C372.154 424.225 373.113 424.035 374.067 424.126C375.02 424.217 375.926 424.584 376.673 425.184C377.42 425.783 377.975 426.588 378.27 427.499C378.565 428.41 378.586 429.388 378.332 430.311C378.078 431.235 377.56 432.063 376.84 432.695C376.121 433.328 375.232 433.735 374.284 433.868C373.335 434.001 372.369 433.854 371.503 433.444C370.313 432.831 369.415 431.772 369.002 430.498C368.59 429.225 368.698 427.84 369.303 426.646Z" fill="#80A7FA"/>
<path d="M370.645 433.443L372.008 434.085L376.745 424.036L375.382 423.394L370.645 433.443Z" fill="#102F4E"/>
</svg>
