<svg width="16" height="17" viewBox="0 0 16 17" fill="none" xmlns="http://www.w3.org/2000/svg">
<path d="M7.71429 8.50005C8.73726 8.50005 9.71834 8.09368 10.4417 7.37032C11.1651 6.64697 11.5714 5.66589 11.5714 4.64291C11.5714 3.61993 11.1651 2.63885 10.4417 1.9155C9.71834 1.19214 8.73726 0.785767 7.71429 0.785767C6.69131 0.785767 5.71023 1.19214 4.98687 1.9155C4.26352 2.63885 3.85714 3.61993 3.85714 4.64291C3.85714 5.66589 4.26352 6.64697 4.98687 7.37032C5.71023 8.09368 6.69131 8.50005 7.71429 8.50005ZM10.2857 4.64291C10.2857 5.32489 10.0148 5.97895 9.53256 6.46118C9.05032 6.94342 8.39627 7.21434 7.71429 7.21434C7.0323 7.21434 6.37825 6.94342 5.89601 6.46118C5.41377 5.97895 5.14286 5.32489 5.14286 4.64291C5.14286 3.96092 5.41377 3.30687 5.89601 2.82463C6.37825 2.3424 7.0323 2.07148 7.71429 2.07148C8.39627 2.07148 9.05032 2.3424 9.53256 2.82463C10.0148 3.30687 10.2857 3.96092 10.2857 4.64291ZM15.4286 14.9286C15.4286 16.2143 14.1429 16.2143 14.1429 16.2143H1.28571C1.28571 16.2143 0 16.2143 0 14.9286C0 13.6429 1.28571 9.78577 7.71429 9.78577C14.1429 9.78577 15.4286 13.6429 15.4286 14.9286ZM14.1429 14.9235C14.1416 14.6072 13.9449 13.6558 13.0731 12.7841C12.2349 11.9458 10.6573 11.0715 7.71429 11.0715C4.77 11.0715 3.19371 11.9458 2.35543 12.7841C1.48371 13.6558 1.28829 14.6072 1.28571 14.9235H14.1429Z" fill="white"/>
</svg>
