<svg width="18" height="19" viewBox="0 0 18 19" fill="none" xmlns="http://www.w3.org/2000/svg">
<path fill-rule="evenodd" clip-rule="evenodd" d="M0.900025 4.55002C0.900025 2.18733 0.925323 1.40002 4.05002 1.40002C7.17473 1.40002 7.20002 2.18733 7.20002 4.55002C7.20002 6.91272 7.20999 7.70002 4.05002 7.70002C0.890059 7.70002 0.900025 6.91272 0.900025 4.55002Z" stroke="white" stroke-width="1.5" stroke-linecap="round" stroke-linejoin="round"/>
<path fill-rule="evenodd" clip-rule="evenodd" d="M10.8 4.55002C10.8 2.18733 10.8253 1.40002 13.95 1.40002C17.0748 1.40002 17.1 2.18733 17.1 4.55002C17.1 6.91272 17.11 7.70002 13.95 7.70002C10.7901 7.70002 10.8 6.91272 10.8 4.55002Z" stroke="white" stroke-width="1.5" stroke-linecap="round" stroke-linejoin="round"/>
<path fill-rule="evenodd" clip-rule="evenodd" d="M0.900025 14.45C0.900025 12.0874 0.925323 11.3 4.05002 11.3C7.17473 11.3 7.20002 12.0874 7.20002 14.45C7.20002 16.8127 7.20999 17.6 4.05002 17.6C0.890059 17.6 0.900025 16.8127 0.900025 14.45Z" stroke="white" stroke-width="1.5" stroke-linecap="round" stroke-linejoin="round"/>
<path fill-rule="evenodd" clip-rule="evenodd" d="M10.8 14.45C10.8 12.0874 10.8253 11.3 13.95 11.3C17.0748 11.3 17.1 12.0874 17.1 14.45C17.1 16.8127 17.11 17.6 13.95 17.6C10.7901 17.6 10.8 16.8127 10.8 14.45Z" stroke="white" stroke-width="1.5" stroke-linecap="round" stroke-linejoin="round"/>
</svg>
