<svg width="18" height="19" viewBox="0 0 18 19" fill="none" xmlns="http://www.w3.org/2000/svg">
<path d="M10.7325 0.75C10.8648 0.750004 10.9937 0.792005 11.1007 0.869953C11.2076 0.947902 11.287 1.05778 11.3275 1.18375L12.015 3.32C12.3038 3.46125 12.58 3.62 12.8438 3.79875L15.0388 3.32625C15.1682 3.29862 15.303 3.31278 15.4239 3.36669C15.5447 3.42061 15.6454 3.51149 15.7113 3.62625L17.4438 6.625C17.5099 6.7397 17.5379 6.87244 17.5238 7.00409C17.5096 7.13574 17.454 7.25949 17.365 7.3575L15.8588 9.02C15.8807 9.33879 15.8807 9.65871 15.8588 9.9775L17.365 11.6425C17.454 11.7405 17.5096 11.8643 17.5238 11.9959C17.5379 12.1276 17.5099 12.2603 17.4438 12.375L15.7113 15.375C15.6452 15.4895 15.5445 15.5802 15.4236 15.6338C15.3028 15.6875 15.168 15.7015 15.0388 15.6737L12.8438 15.2013C12.5813 15.3787 12.3038 15.5388 12.0163 15.68L11.3275 17.8162C11.287 17.9422 11.2076 18.0521 11.1007 18.13C10.9937 18.208 10.8648 18.25 10.7325 18.25H7.26751C7.13519 18.25 7.00628 18.208 6.89936 18.13C6.79243 18.0521 6.713 17.9422 6.67251 17.8162L5.98626 15.6812C5.69829 15.5404 5.42052 15.3796 5.15501 15.2L2.96126 15.6737C2.83184 15.7014 2.697 15.6872 2.57614 15.6333C2.45528 15.5794 2.35466 15.4885 2.28876 15.3738L0.556263 12.375C0.490106 12.2603 0.462084 12.1276 0.476238 11.9959C0.490391 11.8643 0.545989 11.7405 0.635013 11.6425L2.14126 9.9775C2.11944 9.65954 2.11944 9.34046 2.14126 9.0225L0.635013 7.3575C0.545989 7.25949 0.490391 7.13574 0.476238 7.00409C0.462084 6.87244 0.490106 6.7397 0.556263 6.625L2.28876 3.625C2.35484 3.51047 2.45554 3.41984 2.57639 3.36616C2.69723 3.31248 2.83198 3.29851 2.96126 3.32625L5.15501 3.8C5.42001 3.62125 5.69751 3.46 5.98626 3.31875L6.67376 1.18375C6.71412 1.05818 6.79317 0.948598 6.8996 0.870687C7.00602 0.792777 7.13437 0.750532 7.26626 0.75H10.7313H10.7325ZM10.275 2H7.72501L7.01501 4.20875L6.53626 4.4425C6.30091 4.55767 6.07371 4.68881 5.85626 4.835L5.41376 5.135L3.14376 4.645L1.86876 6.855L3.42501 8.5775L3.38751 9.1075C3.36955 9.36886 3.36955 9.63114 3.38751 9.8925L3.42501 10.4225L1.86626 12.145L3.14251 14.355L5.41251 13.8663L5.85501 14.165C6.07246 14.3112 6.29966 14.4423 6.53501 14.5575L7.01376 14.7913L7.72501 17H10.2775L10.99 14.79L11.4675 14.5575C11.7026 14.4426 11.9294 14.3114 12.1463 14.165L12.5875 13.8663L14.8588 14.355L16.1338 12.145L14.5763 10.4225L14.6138 9.8925C14.6318 9.63073 14.6318 9.36802 14.6138 9.10625L14.5763 8.57625L16.135 6.855L14.8588 4.645L12.5875 5.1325L12.1463 4.835C11.9294 4.68852 11.7026 4.55736 11.4675 4.4425L10.99 4.21L10.2763 2H10.275ZM9.00001 5.75C9.99458 5.75 10.9484 6.14509 11.6517 6.84835C12.3549 7.55161 12.75 8.50544 12.75 9.5C12.75 10.4946 12.3549 11.4484 11.6517 12.1517C10.9484 12.8549 9.99458 13.25 9.00001 13.25C8.00545 13.25 7.05162 12.8549 6.34836 12.1517C5.6451 11.4484 5.25001 10.4946 5.25001 9.5C5.25001 8.50544 5.6451 7.55161 6.34836 6.84835C7.05162 6.14509 8.00545 5.75 9.00001 5.75ZM9.00001 7C8.33697 7 7.70109 7.26339 7.23225 7.73223C6.76341 8.20107 6.50001 8.83696 6.50001 9.5C6.50001 10.163 6.76341 10.7989 7.23225 11.2678C7.70109 11.7366 8.33697 12 9.00001 12C9.66305 12 10.2989 11.7366 10.7678 11.2678C11.2366 10.7989 11.5 10.163 11.5 9.5C11.5 8.83696 11.2366 8.20107 10.7678 7.73223C10.2989 7.26339 9.66305 7 9.00001 7Z" fill="white"/>
</svg>
