<svg width="24" height="25" viewBox="0 0 24 25" fill="none" xmlns="http://www.w3.org/2000/svg">
<path d="M20.625 4.8125H16.6875V3.3125C16.6875 3.20937 16.6031 3.125 16.5 3.125H15.1875C15.0844 3.125 15 3.20937 15 3.3125V4.8125H9V3.3125C9 3.20937 8.91563 3.125 8.8125 3.125H7.5C7.39687 3.125 7.3125 3.20937 7.3125 3.3125V4.8125H3.375C2.96016 4.8125 2.625 5.14766 2.625 5.5625V21.125C2.625 21.5398 2.96016 21.875 3.375 21.875H20.625C21.0398 21.875 21.375 21.5398 21.375 21.125V5.5625C21.375 5.14766 21.0398 4.8125 20.625 4.8125ZM19.6875 20.1875H4.3125V6.5H7.3125V7.625C7.3125 7.72813 7.39687 7.8125 7.5 7.8125H8.8125C8.91563 7.8125 9 7.72813 9 7.625V6.5H15V7.625C15 7.72813 15.0844 7.8125 15.1875 7.8125H16.5C16.6031 7.8125 16.6875 7.72813 16.6875 7.625V6.5H19.6875V20.1875ZM16.125 10.3438H14.8312C14.7117 10.3438 14.5969 10.4023 14.5266 10.4984L10.9898 15.3688L9.47344 13.2828C9.40313 13.1867 9.29063 13.1281 9.16875 13.1281H7.875C7.72266 13.1281 7.63359 13.3016 7.72266 13.4258L10.6852 17.5039C10.7202 17.5519 10.766 17.5909 10.819 17.6177C10.8719 17.6446 10.9305 17.6586 10.9898 17.6586C11.0492 17.6586 11.1078 17.6446 11.1607 17.6177C11.2137 17.5909 11.2595 17.5519 11.2945 17.5039L16.2773 10.6437C16.3664 10.5172 16.2773 10.3438 16.125 10.3438Z" fill="#2C6CF6"/>
</svg>
