<svg width="20" height="21" viewBox="0 0 20 21" fill="none" xmlns="http://www.w3.org/2000/svg">
<path d="M16.953 10.045C16.984 10.284 17 10.538 17 10.808C17 12.343 16.535 13.375 16.09 14.016C15.9142 14.2705 15.7095 14.5037 15.48 14.711C15.405 14.7782 15.3262 14.841 15.244 14.899L15.235 14.905C15.1631 14.95 15.1038 15.0125 15.0627 15.0867C15.0216 15.1608 15 15.2442 15 15.329V17C15 17.1327 14.9473 17.2598 14.8536 17.3536C14.7598 17.4474 14.6326 17.5 14.5 17.5H13.116C13.0852 17.5 13.0557 17.4878 13.034 17.4661C13.0122 17.4443 13 17.4148 13 17.384C13 16.767 12.5 16.267 11.884 16.267H10.116C9.5 16.267 9 16.767 9 17.384C9 17.4148 8.98778 17.4443 8.96602 17.4661C8.94427 17.4878 8.91476 17.5 8.884 17.5H7.5C7.36739 17.5 7.24021 17.4474 7.14645 17.3536C7.05268 17.2598 7 17.1327 7 17V16.15C6.99971 16.0453 6.96655 15.9433 6.90518 15.8585C6.84382 15.7736 6.75736 15.7101 6.658 15.677L6.618 15.658C6.53859 15.619 6.46176 15.5749 6.388 15.526C6.168 15.384 5.821 15.12 5.356 14.649C4.93657 14.2173 4.59879 13.7132 4.359 13.161C4.175 12.739 3.79 12.368 3.275 12.281C3.19834 12.2681 3.12872 12.2285 3.0784 12.1692C3.02809 12.1099 3.00033 12.0348 3 11.957V10.45C3 10.3815 3.02431 10.3151 3.06862 10.2627C3.11292 10.2104 3.17436 10.1754 3.242 10.164C3.792 10.071 4.182 9.65004 4.334 9.18604C4.464 8.78804 4.698 8.26604 5.086 7.87304C5.4132 7.54676 5.77928 7.26196 6.176 7.02504C6.33495 6.92945 6.49848 6.84168 6.666 6.76204L6.692 6.75004L6.697 6.74804C6.78716 6.7094 6.86395 6.64508 6.91783 6.56311C6.97171 6.48114 7.00028 6.38513 7 6.28704V4.19004C7.253 4.41004 7.548 4.64804 7.866 4.86004C8.3 5.15204 8.817 5.42604 9.348 5.52504C9.47076 5.19153 9.63184 4.87339 9.828 4.57704C9.76701 4.57057 9.70601 4.56424 9.645 4.55804C9.29 4.52204 8.863 4.32504 8.422 4.03004C8.02494 3.757 7.65192 3.45055 7.307 3.11404C7.19907 3.01107 7.06359 2.94162 6.91698 2.91411C6.77036 2.88659 6.61892 2.9022 6.481 2.95904C6.33946 3.01461 6.21791 3.11146 6.13213 3.237C6.04635 3.36255 6.00032 3.51099 6 3.66304V5.97704C5.40249 6.29292 4.85464 6.69488 4.374 7.17004C3.831 7.72004 3.536 8.41004 3.384 8.87504C3.324 9.05304 3.194 9.15804 3.076 9.17804C2.77539 9.22861 2.5024 9.384 2.30544 9.61666C2.10847 9.84932 2.00027 10.1442 2 10.449V11.956C1.99984 12.2704 2.11104 12.5747 2.31387 12.8148C2.5167 13.055 2.79805 13.2156 3.108 13.268C3.233 13.288 3.368 13.39 3.442 13.561C3.731 14.2256 4.13827 14.8321 4.644 15.351C5.153 15.867 5.555 16.178 5.843 16.365C5.9 16.402 5.953 16.434 6 16.462V17C6 17.197 6.0388 17.3921 6.11418 17.5741C6.18956 17.7561 6.30005 17.9214 6.43934 18.0607C6.57863 18.2 6.74399 18.3105 6.92597 18.3859C7.10796 18.4612 7.30302 18.5 7.5 18.5H8.884C9.5 18.5 10 18 10 17.384C10 17.319 10.052 17.267 10.116 17.267H11.884C11.948 17.267 12 17.319 12 17.384C12 18 12.5 18.5 13.116 18.5H14.5C14.8978 18.5 15.2794 18.342 15.5607 18.0607C15.842 17.7794 16 17.3979 16 17V15.581C16.3472 15.2927 16.6534 14.9583 16.91 14.587C17.465 13.79 18 12.561 18 10.808C18 10.082 17.899 9.43204 17.707 8.85104C17.5199 9.28617 17.2655 9.6891 16.953 10.045V10.045ZM16.803 5.73204C17.103 6.4573 17.1506 7.26235 16.9381 8.0179C16.7255 8.77344 16.2652 9.43561 15.631 9.89804C15.201 10.21 14.634 10.188 14.144 9.98504L11.104 8.72604C10.614 8.52304 10.197 8.13804 10.114 7.61404C9.9846 6.76956 10.1685 5.90691 10.6312 5.18867C11.0938 4.47042 11.8031 3.94619 12.6255 3.71477C13.4479 3.48334 14.3266 3.56071 15.0959 3.9323C15.8652 4.30388 16.472 4.94401 16.802 5.73204H16.803ZM15.043 9.09004C15.4021 8.82859 15.6851 8.47618 15.8628 8.06908C16.0405 7.66197 16.1065 7.21487 16.054 6.77377C16.0016 6.33268 15.8326 5.91352 15.5644 5.55944C15.2962 5.20535 14.9384 4.92912 14.528 4.75917C14.1176 4.58922 13.6694 4.53168 13.2293 4.59249C12.7893 4.65329 12.3734 4.83023 12.0245 5.10511C11.6756 5.37998 11.4062 5.74287 11.244 6.15642C11.0819 6.56997 11.0329 7.01926 11.102 7.45804C11.1137 7.51477 11.1427 7.56648 11.185 7.60604C11.249 7.67404 11.351 7.74604 11.487 7.80204L14.527 9.06204C14.6382 9.11004 14.7579 9.13488 14.879 9.13504C14.937 9.13734 14.9943 9.12162 15.043 9.09004V9.09004ZM6.75 10C6.94891 10 7.13968 9.92102 7.28033 9.78037C7.42098 9.63972 7.5 9.44896 7.5 9.25004C7.5 9.05113 7.42098 8.86037 7.28033 8.71971C7.13968 8.57906 6.94891 8.50004 6.75 8.50004C6.55109 8.50004 6.36032 8.57906 6.21967 8.71971C6.07902 8.86037 6 9.05113 6 9.25004C6 9.44896 6.07902 9.63972 6.21967 9.78037C6.36032 9.92102 6.55109 10 6.75 10Z" fill="#2C6CF6"/>
</svg>
