<svg width="24" height="24" viewBox="0 0 24 24" fill="none" xmlns="http://www.w3.org/2000/svg">
<g clip-path="url(#clip0_660_10535)">
<path d="M23.4805 9.78834L21.3818 9.58386C21.1504 8.70135 20.7953 7.85112 20.3271 7.07085L21.667 5.45112C21.8446 5.23587 21.8285 4.92915 21.6347 4.73004L19.2993 2.36233C19.1056 2.16323 18.7881 2.14709 18.5728 2.32466L16.9531 3.66457C16.1675 3.19641 15.3226 2.83587 14.4401 2.60448L14.2356 0.495067C14.2087 0.215247 13.9773 0.00538117 13.6975 0H10.3397C10.0598 0.00538117 9.82845 0.215247 9.80155 0.495067L9.59706 2.60448C8.71455 2.83587 7.86433 3.19641 7.07868 3.66457L5.46433 2.32466C5.24908 2.14709 4.93697 2.16323 4.74325 2.35695L2.37554 4.72466C2.17644 4.91839 2.16567 5.23587 2.34325 5.45112L3.68316 7.07085C3.215 7.8565 2.85446 8.70135 2.62307 9.58386L0.529799 9.78834C0.255359 9.81525 0.050875 10.0466 0.0562561 10.3265V13.6789C0.050875 13.9534 0.255359 14.1848 0.529799 14.217L2.62845 14.4215C2.85984 15.304 3.215 16.1543 3.68316 16.9345L2.34325 18.5543C2.16567 18.7695 2.18182 19.0816 2.37554 19.2753L4.74325 21.643C4.93697 21.8368 5.25446 21.8529 5.46433 21.6753L7.08406 20.3354C7.86971 20.8036 8.71455 21.1641 9.59706 21.3955L9.80155 23.5049C9.82845 23.7848 10.0598 23.9946 10.3397 24H13.6975C13.9773 23.9946 14.2087 23.7848 14.2356 23.5049L14.4401 21.3955C15.3226 21.1641 16.1728 20.8036 16.9585 20.3354L18.5728 21.6753C18.7881 21.8529 19.1002 21.8368 19.2939 21.643L21.6616 19.2753C21.8607 19.0816 21.8715 18.7641 21.6939 18.5489L20.3486 16.9291C20.8168 16.1435 21.1773 15.2987 21.4087 14.4161L23.4697 14.2117C23.7442 14.1848 23.9486 13.948 23.9433 13.6735V10.3211C23.9594 10.0466 23.7549 9.81525 23.4805 9.78834ZM22.8939 13.1892H22.8778L20.919 13.383C20.6876 13.4045 20.4993 13.5767 20.4509 13.8027C20.2249 14.8251 19.8159 15.7991 19.2401 16.6762C19.111 16.8753 19.1271 17.1336 19.2778 17.3112L20.5585 18.8502L18.885 20.5238L17.3459 19.2484C17.163 19.0978 16.9047 19.0816 16.7056 19.2161C15.8285 19.7919 14.8545 20.2063 13.832 20.4269C13.6007 20.4807 13.4338 20.6744 13.4123 20.9058L13.2186 22.913H10.8401L10.6464 20.9058C10.6249 20.6744 10.4527 20.4807 10.2267 20.4269C9.19886 20.1955 8.22487 19.7812 7.34774 19.2108C7.14863 19.0816 6.89572 19.0978 6.71276 19.2484L5.17375 20.5238L3.5002 18.8502L4.77554 17.3058C4.92621 17.1229 4.94236 16.8646 4.80783 16.6655C4.23204 15.7937 3.82307 14.8197 3.59706 13.7973C3.55401 13.5713 3.36567 13.3991 3.13428 13.3776L1.14325 13.1839V10.8108L3.13428 10.617C3.36567 10.5955 3.55401 10.4233 3.60244 10.1973C3.82845 9.17489 4.23742 8.2009 4.81321 7.32377C4.94236 7.12466 4.92621 6.87175 4.77554 6.68879L3.5002 5.14978L5.17375 3.47623L6.71276 4.75157C6.89572 4.90224 7.15401 4.91839 7.35312 4.78386C8.23025 4.20807 9.20424 3.79372 10.2267 3.57309C10.458 3.51928 10.6249 3.32556 10.6464 3.09417L10.8401 1.087H13.2186L13.4123 3.09417C13.4338 3.32556 13.606 3.51928 13.832 3.57309C14.8598 3.80448 15.8338 4.21883 16.711 4.78924C16.9101 4.91839 17.163 4.90224 17.3459 4.75157L18.885 3.47623L20.537 5.14439L19.2616 6.68879C19.111 6.87175 19.0948 7.13004 19.2294 7.32915C19.8051 8.2009 20.2141 9.17489 20.4401 10.1973C20.4832 10.4233 20.6715 10.5955 20.9029 10.617L22.8939 10.8108V13.1892Z" fill="#405971"/>
<path d="M12.0078 4.96143C8.12798 4.96143 4.96924 8.12017 4.96924 12C4.96924 15.8798 8.12798 19.0386 12.0078 19.0386C15.8876 19.0386 19.0464 15.8798 19.0464 12C19.0464 8.12017 15.8876 4.96143 12.0078 4.96143ZM12.0078 17.9623C8.71453 17.9623 6.04547 15.2933 6.04547 12C6.04547 8.70672 8.71453 6.03766 12.0078 6.03766C15.3011 6.03766 17.9701 8.70672 17.9701 12C17.9701 15.2933 15.3011 17.9623 12.0078 17.9623Z" fill="#405971"/>
<path d="M12.0076 11.4619C11.5179 11.4565 11.1251 11.0583 11.1304 10.5686C11.1358 10.0897 11.5233 9.69688 12.0076 9.69688C12.4973 9.69688 12.8901 10.0951 12.8901 10.5794C12.8901 10.8754 13.1322 11.1175 13.4282 11.1175C13.7242 11.1175 13.9663 10.8754 13.9663 10.5794C13.9663 9.70227 13.3852 8.93814 12.5457 8.69599V8.35159C12.5457 8.05563 12.3035 7.81348 12.0076 7.81348C11.7116 7.81348 11.4695 8.05563 11.4695 8.35159V8.69599C10.4309 8.99195 9.8282 10.0789 10.1242 11.1175C10.3663 11.957 11.1358 12.5381 12.0076 12.5381C12.4973 12.5381 12.8901 12.9363 12.8901 13.4207C12.8901 13.905 12.4919 14.3032 12.0076 14.3032C11.5179 14.3032 11.1251 13.905 11.1251 13.4207C11.1251 13.1247 10.8829 12.8825 10.5869 12.8825C10.291 12.8825 10.0488 13.1247 10.0488 13.4207C10.0488 14.2978 10.63 15.0619 11.4695 15.3041V15.6485C11.4695 15.9444 11.7116 16.1866 12.0076 16.1866C12.3035 16.1866 12.5457 15.9444 12.5457 15.6485V15.3041C13.5843 15.0081 14.1869 13.9211 13.891 12.8825C13.6542 12.0431 12.8847 11.4619 12.0076 11.4619Z" fill="#405971"/>
</g>
<defs>
<clipPath id="clip0_660_10535">
<rect width="24" height="24" fill="white"/>
</clipPath>
</defs>
</svg>
