<svg width="25" height="24" viewBox="0 0 25 24" fill="none" xmlns="http://www.w3.org/2000/svg">
<g clip-path="url(#clip0_660_10558)">
<path d="M20.7186 6.68484H17.6308V4.72818C17.6255 2.11214 15.508 -0.00535058 12.8919 1.01562e-05H12.8866C10.2813 1.01562e-05 8.14234 2.12286 8.14234 4.72818V6.68484H4.78652C4.48096 6.6902 4.23436 6.9368 4.229 7.24236V21.2124C4.229 22.7402 5.49414 24 7.02195 24H18.4778C20.0056 24 21.2708 22.7456 21.2708 21.2124V7.24236C21.2654 6.9368 21.0242 6.6902 20.7186 6.68484ZM9.21448 4.72818C9.21448 2.71254 10.8656 1.07216 12.8812 1.07216C14.9076 1.0668 16.548 2.70182 16.5587 4.72818V6.68484H9.21448V4.72818ZM20.204 21.2124C20.204 22.1506 19.4213 22.9279 18.4832 22.9279H7.02195C6.08382 22.9279 5.30115 22.1506 5.30115 21.2124V7.75699H8.14234V9.75654C8.14234 10.0514 8.38357 10.2926 8.67841 10.2926C8.97325 10.2926 9.21448 10.0514 9.21448 9.75654V7.75699H16.5587V9.75654C16.5587 10.0514 16.7999 10.2926 17.0948 10.2926C17.3896 10.2926 17.6308 10.0514 17.6308 9.75654V7.75699H20.204V21.2124Z" fill="#405971"/>
<path d="M12.7528 10.0406C9.35943 10.0406 6.60938 12.7907 6.60938 16.184C6.60938 19.5774 9.35943 22.3274 12.7528 22.3274C16.1461 22.3274 18.8962 19.5774 18.8962 16.184C18.8962 12.7907 16.1461 10.0406 12.7528 10.0406ZM12.7528 21.2553C9.94911 21.2553 7.68152 18.9824 7.68152 16.184C7.68152 13.3857 9.95447 11.1128 12.7528 11.1128C15.5511 11.1128 17.824 13.3857 17.824 16.184C17.824 18.9824 15.5511 21.2553 12.7528 21.2553Z" fill="#405971"/>
<path d="M15.0526 18.4999C14.9454 18.2265 14.6345 18.0871 14.3611 18.1943C13.5731 18.4999 12.6725 18.3123 12.0721 17.7119C12.0238 17.669 11.9809 17.6261 11.9434 17.5725H13.8679C14.1628 17.5725 14.404 17.3313 14.404 17.0364C14.404 16.7416 14.1628 16.5003 13.8679 16.5003H11.4663C11.4502 16.3931 11.4449 16.2859 11.4449 16.1787H14.1467C14.4415 16.1787 14.6828 15.9375 14.6828 15.6426C14.6828 15.3478 14.4415 15.1066 14.1467 15.1066H11.7451C11.8308 14.9511 11.9434 14.8064 12.0667 14.6831C12.6725 14.0773 13.5677 13.8843 14.3611 14.1845C14.6399 14.2917 14.9454 14.1523 15.0526 13.8789C15.1599 13.6055 15.0205 13.2946 14.7471 13.1874C13.557 12.7371 12.2168 13.0212 11.3162 13.9218C10.9839 14.2596 10.7319 14.6616 10.5711 15.1066H10.2387C9.94387 15.1066 9.70264 15.3478 9.70264 15.6426C9.70264 15.9375 9.94387 16.1787 10.2387 16.1787H10.3781C10.3781 16.2859 10.3834 16.3931 10.3942 16.5003H10.2387C9.94387 16.5003 9.70264 16.7416 9.70264 17.0364C9.70264 17.3313 9.94387 17.5725 10.2387 17.5725H10.6837C10.8445 17.9049 11.0589 18.2051 11.3162 18.4677C12.2168 19.363 13.5624 19.6471 14.7471 19.1914C15.0258 19.0842 15.1599 18.7733 15.0526 18.4999Z" fill="#405971"/>
</g>
<defs>
<clipPath id="clip0_660_10558">
<rect width="24" height="24" fill="white" transform="translate(0.75)"/>
</clipPath>
</defs>
</svg>
