<svg width="25" height="24" viewBox="0 0 25 24" fill="none" xmlns="http://www.w3.org/2000/svg">
<path d="M20.706 15.2118V6.61292C20.706 6.34588 20.4875 6.16138 20.2204 6.16138H18.3414C18.0744 6.16138 17.8413 6.34588 17.8413 6.61292V14.3718C17.5306 14.3815 17.2198 14.4203 16.9188 14.4932V9.14742C16.9188 8.88037 16.6906 8.68616 16.4236 8.68616H14.5445C14.2775 8.68616 14.0541 8.87552 14.0541 9.14742V16.3965C13.4764 17.2073 13.1656 18.1832 13.1705 19.1834C13.1705 21.8442 15.3262 23.9999 17.9821 23.9999C20.6429 23.9999 22.7986 21.8442 22.7986 19.1883C22.7986 17.5957 22.0169 16.11 20.706 15.2118ZM18.8124 7.13245H19.7349V14.6971C19.4387 14.5806 19.128 14.4932 18.8124 14.4446V7.13245ZM15.0252 9.65723H15.9477V14.8282C15.6224 14.9787 15.3117 15.1632 15.0252 15.3817V9.65723ZM21.2935 21.1401C20.5992 22.3103 19.3416 23.024 17.987 23.024C15.8652 23.024 14.1464 21.3004 14.1464 19.1834C14.1464 17.6297 15.0835 16.2265 16.5207 15.6342C16.5789 15.6245 16.6323 15.6002 16.6809 15.571C17.0984 15.4157 17.5451 15.338 17.9918 15.338C18.0938 15.338 18.1909 15.3428 18.2929 15.3526H18.2977C18.8804 15.3963 19.4484 15.5759 19.9485 15.8769C21.7741 16.9597 22.3762 19.3145 21.2935 21.1401Z" fill="#405971"/>
<path d="M19.8709 16.4159C19.6524 16.2605 19.3514 16.3139 19.196 16.5324L17.987 18.2367L16.778 16.5324C16.6227 16.3139 16.3216 16.2605 16.108 16.4159C15.8895 16.5713 15.8361 16.8723 15.9915 17.0859L15.9963 17.0908L17.6034 19.3485V19.3679H17.0596C16.7926 19.3679 16.5741 19.5864 16.5741 19.8535C16.5741 20.1205 16.7926 20.339 17.0596 20.339H17.5986V20.6303H17.0548C16.7877 20.6303 16.5692 20.8488 16.5692 21.1159C16.5692 21.3829 16.7877 21.6014 17.0548 21.6014H17.5986V21.8636C17.5986 22.1306 17.8171 22.3491 18.0841 22.3491C18.3512 22.3491 18.5696 22.1306 18.5696 21.8636V21.6014H19.0795C19.3465 21.6014 19.565 21.3829 19.565 21.1159C19.565 20.8488 19.3465 20.6303 19.0795 20.6303H18.5696V20.339H19.0795C19.3465 20.339 19.565 20.1205 19.565 19.8535C19.565 19.5864 19.3465 19.3679 19.0795 19.3679H18.5696V19.334C18.5648 19.2757 18.5551 19.2126 18.5308 19.1592L19.9923 17.0908C20.1428 16.8723 20.0894 16.5664 19.8709 16.4159Z" fill="#405971"/>
<path d="M8.81076 12.5706H6.91718C6.65013 12.5706 6.43164 12.789 6.43164 13.0561V20.679C6.43164 20.946 6.65013 21.1645 6.91718 21.1645H8.81076C9.07781 21.1645 9.2963 20.946 9.2963 20.679V13.0561C9.2963 12.789 9.07781 12.5706 8.81076 12.5706ZM8.32523 20.242H7.40271V13.5416H8.32523V20.242Z" fill="#405971"/>
<path d="M12.6462 11.4537H10.7526C10.4856 11.4537 10.2671 11.6722 10.2671 11.9393V20.7275C10.2671 20.9945 10.4856 21.213 10.7526 21.213H12.6462C12.9133 21.213 13.1317 20.9945 13.1317 20.7275V11.9393C13.1317 11.6722 12.9133 11.4537 12.6462 11.4537ZM12.1607 20.2419H11.2382V12.4248H12.1607V20.2419Z" fill="#405971"/>
<path d="M4.97483 16.7461H3.08124C2.81419 16.7461 2.5957 16.9646 2.5957 17.2316V20.6789C2.5957 20.946 2.81419 21.1645 3.08124 21.1645H4.97483C5.24187 21.1645 5.46036 20.946 5.46036 20.6789V17.2316C5.46036 16.9646 5.24187 16.7461 4.97483 16.7461ZM4.48929 20.2419H3.56677V17.7172H4.48929V20.2419Z" fill="#405971"/>
<path d="M20.6333 0L17.3122 0.00485535C17.0452 0 16.8267 0.218491 16.8218 0.485535C16.817 0.752579 17.0355 0.97107 17.3025 0.975926C17.3074 0.975926 17.3074 0.975926 17.3122 0.975926L19.4632 0.97107L14.1951 6.21971L12.3549 4.39409C12.2627 4.3067 12.1364 4.263 12.0102 4.26785C11.884 4.263 11.7577 4.3067 11.6655 4.39409L2.34319 13.7164C2.15383 13.9057 2.15383 14.2116 2.34319 14.3961C2.43544 14.4884 2.55683 14.5369 2.68792 14.5369C2.81902 14.5369 2.9404 14.4884 3.03265 14.3961L12.0151 5.41372L13.8552 7.26846C13.9426 7.36557 14.0689 7.41898 14.2 7.42383C14.3311 7.41898 14.4524 7.36071 14.5447 7.26846L20.1478 1.66053L20.1429 3.82116C20.1429 4.09306 20.3565 4.31155 20.6284 4.32126C20.9003 4.31641 21.114 4.09306 21.114 3.82116L21.1188 0.49039C21.1188 0.223346 20.9003 0 20.6333 0Z" fill="#405971"/>
</svg>
