<svg width="25" height="24" viewBox="0 0 25 24" fill="none" xmlns="http://www.w3.org/2000/svg">
<g clip-path="url(#clip0_660_10629)">
<path d="M24.1825 12.7452C24.0583 12.1577 23.423 11.6847 22.2717 11.336C21.3068 11.0446 20.0934 10.8727 18.7559 10.844V5.74221C18.7559 5.61801 18.7081 5.49859 18.6269 5.40783C18.4502 4.87281 17.8148 4.43811 16.74 4.11327C15.6652 3.78844 14.2656 3.61169 12.7895 3.61169C11.3182 3.61169 9.92809 3.78844 8.87717 4.11327C8.01254 4.38078 6.97594 4.87758 6.97594 5.73266C6.97594 5.7852 6.98072 5.83775 6.99027 5.8903L7.04282 8.06859C6.68932 8.00171 6.33105 7.96827 5.968 7.96827C2.81522 7.96827 0.25 10.5335 0.25 13.6863C0.25 16.8438 2.80567 19.4043 5.96323 19.4043C7.27689 19.4043 8.55233 18.9505 9.56982 18.1241C10.4679 18.3342 11.5236 18.4489 12.6414 18.4584C12.885 19.7817 15.756 20.3883 18.4311 20.3883C19.9024 20.3883 21.2877 20.2068 22.3482 19.882C23.2223 19.6145 24.2494 19.1129 24.2494 18.2578V13.0032C24.2542 12.9124 24.2303 12.8216 24.1825 12.7452ZM9.14467 5.03045C10.1096 4.73428 11.4042 4.56708 12.7799 4.56708C14.1414 4.56708 15.4837 4.73428 16.4582 5.03045C17.4996 5.34573 17.7241 5.67056 17.7241 5.73744C17.7241 5.80431 17.4996 6.12915 16.4582 6.44442C15.4885 6.73582 14.1461 6.90779 12.7847 6.90779C11.4663 6.90779 10.2147 6.75493 9.2641 6.47786C8.23705 6.18169 7.94566 5.85208 7.92178 5.74699C7.92178 5.74221 7.917 5.73744 7.91222 5.73266C7.91222 5.63234 8.23228 5.31229 9.14467 5.03045ZM17.8005 6.91734V8.11158C17.748 8.19279 17.7241 8.28355 17.7241 8.37909C17.7241 8.44119 17.4996 8.7708 16.463 9.08607C15.4932 9.38225 14.1509 9.54944 12.7895 9.54944C11.6096 9.54944 10.4536 9.42524 9.53638 9.19117C9.52205 9.18639 9.50772 9.18639 9.49817 9.18161C9.04914 8.82334 8.54278 8.53673 8.00776 8.33609L7.97432 6.989C8.30393 7.15619 8.64787 7.28994 9.00614 7.38548C10.0427 7.68643 11.3851 7.84885 12.7943 7.84885C14.2703 7.84885 15.67 7.6721 16.74 7.34727C17.1031 7.25173 17.4613 7.10364 17.8005 6.91734ZM9.16856 17.2069C7.22434 18.9791 4.21009 18.8358 2.44262 16.8916C0.675148 14.9474 0.81368 11.9331 2.7579 10.1657C3.63686 9.36791 4.77855 8.92366 5.96323 8.92366C6.44092 8.92366 6.91384 8.99531 7.37243 9.13384C7.99343 9.32492 8.57144 9.64498 9.06347 10.0749C9.86599 10.758 10.4153 11.6943 10.6303 12.7261C10.6924 13.0414 10.7258 13.3662 10.7258 13.6863C10.7306 15.0286 10.1622 16.3088 9.16856 17.2069ZM10.3819 17.312C10.7688 16.8391 11.0793 16.3088 11.2991 15.7404C11.7099 15.7738 12.1398 15.7977 12.5841 15.8025C12.5745 15.8598 12.5745 15.9123 12.5841 15.9697L12.6032 17.5078C11.8628 17.4983 11.1223 17.4362 10.3819 17.312ZM11.6573 13.1178C11.9392 13.1369 12.2306 13.1465 12.5315 13.1513C12.5363 13.1847 12.5459 13.2181 12.5554 13.2516L12.5745 14.8423C12.2306 14.8375 11.8914 14.8232 11.5714 14.7993C11.643 14.4315 11.6812 14.0541 11.6812 13.6815C11.6812 13.4952 11.6717 13.3089 11.6573 13.1178ZM12.8229 12.2006C12.8086 12.2006 12.799 12.2006 12.7847 12.2006C12.3213 12.2006 11.8819 12.1815 11.471 12.1481C11.2943 11.5128 11.0029 10.9109 10.6208 10.3711C11.3373 10.4618 12.0634 10.5096 12.7847 10.5096C14.2608 10.5096 15.6604 10.3329 16.7305 10.008C17.1031 9.90293 17.4566 9.75485 17.7957 9.56855V10.844C16.6015 10.8774 15.4789 11.0303 14.5856 11.2835C13.7449 11.5223 13.1573 11.828 12.8229 12.2006ZM13.4821 12.9124C13.5633 12.7643 13.9216 12.4777 14.8531 12.215C15.7894 11.9522 17.0075 11.8089 18.2878 11.8089H18.326C19.6922 11.8089 21.0297 11.9666 21.9994 12.2627C23.0026 12.5685 23.2462 12.8742 23.2606 12.9554V12.9602C23.2558 13.0318 23.0217 13.3614 21.9612 13.6767C20.9819 13.9681 19.6874 14.1258 18.326 14.1258C17.0601 14.1258 15.842 13.9824 14.9057 13.7293C14.0076 13.4856 13.6207 13.2038 13.506 13.0414C13.506 12.9984 13.4965 12.9554 13.4821 12.9124ZM22.0663 18.9648C21.0918 19.2657 19.802 19.4329 18.4263 19.4329C17.0457 19.4329 15.7607 19.2705 14.8006 18.9791C13.8882 18.6973 13.5825 18.382 13.5825 18.2769C13.5825 18.2721 13.5825 18.2721 13.5825 18.2674L13.5777 17.976L13.5634 16.8964C13.9455 17.0827 14.342 17.226 14.7528 17.3263C15.756 17.589 17.0219 17.7323 18.326 17.7323C19.802 17.7323 21.1874 17.5556 22.2574 17.2308C22.6061 17.1257 23.0074 16.9824 23.294 16.7961V18.253C23.294 18.3199 23.0838 18.6495 22.0663 18.9648ZM23.2988 15.3534H23.294C23.294 15.4251 23.2319 15.5111 23.2319 15.6066C23.2319 15.6735 23.0121 15.9983 21.9851 16.3136C21.0058 16.6098 19.7065 16.7722 18.3212 16.7722C15.7225 16.7722 13.9551 16.1942 13.5442 15.7356L13.5251 14.2261C14.6525 14.8136 16.5489 15.0811 18.326 15.0811C19.7782 15.0811 21.1587 14.9092 22.224 14.5939C22.5966 14.4888 22.9548 14.3455 23.2988 14.1592V15.3534Z" fill="#405971"/>
<path d="M8.43783 10.0366C8.22287 9.88379 7.9267 9.93633 7.77384 10.1513L5.98726 12.6735L4.20068 10.1513C4.04782 9.93633 3.74687 9.88379 3.53191 10.0366C3.31695 10.1895 3.2644 10.4905 3.41726 10.7054L5.4188 13.5286H4.26756C4.00483 13.5286 3.78987 13.7436 3.78987 14.0063C3.78987 14.269 4.00483 14.484 4.26756 14.484H5.5239V14.7706H4.26756C4.00483 14.7706 3.78987 14.9856 3.78987 15.2483C3.78987 15.511 4.00483 15.726 4.26756 15.726H5.5239V16.7578C5.5239 17.0205 5.73886 17.2355 6.00159 17.2355C6.26432 17.2355 6.47929 17.0205 6.47929 16.7578V15.726H7.52544C7.78817 15.726 8.00313 15.511 8.00313 15.2483C8.00313 14.9856 7.78817 14.7706 7.52544 14.7706H6.47929V14.484H7.52544C7.78817 14.484 8.00313 14.269 8.00313 14.0063C8.00313 13.7436 7.78817 13.5286 7.52544 13.5286H6.55572L8.55248 10.7054C8.70534 10.4857 8.6528 10.1895 8.43783 10.0366Z" fill="#405971"/>
</g>
<defs>
<clipPath id="clip0_660_10629">
<rect width="24" height="24" fill="white" transform="translate(0.25)"/>
</clipPath>
</defs>
</svg>
