<svg width="24" height="24" viewBox="0 0 24 24" fill="none" xmlns="http://www.w3.org/2000/svg">
<path d="M22.7817 15.529C22.3223 14.101 21.3886 12.8776 20.1303 12.0687C20.315 11.3097 20.4099 10.5308 20.4099 9.75183C20.4099 4.37409 16.0358 0 10.6581 0C5.28035 0 0.90625 4.37409 0.90625 9.75183C0.90625 15.0547 5.16051 19.3788 10.4334 19.4987C11.5319 22.9091 15.182 24.7815 18.5924 23.688C22.0028 22.5895 23.8752 18.9394 22.7817 15.529ZM1.9049 9.75183C1.9049 4.92835 5.8296 0.998652 10.6581 0.998652C15.4866 0.998652 19.4113 4.92335 19.4113 9.75183C19.4113 10.366 19.3464 10.9752 19.2215 11.5744C18.857 11.4146 18.4775 11.2848 18.0881 11.1949C18.1779 10.7205 18.2279 10.2362 18.2279 9.74684C18.2279 5.57248 14.8324 2.18205 10.6631 2.18205C6.49371 2.18205 3.0933 5.57747 3.0933 9.75183C3.0933 13.7464 6.2041 17.027 10.1288 17.3016C10.1288 17.3715 10.1238 17.4415 10.1238 17.5164C10.1238 17.8459 10.1488 18.1705 10.1987 18.495C5.58493 18.2504 1.9049 14.4205 1.9049 9.75183ZM10.2387 16.303C6.80828 16.0883 4.09195 13.2321 4.09195 9.75183C4.09195 6.13172 7.03797 3.1857 10.6581 3.1857C14.2782 3.1857 17.2292 6.12673 17.2292 9.75183C17.2292 10.1862 17.1893 10.6207 17.1044 11.0451C16.9446 11.0351 16.7798 11.0251 16.6101 11.0251C13.4893 11.0201 10.8129 13.2421 10.2387 16.303ZM21.3836 20.2127C20.4149 21.9354 18.5874 22.999 16.6101 22.999C14.0934 23.0039 11.8964 21.2913 11.2872 18.8446C11.1774 18.4101 11.1225 17.9608 11.1225 17.5114C11.1225 17.3016 11.1324 17.0919 11.1624 16.8822V16.8772C11.482 14.1109 13.8238 12.0238 16.6101 12.0288C16.8797 12.0288 17.1493 12.0487 17.414 12.0887C18.0781 12.1836 18.7222 12.4082 19.3064 12.7378C21.9429 14.2258 22.8766 17.5763 21.3836 20.2127Z" fill="#405971"/>
<path d="M13.6292 9.90169H10.753V5.92706C10.753 5.65243 10.5283 5.42773 10.2537 5.42773C9.97909 5.42773 9.75439 5.65243 9.75439 5.92706V10.386C9.75439 10.6607 9.95912 10.9003 10.2337 10.9003H13.6292C13.9088 10.9003 14.1285 10.6757 14.1285 10.401C14.1285 10.1264 13.9038 9.90169 13.6292 9.90169Z" fill="#405971"/>
<path d="M18.7071 20.003C18.6072 19.7434 18.3176 19.6135 18.0629 19.7134C17.1941 20.0529 16.2054 19.8482 15.5413 19.1891C15.4714 19.1192 15.4115 19.0343 15.3516 18.9844H17.6984C17.973 18.9844 18.1977 18.7597 18.1977 18.4851C18.1977 18.2104 17.973 17.9857 17.6984 17.9857H14.8972C14.8622 17.786 14.8473 17.5863 14.8573 17.3865H17.9581C18.2327 17.3865 18.4574 17.1618 18.4574 16.8872C18.4574 16.6126 18.2327 16.3879 17.9581 16.3879H15.1219C15.2367 16.1832 15.3766 15.9934 15.5413 15.8286C16.2004 15.1745 17.1841 14.9698 18.0579 15.3093C18.3176 15.4092 18.6022 15.2794 18.7021 15.0247C18.8019 14.7651 18.6721 14.4805 18.4174 14.3806C17.1791 13.9012 15.776 14.1908 14.8323 15.1296C14.4778 15.4891 14.2081 15.9235 14.0334 16.3929H13.554C13.2794 16.3929 13.0547 16.6176 13.0547 16.8922C13.0547 17.1668 13.2794 17.3915 13.554 17.3915H13.8486C13.8436 17.5913 13.8536 17.791 13.8786 17.9907H13.554C13.2794 17.9907 13.0547 18.2154 13.0547 18.49C13.0547 18.7647 13.2794 18.9894 13.554 18.9894H14.1782C14.3529 19.3239 14.5726 19.6285 14.8323 19.8981C15.776 20.8319 17.1791 21.1265 18.4174 20.6471C18.6771 20.5473 18.8069 20.2577 18.7071 20.003Z" fill="#405971"/>
</svg>
