<svg width="25" height="24" viewBox="0 0 25 24" fill="none" xmlns="http://www.w3.org/2000/svg">
<path d="M16.0679 3.75684C15.1123 3.75684 14.1718 4.12809 13.4465 4.85271L7.00119 11.298C4.95794 13.3413 4.95794 16.666 7.00119 18.71C9.04513 20.7539 12.3706 20.7539 14.4138 18.71L18.7107 14.4131L17.7434 13.4465L13.4465 17.7433C13.0873 18.1039 12.6605 18.3901 12.1905 18.5853C11.7204 18.7806 11.2165 18.8811 10.7075 18.8811C10.1985 18.8811 9.69458 18.7806 9.22455 18.5853C8.75452 18.3901 8.32767 18.1039 7.9685 17.7433C7.60778 17.3842 7.32156 16.9573 7.12626 16.4872C6.93095 16.0171 6.83042 15.513 6.83042 15.004C6.83042 14.4949 6.93095 13.9909 7.12626 13.5208C7.32156 13.0507 7.60778 12.6238 7.9685 12.2646L14.4138 5.81934C14.6319 5.59985 14.8913 5.42566 15.177 5.3068C15.4628 5.18794 15.7691 5.12675 16.0786 5.12675C16.388 5.12675 16.6944 5.18794 16.9801 5.3068C17.2659 5.42566 17.5252 5.59985 17.7434 5.81934C17.963 6.03748 18.1372 6.29691 18.2562 6.58269C18.3751 6.86846 18.4363 7.17493 18.4363 7.48446C18.4363 7.79399 18.3751 8.10046 18.2562 8.38624C18.1372 8.67201 17.963 8.93144 17.7434 9.14959L11.2981 15.5949C10.9681 15.9249 10.4469 15.9249 10.1169 15.5949C10.0385 15.5178 9.97614 15.4258 9.93359 15.3244C9.89105 15.2229 9.86914 15.114 9.86914 15.004C9.86914 14.894 9.89105 14.7851 9.93359 14.6836C9.97614 14.5822 10.0385 14.4902 10.1169 14.4131L16.0253 8.50471L15.0573 7.53809L9.14963 13.4465C8.73807 13.8604 8.50705 14.4203 8.50705 15.004C8.50705 15.5877 8.73807 16.1476 9.14963 16.5615C9.56349 16.9729 10.1233 17.2038 10.7068 17.2038C11.2903 17.2038 11.8501 16.9729 12.264 16.5615L18.71 10.1162C19.23 9.59418 19.5836 8.92979 19.7262 8.20692C19.8689 7.48406 19.7941 6.73514 19.5114 6.05472C19.2288 5.37431 18.7508 4.79291 18.1379 4.38393C17.5251 3.97495 16.8047 3.75674 16.0679 3.75684Z" fill="#2C6CF6"/>
</svg>
