<svg width="25" height="27" viewBox="0 0 25 27" fill="none" xmlns="http://www.w3.org/2000/svg">
<path d="M14.8132 16.5612H7.01562" stroke="#405971" stroke-width="1.8" stroke-linecap="round" stroke-linejoin="round"/>
<path d="M14.8132 12.0399H7.01562" stroke="#405971" stroke-width="1.8" stroke-linecap="round" stroke-linejoin="round"/>
<path d="M9.99103 7.52889H7.01562" stroke="#405971" stroke-width="1.8" stroke-linecap="round" stroke-linejoin="round"/>
<path fill-rule="evenodd" clip-rule="evenodd" d="M15.0208 2.00977C15.0208 2.00977 6.72962 2.01409 6.71666 2.01409C3.73586 2.03245 1.89014 3.99373 1.89014 6.98533V16.917C1.89014 19.9237 3.7499 21.8926 6.75662 21.8926C6.75662 21.8926 15.0467 21.8893 15.0607 21.8893C18.0415 21.871 19.8883 19.9086 19.8883 16.917V6.98533C19.8883 3.97861 18.0275 2.00977 15.0208 2.00977Z" stroke="#405971" stroke-width="1.8" stroke-linecap="round" stroke-linejoin="round"/>
<path d="M15.6001 21L17.4001 22.8L22.2001 18" stroke="#EEF8FE" stroke-width="4.8" stroke-linecap="round"/>
<path d="M15.6001 21L17.4001 22.8L22.2001 18" stroke="#405971" stroke-width="2.4" stroke-linecap="round"/>
</svg>
