<svg width="25" height="24" viewBox="0 0 25 24" fill="none" xmlns="http://www.w3.org/2000/svg">
<path d="M12.112 1.5C6.31361 1.5 1.61205 6.20156 1.61205 12C1.61205 17.7984 6.31361 22.5 12.112 22.5C17.9105 22.5 22.612 17.7984 22.612 12C22.612 6.20156 17.9105 1.5 12.112 1.5ZM12.112 20.7188C7.29798 20.7188 3.3933 16.8141 3.3933 12C3.3933 7.18594 7.29798 3.28125 12.112 3.28125C16.9261 3.28125 20.8308 7.18594 20.8308 12C20.8308 16.8141 16.9261 20.7187 12.112 20.7188Z" fill="#2C6CF6"/>
<path d="M10.987 7.875C10.987 8.17337 11.1056 8.45952 11.3166 8.6705C11.5275 8.88147 11.8137 9 12.112 9C12.4104 9 12.6966 8.88147 12.9075 8.6705C13.1185 8.45952 13.237 8.17337 13.237 7.875C13.237 7.57663 13.1185 7.29048 12.9075 7.0795C12.6966 6.86853 12.4104 6.75 12.112 6.75C11.8137 6.75 11.5275 6.86853 11.3166 7.0795C11.1056 7.29048 10.987 7.57663 10.987 7.875V7.875ZM12.6745 10.5H11.5495C11.4464 10.5 11.362 10.5844 11.362 10.6875L11.362 17.0625C11.362 17.1656 11.4464 17.25 11.5495 17.25H12.6745C12.7777 17.25 12.862 17.1656 12.862 17.0625L12.862 10.6875C12.862 10.5844 12.7777 10.5 12.6745 10.5Z" fill="#2C6CF6"/>
</svg>
