<svg width="128" height="128" viewBox="0 0 128 128" fill="none" xmlns="http://www.w3.org/2000/svg">
<path d="M5.46152 22.5C9.06824 14.3502 17.0993 8.9632 27.3195 7.57854C37.3649 6.21365 44.7399 15.5898 55.903 19.912C64.9626 23.4231 73.7784 22.7703 82.8084 25.9583C91.423 29.0013 99.787 34.8796 105.556 42.3699C113.08 52.1286 114.319 61.8872 113.1 71.0985C112.345 76.7987 111.121 82.1626 108.111 86.6298C101.429 96.5203 87.9481 99.1809 72.9937 92.3795C67.2968 89.7783 61.8175 86.2837 56.4173 82.7495C42.9893 73.9469 29.736 64.8081 16.4103 55.8177C14.0069 54.1957 11.5573 52.5209 9.58255 50.4307C6.37803 47.0053 4.78237 42.7788 3.99772 38.8489C2.79109 32.6707 3.41089 27.132 5.46152 22.5Z" fill="#2C6CF6"/>
<path opacity="0.9" d="M5.46152 22.5C9.06824 14.3502 17.0993 8.9632 27.3195 7.57854C37.3649 6.21365 44.7399 15.5898 55.903 19.912C64.9626 23.4231 73.7784 22.7703 82.8084 25.9583C91.423 29.0013 99.787 34.8796 105.556 42.3699C113.08 52.1286 114.319 61.8872 113.1 71.0985C112.345 76.7987 111.121 82.1626 108.111 86.6298C101.429 96.5203 87.9481 99.1809 72.9937 92.3795C67.2968 89.7783 61.8175 86.2837 56.4173 82.7495C42.9893 73.9469 29.736 64.8081 16.4103 55.8177C14.0069 54.1957 11.5573 52.5209 9.58255 50.4307C6.37803 47.0053 4.78237 42.7788 3.99772 38.8489C2.79109 32.6707 3.41089 27.132 5.46152 22.5Z" fill="white"/>
<path d="M64 119.232C99.3032 119.232 127.922 117.561 127.922 115.5C127.922 113.439 99.3032 111.768 64 111.768C28.6967 111.768 0.0778046 113.439 0.0778046 115.5C0.0778046 117.561 28.6967 119.232 64 119.232Z" fill="#B8C1CA"/>
<path d="M75.4136 17.4362C73.4355 14.7591 73.8938 12.4217 75.4136 10.7403C77.3093 8.63033 80.405 8.64682 82.4688 9.72488C85.6997 11.4096 86.3953 18.7912 80.9984 19.8329C79.0835 19.1644 77.2174 18.3636 75.4136 17.4362Z" fill="#102F4E"/>
<path d="M81.8391 10.1897C83.8172 9.02589 83.2666 6.76756 85.0535 5.57411C87.5393 3.9257 92.8967 4.64111 91.2219 8.76215C89.5471 12.8832 95.5077 13.1205 93.7769 17.2152C92.0461 21.3099 87.0184 23.8089 85.7261 17.8746C84.7601 13.4272 88.8646 7.69727 85.5513 8.31378C83.4842 8.69621 82.7952 10.8227 82.7952 10.8227L81.8391 10.1897Z" fill="#102F4E"/>
<path d="M76.9236 27.6429C76.6532 28.3913 76.3598 29.0704 76.0466 29.7727C75.7334 30.4749 75.3872 31.1507 75.0246 31.8266C74.2946 33.2449 73.3776 34.5589 72.2981 35.7333C71.9895 36.0622 71.6506 36.3613 71.286 36.6268C70.9254 36.8826 70.5412 37.1034 70.1387 37.2861C69.3971 37.618 68.6239 37.8742 67.8309 38.051C66.3285 38.398 64.7902 38.5651 63.2483 38.5488C63.0753 38.546 62.9092 38.4805 62.7808 38.3646C62.6523 38.2487 62.5702 38.0901 62.5497 37.9183C62.5292 37.7465 62.5716 37.5731 62.6692 37.4302C62.7667 37.2873 62.9127 37.1846 63.0802 37.1411H63.1132C64.4924 36.8186 65.85 36.4101 67.1781 35.9179C67.8025 35.6853 68.4067 35.402 68.9848 35.0707C69.2423 34.9231 69.4871 34.7543 69.7167 34.5662C69.9389 34.3804 70.1441 34.1752 70.3299 33.953C70.7546 33.4513 71.1372 32.9154 71.4739 32.3508C71.83 31.7672 72.1728 31.1639 72.4893 30.5342C73.1157 29.288 73.7092 27.9561 74.2202 26.6769V26.6572C74.3557 26.3017 74.6269 26.0147 74.974 25.8592C75.3212 25.7037 75.7159 25.6925 76.0713 25.828C76.4268 25.9635 76.7138 26.2347 76.8693 26.5819C77.0248 26.929 77.036 27.3237 76.9005 27.6792L76.9236 27.6429Z" fill="#D88880"/>
<path d="M76.4949 25.2033C73.7718 25.5132 72.2717 29.598 72.2717 29.598L75.0608 33.5278C75.0608 33.5278 78.3577 29.7925 78.6445 28.1243C78.9313 26.4066 78.506 24.9692 76.4949 25.2033Z" fill="#102F4E"/>
<path opacity="0.2" d="M75.0048 27.7022C75.918 27.1286 76.9137 27.4451 77.7609 28.51C77.9362 28.8156 78.0535 29.1509 78.1071 29.499C77.2829 30.9925 75.0576 33.5244 75.0576 33.5244L73.7817 31.7277C73.6861 30.6661 74.4147 28.055 75.0048 27.7022Z" fill="#102F4E"/>
<path d="M63.7462 37.2863L61.6922 36.1786L61.6362 38.8556C61.6362 38.8556 63.0077 39.1523 63.9143 38.4204L63.7462 37.2863Z" fill="#D88880"/>
<path d="M59.6317 36.2709L59.9911 38.4567L61.6494 38.8556L61.7054 36.1786L59.6317 36.2709Z" fill="#D88880"/>
<path d="M69.9838 31.4541L68.1837 29.9772L55.9195 48.4031L57.736 49.8801C59.8065 51.5747 64.2275 48.8251 67.6265 43.7348C71.0256 38.6445 72.0542 33.1487 69.9838 31.4541Z" fill="#2C6CF6"/>
<path opacity="0.1" d="M69.9838 31.4541L68.1837 29.9772L55.9195 48.4031L57.736 49.8801C59.8065 51.5747 64.2275 48.8251 67.6265 43.7348C71.0256 38.6445 72.0542 33.1487 69.9838 31.4541Z" fill="#102F4E"/>
<path d="M66.1209 41.7645C69.3928 36.5929 70.224 31.2484 67.9775 29.8271C65.731 28.4058 61.2575 31.446 57.9856 36.6176C54.7138 41.7892 53.8825 47.1337 56.129 48.555C58.3756 49.9763 62.8491 46.9361 66.1209 41.7645Z" fill="#2C6CF6"/>
<path d="M59.7767 42.2114L61.4252 39.7256C61.2577 39.2159 61.2497 38.6673 61.4021 38.153C61.5908 37.5045 61.8836 36.891 62.2691 36.3364C62.6168 35.7761 63.0717 35.2898 63.6077 34.9056C64.0659 34.6023 64.4582 34.5298 64.778 34.688L65.1802 34.088L65.5297 34.3748L65.1341 34.9782C65.2415 35.1461 65.3133 35.3342 65.345 35.531C65.3768 35.7278 65.3678 35.929 65.3187 36.1222C65.1904 36.7039 64.9677 37.2608 64.6593 37.7706L63.9176 37.4673C64.1483 37.1156 64.2635 36.7007 64.2472 36.2804L62.701 38.5882C62.9139 39.1111 62.9577 39.6875 62.8263 40.2366C62.4062 41.5545 61.6027 42.7173 60.5185 43.5763C60.0174 43.9235 59.5723 44.0236 59.1833 43.8763L58.7844 44.4763L58.4349 44.1895L58.8141 43.6191C58.696 43.423 58.6201 43.2045 58.5912 42.9775C58.5622 42.7504 58.5809 42.5198 58.6459 42.3004C58.8243 41.5653 59.118 40.8632 59.5163 40.2201L60.2746 40.5828C60.1066 40.8792 59.9717 41.1932 59.8724 41.5191C59.8007 41.7426 59.7684 41.9768 59.7767 42.2114ZM63.9242 35.9672C63.7404 35.9852 63.5671 36.0614 63.4296 36.1848C63.0471 36.5011 62.7643 36.9213 62.6153 37.3947C62.5473 37.5961 62.5281 37.8108 62.5593 38.0211L63.9242 35.9672ZM60.0735 42.5609C60.1748 42.5762 60.2783 42.5688 60.3764 42.5392C60.4745 42.5095 60.5647 42.4584 60.6405 42.3894C61.1119 42.0223 61.4576 41.5177 61.6296 40.9454C61.6954 40.7162 61.6897 40.4723 61.6131 40.2465L60.0735 42.5609Z" fill="white"/>
<path opacity="0.1" d="M67.643 36.0927C67.8869 34.4773 67.643 33.1816 66.8781 32.5453C65.1934 31.164 61.6032 33.4058 58.8306 37.5499C57.6651 39.2568 56.805 41.1532 56.2887 43.1545C56.5722 41.2621 57.5118 38.9313 58.9987 36.6927C61.7581 32.5486 65.3616 30.3101 67.0463 31.6882C67.9562 32.4299 68.121 34.0817 67.643 36.0927Z" fill="#102F4E"/>
<path d="M91.545 97.5557L88.7756 97.8194L87.3646 91.3675L90.1339 91.1038L91.545 97.5557Z" fill="#D88880"/>
<path d="M106.971 93.5664L104.396 94.5752L101.914 88.4563L104.488 87.4475L106.971 93.5664Z" fill="#D88880"/>
<path d="M103.648 93.3091L106.47 91.9047C106.518 91.8806 106.574 91.8746 106.627 91.8879C106.679 91.9012 106.725 91.9329 106.757 91.9772L108.187 94.0509C108.224 94.1046 108.248 94.1655 108.258 94.2294C108.269 94.2933 108.266 94.3587 108.249 94.4212C108.232 94.4838 108.202 94.542 108.161 94.5918C108.119 94.6417 108.068 94.6821 108.009 94.7102C107.02 95.185 106.585 95.4191 105.342 96.029C104.577 96.4081 102.873 97.3016 101.818 97.8257C100.763 98.3499 100.189 97.3345 100.582 97.0213C102.339 95.6202 102.919 94.5619 103.305 93.675C103.373 93.5167 103.494 93.3871 103.648 93.3091Z" fill="#102F4E"/>
<path d="M88.2349 96.382H91.5647C91.6242 96.3822 91.682 96.402 91.7291 96.4384C91.7762 96.4747 91.8099 96.5256 91.8252 96.5831L92.5505 99.2206C92.5687 99.2828 92.5719 99.3484 92.5599 99.4121C92.548 99.4759 92.5211 99.5358 92.4816 99.5872C92.4421 99.6386 92.391 99.68 92.3325 99.7079C92.274 99.7359 92.2098 99.7496 92.145 99.748C90.9812 99.7283 90.424 99.748 88.9602 99.748H84.4897C83.2732 99.748 83.0062 98.515 83.5007 98.4062C85.759 97.9051 87.0613 97.2161 87.7569 96.56C87.8871 96.4408 88.0585 96.377 88.2349 96.382Z" fill="#102F4E"/>
<path opacity="0.2" d="M87.3679 91.3708L88.0932 94.694H90.9219L90.1372 91.1038L87.3679 91.3708Z" fill="#102F4E"/>
<path opacity="0.2" d="M104.488 87.4507L101.914 88.4595L103.196 91.6113L105.768 90.6025L104.488 87.4507Z" fill="#102F4E"/>
<path d="M84.948 22.4175C87.1503 22.1636 88.5745 23.212 88.6735 25.411C88.9636 33.1619 89.8207 34.9454 91.1164 38.9544L80.1347 42.0105C76.2312 33.5575 74.8597 29.5716 74.4246 27.6957C74.334 27.2598 74.3888 26.8061 74.5805 26.4042C74.7722 26.0024 75.0903 25.6743 75.4861 25.4704C78.4094 23.8421 81.6244 22.8047 84.948 22.4175Z" fill="#102F4E"/>
<path d="M81.6084 17.2216C81.7402 18.9128 82.1787 21.8371 83.5865 22.6119C83.5865 22.6119 83.3788 23.657 79.7391 27.1417C77.4939 25.2493 78.6412 23.9801 78.6412 23.9801C80.3127 23.0536 79.9204 21.847 79.261 20.6832L81.6084 17.2216Z" fill="#D88880"/>
<path opacity="0.2" d="M81.3545 17.6007C81.5947 18.5619 81.6284 19.563 81.4534 20.5382C81.3281 21.1975 80.6094 21.6987 79.805 21.9855C79.6952 21.5275 79.5151 21.0893 79.2709 20.6865L81.3545 17.6007Z" fill="#102F4E"/>
<path d="M82.2545 14.0269C82.7919 16.76 83.0787 17.904 82.0831 19.6315C80.583 22.2426 77.1082 22.3086 75.7631 19.7898C74.5531 17.5249 73.874 13.4368 76.2279 11.6763C76.7456 11.2862 77.3545 11.035 77.9967 10.9465C78.6388 10.858 79.2929 10.9352 79.8968 11.1707C80.5008 11.4063 81.0344 11.7924 81.4471 12.2923C81.8597 12.7922 82.1377 13.3893 82.2545 14.0269Z" fill="#D88880"/>
<path d="M83.6821 15.692C83.7222 15.9555 83.7097 16.2243 83.6451 16.483C83.5806 16.7416 83.4654 16.9848 83.3062 17.1986C82.8776 17.769 82.2314 17.492 81.9875 16.8689C81.7699 16.3019 81.727 15.3194 82.3336 14.9765C82.4664 14.9037 82.6151 14.8651 82.7665 14.864C82.9179 14.863 83.0671 14.8996 83.2008 14.9705C83.3346 15.0415 83.4485 15.1445 83.5325 15.2705C83.6165 15.3964 83.6679 15.5412 83.6821 15.692Z" fill="#D88880"/>
<path d="M79.8577 12.5797C79.7555 13.6248 80.5929 15.4117 82.1655 15.8271C83.7941 13.9545 82.7193 11.3862 81.2226 11.3335C79.7258 11.2807 79.8577 12.5797 79.8577 12.5797Z" fill="#102F4E"/>
<path d="M77.6621 9.73134C75.2587 9.84014 72.6806 10.9116 73.574 14.6766C75.6708 14.2381 81.5062 13.5853 81.9545 12.0886C81.3644 10.1665 79.238 9.65881 77.6621 9.73134Z" fill="#102F4E"/>
<path d="M80.1347 42.0106C80.1347 42.0106 79.4951 64.1917 81.2787 72.5623C83.1282 81.2725 87.3053 93.7214 87.3053 93.7214L91.2285 93.4675C91.2285 93.4675 88.6932 77.1911 87.9317 70.4754C86.8569 61.218 88.1921 39.7655 88.1921 39.7655L80.1347 42.0106Z" fill="#2C6CF6"/>
<path opacity="0.2" d="M85.6601 48.947C85.8382 46.9359 87.3547 47.3216 87.6943 50.0448C87.5459 54.3307 87.4404 59.3056 87.5261 63.6607C85.8909 60.4661 85.2546 53.523 85.6601 48.947Z" fill="#102F4E"/>
<path d="M91.7263 93.7214L87.002 94.0412L86.3459 91.8257L91.4593 91.285L91.7263 93.7214Z" fill="#102F4E"/>
<path d="M84.0084 40.9324C84.0084 40.9324 87.3514 59.5265 91.8911 69.5324C95.5572 77.6129 102.2 90.6321 102.2 90.6321L105.804 89.2837C105.804 89.2837 100.169 74.504 98.132 68.8203C93.0582 54.6439 95.8243 46.0392 91.1164 38.9543L84.0084 40.9324Z" fill="#2C6CF6"/>
<path d="M106.229 89.6265L102.072 91.0738L100.888 88.9441L105.837 87.7177L106.229 89.6265Z" fill="#102F4E"/>
<path d="M91.0999 38.2753L91.8714 39.1225C91.9307 39.1885 91.8714 39.2907 91.7329 39.3236L80.2171 42.5315C80.1182 42.5578 80.0226 42.5315 79.9995 42.4721L79.6269 41.516C79.6006 41.4501 79.6698 41.3677 79.7786 41.338L90.8988 38.2423C90.9322 38.2294 90.9685 38.2256 91.0038 38.2314C91.0392 38.2372 91.0724 38.2523 91.0999 38.2753Z" fill="#102F4E"/>
<path d="M89.9526 39.9236L90.2526 39.8378C90.312 39.8214 90.3482 39.7785 90.3318 39.7422L89.8372 38.5059C89.8372 38.4697 89.7647 38.4532 89.7054 38.4697L89.4053 38.5521C89.346 38.5521 89.3097 38.6114 89.3229 38.6477L89.8207 39.8873C89.8339 39.9236 89.8933 39.94 89.9526 39.9236Z" fill="#2C6CF6"/>
<path d="M81.0842 42.3896L81.3842 42.3072C81.4402 42.3072 81.4798 42.2479 81.4633 42.2116L80.9688 40.9753C80.9688 40.939 80.8929 40.9225 80.8336 40.939L80.5369 41.0214C80.4775 41.0214 80.4413 41.0808 80.4545 41.117L80.949 42.3567C80.9655 42.3929 81.0248 42.4061 81.0842 42.3896Z" fill="#2C6CF6"/>
<path d="M85.5184 41.1567L85.8184 41.0743C85.8778 41.0578 85.914 41.015 85.8975 40.9787L85.403 39.7391C85.403 39.7028 85.3272 39.6863 85.2678 39.7028L84.9711 39.7852C84.9118 39.7852 84.8755 39.8479 84.8887 39.8841L85.3865 41.1205C85.3997 41.1567 85.4591 41.1732 85.5184 41.1567Z" fill="#2C6CF6"/>
<path d="M78.3708 15.8569C78.4269 16.0778 78.3708 16.2855 78.2159 16.3218C78.0609 16.358 77.9093 16.213 77.8532 15.9921C77.7972 15.7712 77.8532 15.5668 78.0082 15.5272C78.1631 15.4877 78.3148 15.6294 78.3708 15.8569Z" fill="#102F4E"/>
<path d="M75.895 16.4965C75.9543 16.7141 75.895 16.9218 75.74 16.9613C75.5851 17.0009 75.4334 16.8492 75.3774 16.6317C75.3213 16.4141 75.3774 16.2031 75.5323 16.1668C75.6873 16.1305 75.8389 16.2756 75.895 16.4965Z" fill="#102F4E"/>
<path d="M75.5982 16.1632L75.0345 16.1467C75.0345 16.1467 75.4103 16.4896 75.5982 16.1632Z" fill="#102F4E"/>
<path d="M76.6499 16.7006C76.5852 17.2511 76.4455 17.7902 76.2345 18.3028C76.3668 18.3535 76.5086 18.3744 76.6499 18.3642C76.7912 18.3539 76.9285 18.3127 77.0521 18.2435L76.6499 16.7006Z" fill="#D88880"/>
<path d="M78.0214 18.9062C78.0087 18.904 77.997 18.8981 77.9876 18.8893C77.9782 18.8806 77.9716 18.8692 77.9686 18.8567C77.9661 18.8485 77.9654 18.8399 77.9664 18.8313C77.9674 18.8228 77.9702 18.8146 77.9745 18.8071C77.9788 18.7997 77.9846 18.7933 77.9916 18.7882C77.9985 18.7831 78.0064 18.7795 78.0148 18.7776C78.2889 18.7127 78.5438 18.5839 78.7587 18.4017C78.9735 18.2195 79.1423 17.9891 79.2511 17.7292C79.2537 17.7206 79.258 17.7127 79.2638 17.7058C79.2696 17.699 79.2767 17.6933 79.2847 17.6893C79.2927 17.6853 79.3015 17.683 79.3105 17.6825C79.3194 17.682 79.3284 17.6833 79.3368 17.6864C79.3529 17.6923 79.3662 17.7041 79.3741 17.7193C79.382 17.7346 79.384 17.7522 79.3797 17.7688C79.2661 18.0495 79.0872 18.2991 78.8578 18.4969C78.6285 18.6947 78.3553 18.835 78.0609 18.9062C78.048 18.91 78.0343 18.91 78.0214 18.9062Z" fill="#102F4E"/>
<path d="M78.8555 14.868C78.832 14.865 78.8101 14.8546 78.7928 14.8383C78.6648 14.7311 78.5131 14.6561 78.3502 14.6194C78.1874 14.5827 78.0181 14.5854 77.8565 14.6273C77.8229 14.6378 77.7864 14.6347 77.755 14.6187C77.7236 14.6027 77.6997 14.575 77.6884 14.5416C77.6822 14.5252 77.6795 14.5077 77.6803 14.4902C77.6811 14.4726 77.6856 14.4555 77.6933 14.4397C77.701 14.424 77.7119 14.41 77.7252 14.3986C77.7385 14.3872 77.7541 14.3786 77.7708 14.3735C77.9748 14.3181 78.1891 14.3125 78.3956 14.3573C78.6022 14.4021 78.7949 14.4958 78.9577 14.6306C78.9797 14.6493 78.9952 14.6747 79.0018 14.7028C79.0084 14.731 79.0057 14.7605 78.9943 14.7871C78.9829 14.8136 78.9632 14.8358 78.9382 14.8504C78.9132 14.865 78.8842 14.8711 78.8555 14.868Z" fill="#102F4E"/>
<path d="M74.4213 15.6522H74.3949C74.3784 15.6467 74.3632 15.6379 74.3501 15.6264C74.337 15.6149 74.3263 15.601 74.3187 15.5853C74.311 15.5697 74.3065 15.5527 74.3055 15.5353C74.3044 15.5179 74.3068 15.5005 74.3125 15.4841C74.3767 15.2827 74.4884 15.0997 74.6382 14.9505C74.7879 14.8014 74.9713 14.6904 75.173 14.6269C75.1898 14.6225 75.2074 14.6214 75.2247 14.6238C75.242 14.6262 75.2587 14.6321 75.2737 14.6409C75.2887 14.6498 75.3019 14.6616 75.3123 14.6756C75.3227 14.6896 75.3303 14.7056 75.3345 14.7225C75.3425 14.757 75.3366 14.7933 75.3181 14.8235C75.2996 14.8537 75.27 14.8755 75.2356 14.8841C75.079 14.9376 74.9375 15.0277 74.8228 15.147C74.7081 15.2663 74.6235 15.4112 74.5762 15.5698C74.565 15.6002 74.543 15.6253 74.5145 15.6405C74.4859 15.6557 74.4527 15.6599 74.4213 15.6522Z" fill="#102F4E"/>
<path d="M87.325 27.6068C86.4678 29.3739 85.5777 31.108 84.6381 32.8323C84.17 33.696 83.7018 34.5598 83.204 35.4104C82.7062 36.261 82.2149 37.1149 81.6248 37.9687C81.4896 38.1797 81.3215 38.4039 81.1633 38.6281L81.1039 38.7072L81.0742 38.7501L81.0248 38.8127C80.9556 38.8984 80.8863 38.971 80.8171 39.0435C80.6911 39.1712 80.5555 39.2892 80.4116 39.3963C79.9368 39.7435 79.4208 40.0303 78.8753 40.2501C77.9127 40.6389 76.9204 40.9498 75.9081 41.1798C73.9701 41.6278 72.0023 41.9352 70.02 42.0997L69.7958 40.6952C70.7156 40.4512 71.6519 40.1941 72.5717 39.927C73.4915 39.66 74.4048 39.3765 75.2949 39.0666C76.1617 38.7746 77.0086 38.4266 77.8302 38.0248C78.1766 37.854 78.5028 37.645 78.8027 37.4017C78.8519 37.3609 78.8971 37.3156 78.9379 37.2665C78.9498 37.2518 78.9609 37.2364 78.9709 37.2203L79.0434 37.1083C79.1588 36.9269 79.2775 36.7555 79.3962 36.5511C79.8643 35.7632 80.3259 34.9192 80.7742 34.0752L82.1094 31.5135L84.7469 26.3441L87.325 27.6068Z" fill="#D88880"/>
<path d="M70.6992 40.7085L68.7573 39.9634L68.9222 42.703C68.9222 42.703 70.4486 42.703 71.1541 41.7634L70.6992 40.7085Z" fill="#D88880"/>
<path d="M67.2309 40.0425L66.8155 42.0569L68.9222 42.703L68.7573 39.9634L67.2309 40.0425Z" fill="#D88880"/>
<path d="M84.9349 23.8351C83.8502 24.3329 82.5908 28.8397 82.5908 28.8397L87.2888 29.3738C87.2888 29.3738 88.1987 27.1847 88.0141 26.0605C87.7372 24.2637 86.1712 23.2681 84.9349 23.8351Z" fill="#102F4E"/>
<path d="M102.243 94.1133C102.225 94.0822 102.211 94.049 102.2 94.0144C102.185 93.9776 102.18 93.9373 102.186 93.8978C102.192 93.8583 102.208 93.8212 102.233 93.7903C102.461 93.5133 103.47 93.6254 103.582 93.6386C103.595 93.6395 103.607 93.6445 103.617 93.6527C103.627 93.661 103.634 93.6722 103.638 93.6848C103.642 93.6969 103.642 93.7101 103.639 93.7225C103.635 93.7349 103.628 93.7459 103.618 93.754C103.331 93.9947 102.797 94.3804 102.454 94.2815C102.409 94.2699 102.367 94.249 102.331 94.22C102.294 94.191 102.264 94.1547 102.243 94.1133ZM103.407 93.754C103.001 93.721 102.457 93.7276 102.335 93.8727C102.326 93.8881 102.321 93.9058 102.321 93.9238C102.321 93.9418 102.326 93.9595 102.335 93.9749C102.345 94.0167 102.365 94.0553 102.394 94.0871C102.423 94.1188 102.46 94.1426 102.5 94.1562C102.682 94.2089 103.018 94.0606 103.414 93.754H103.407Z" fill="#2C6CF6"/>
<path d="M102.49 93.2035C102.478 93.1795 102.468 93.154 102.461 93.1277C102.447 93.0767 102.451 93.0226 102.472 92.9741C102.493 92.9256 102.53 92.8857 102.576 92.8607C102.619 92.8327 102.667 92.8143 102.718 92.8069C102.769 92.7995 102.821 92.8032 102.87 92.8178C103.262 92.9233 103.625 93.6453 103.641 93.675C103.647 93.685 103.65 93.6964 103.65 93.708C103.65 93.7195 103.647 93.7309 103.641 93.7409C103.634 93.7504 103.626 93.7582 103.615 93.7633C103.605 93.7685 103.593 93.771 103.582 93.7706C103.162 93.7169 102.775 93.516 102.49 93.2035ZM103.45 93.6025C103.315 93.3651 103.064 93.0057 102.833 92.9431C102.803 92.9333 102.771 92.9306 102.74 92.9352C102.708 92.9398 102.678 92.9515 102.652 92.9695C102.579 93.0156 102.579 93.0585 102.589 93.0882C102.639 93.2794 103.127 93.5464 103.46 93.6156L103.45 93.6025Z" fill="#2C6CF6"/>
<path d="M86.7481 96.929C86.5175 96.9476 86.2869 96.8934 86.0887 96.774C86.0366 96.7363 85.9941 96.6868 85.9649 96.6295C85.9356 96.5721 85.9204 96.5087 85.9206 96.4443C85.916 96.4094 85.9212 96.3739 85.9358 96.3418C85.9504 96.3098 85.9737 96.2825 86.003 96.263C86.303 96.0586 87.4371 96.5729 87.6514 96.6784C87.6644 96.6845 87.6751 96.6944 87.6822 96.7068C87.6893 96.7191 87.6923 96.7334 87.691 96.7476C87.6892 96.7613 87.6831 96.7741 87.6736 96.7842C87.6642 96.7942 87.6518 96.801 87.6382 96.8037C87.3467 96.8765 87.0484 96.9185 86.7481 96.929ZM86.2173 96.3553C86.1714 96.3526 86.1257 96.3629 86.0854 96.385C86.0854 96.385 86.0591 96.4081 86.0624 96.4476C86.0633 96.4909 86.0741 96.5333 86.0941 96.5716C86.1142 96.6099 86.1428 96.6431 86.1777 96.6685C86.3723 96.8169 86.8371 96.8367 87.4305 96.7246C87.0507 96.5407 86.6448 96.4162 86.2272 96.3553H86.2173Z" fill="#2C6CF6"/>
<path d="M87.6547 96.8171H87.6284C87.2525 96.6654 86.4943 96.0555 86.5371 95.7423C86.5371 95.6731 86.5932 95.5874 86.7646 95.5676C87.424 95.4885 87.7075 96.6918 87.7207 96.7412C87.7227 96.7533 87.7216 96.7656 87.7176 96.7772C87.7136 96.7887 87.7067 96.799 87.6976 96.8072C87.6848 96.8151 87.6697 96.8185 87.6547 96.8171ZM86.8272 95.6896H86.7811C86.7119 95.6896 86.6756 95.7192 86.669 95.7522C86.6459 95.9335 87.1701 96.4116 87.5525 96.6226C87.4635 96.3357 87.2261 95.6896 86.8272 95.6896Z" fill="#2C6CF6"/>
<path d="M78.0742 15.5272H77.5071C77.5071 15.5272 77.8862 15.8569 78.0742 15.5272Z" fill="#102F4E"/>
<path d="M79.3698 99.7512H97.41C97.5342 99.7512 97.6533 99.8005 97.7411 99.8883C97.8289 99.9761 97.8782 100.095 97.8782 100.219V101.743H78.905V100.219C78.9049 100.096 78.9538 99.9772 79.0409 99.8895C79.128 99.8018 79.2462 99.7521 79.3698 99.7512Z" fill="#102F4E"/>
<path d="M98.0397 106.783H79.0665V108.771H98.0397V106.783Z" fill="#102F4E"/>
<path opacity="0.5" d="M98.0397 106.783H85.4953V108.771H98.0397V106.783Z" fill="#102F4E"/>
<path d="M87.3217 101.739L85.1887 115.091C85.1708 115.201 85.1147 115.301 85.0302 115.374C84.9457 115.446 84.8384 115.486 84.7271 115.487H83.682C83.6145 115.487 83.5478 115.472 83.4865 115.444C83.4252 115.415 83.3708 115.374 83.3269 115.323C83.2831 115.271 83.2509 115.211 83.2325 115.146C83.2141 115.081 83.21 115.013 83.2205 114.946L85.3337 101.726L87.3217 101.739Z" fill="#102F4E"/>
<path opacity="0.5" d="M87.3217 101.739L87.1602 102.754H85.1689L85.3337 101.739H87.3217Z" fill="#102F4E"/>
<path d="M80.8929 101.739L78.7599 115.091C78.742 115.201 78.6858 115.301 78.6014 115.374C78.5169 115.446 78.4096 115.486 78.2983 115.487H77.2532C77.1857 115.487 77.119 115.472 77.0577 115.444C76.9964 115.415 76.942 115.374 76.8981 115.323C76.8543 115.271 76.822 115.211 76.8037 115.146C76.7853 115.081 76.7812 115.013 76.7917 114.946L78.9049 101.726L80.8929 101.739Z" fill="#102F4E"/>
<path d="M99.9882 114.959L97.8782 101.739H95.9001L98.0233 115.091C98.0405 115.201 98.0965 115.302 98.1811 115.374C98.2657 115.447 98.3734 115.487 98.4848 115.487H99.5266C99.5929 115.486 99.6583 115.472 99.7185 115.444C99.7788 115.417 99.8325 115.377 99.8761 115.327C99.9197 115.277 99.9523 115.219 99.9716 115.155C99.9909 115.092 99.9966 115.025 99.9882 114.959Z" fill="#102F4E"/>
<path opacity="0.5" d="M98.0397 102.754L97.8782 101.739H95.8869L96.0485 102.754H98.0397Z" fill="#102F4E"/>
<path d="M93.5593 114.959L91.4494 101.739H89.4713L91.5944 115.091C91.6117 115.201 91.6677 115.302 91.7523 115.374C91.8369 115.447 91.9446 115.487 92.056 115.487H93.0978C93.164 115.486 93.2295 115.472 93.2897 115.444C93.3499 115.417 93.4037 115.377 93.4473 115.327C93.4909 115.277 93.5235 115.219 93.5428 115.155C93.5621 115.092 93.5677 115.025 93.5593 114.959Z" fill="#102F4E"/>
<path opacity="0.5" d="M93.5593 114.959L91.4494 101.739H89.4713L91.5944 115.091C91.6117 115.201 91.6677 115.302 91.7523 115.374C91.8369 115.447 91.9446 115.487 92.056 115.487H93.0978C93.164 115.486 93.2295 115.472 93.2897 115.444C93.3499 115.417 93.4037 115.377 93.4473 115.327C93.4909 115.277 93.5235 115.219 93.5428 115.155C93.5621 115.092 93.5677 115.025 93.5593 114.959Z" fill="#102F4E"/>
<path opacity="0.5" d="M85.3338 99.7512H97.41C97.5342 99.7512 97.6533 99.8005 97.7411 99.8883C97.8289 99.9761 97.8782 100.095 97.8782 100.219V101.743H85.3503V99.7644L85.3338 99.7512Z" fill="#102F4E"/>
<path d="M29.6405 113.684L32.2812 108.838L22.8358 100.559L22.0974 113.684H29.6405Z" fill="#2C6CF6"/>
<path opacity="0.1" d="M29.6405 113.684L32.2812 108.838L22.8358 100.559L22.0974 113.684H29.6405Z" fill="#102F4E"/>
<path d="M62.1933 58.4589C67.4913 54.8324 71.9289 55.2049 73.4025 56.2632C74.8762 57.3215 70.1947 65.3591 70.1947 65.3591C68.444 64.8505 66.8232 63.971 65.4426 62.7804C64.0619 61.5898 62.9537 60.1159 62.1933 58.4589Z" fill="#2C6CF6"/>
<path opacity="0.2" d="M64.7155 62.1019C67.6991 59.171 70.7421 58.2314 71.5663 58.7227C72.3905 59.2139 69.7431 64.8646 69.7431 64.8646C69.7431 64.8646 66.1661 65.379 64.7155 62.1019Z" fill="#102F4E"/>
<path d="M16.1597 69.8261L15.8597 69.6744C16.688 68.0445 17.6623 66.493 18.7708 65.0391L19.0379 65.2435C17.9434 66.6819 16.9802 68.2156 16.1597 69.8261Z" fill="#2C6CF6"/>
<path d="M14.5905 73.5516L14.2608 73.4428C14.5113 72.7076 14.7949 71.9724 15.1048 71.2603L15.4147 71.3954C15.118 72.0944 14.8377 72.8197 14.5905 73.5516Z" fill="#2C6CF6"/>
<path d="M76.2345 82.7002C76.2345 99.069 63.911 112.335 46.1213 112.335C28.3316 112.335 13.9113 99.069 13.9113 82.7002C13.9113 66.3315 28.3316 53.0651 46.1213 53.0651C63.911 53.0651 76.2345 66.3315 76.2345 82.7002Z" fill="#2C6CF6"/>
<path opacity="0.1" d="M41.8288 109.197L40.5398 111.894C41.4717 112.045 42.4179 112.155 43.3783 112.223L41.8288 109.197Z" fill="#102F4E"/>
<path d="M39.8771 115.501L43.5828 108.838L31.7307 104.506L30.2141 115.501H39.8771Z" fill="#2C6CF6"/>
<path d="M57.1393 115.501L53.9282 108.838L65.2132 104.506L65.9616 115.501H57.1393Z" fill="#2C6CF6"/>
<path opacity="0.2" d="M65.2462 86.983C65.2462 91.4139 61.3296 95.0042 56.5129 95.0042C51.6963 95.0042 47.7961 91.4139 47.7961 86.983C47.7961 82.552 51.6996 78.9618 56.5129 78.9618C61.3263 78.9618 65.2462 82.552 65.2462 86.983Z" fill="#102F4E"/>
<path opacity="0.2" d="M53.6183 89.6073C54.4359 89.6073 55.0986 88.3733 55.0986 86.8511C55.0986 85.3289 54.4359 84.095 53.6183 84.095C52.8008 84.095 52.1381 85.3289 52.1381 86.8511C52.1381 88.3733 52.8008 89.6073 53.6183 89.6073Z" fill="#102F4E"/>
<path opacity="0.4" d="M43.0322 72.0218C43.4575 73.3174 43.0651 74.7318 42.1585 75.1769C41.2519 75.6219 40.1804 74.9296 39.7452 73.6339C39.3101 72.3383 39.709 70.924 40.6156 70.4789C41.5222 70.0338 42.6069 70.7228 43.0322 72.0218Z" fill="#102F4E"/>
<path opacity="0.4" d="M65.9781 72.0813C65.6484 73.3769 66.0539 74.7748 66.8715 75.2001C67.6891 75.6254 68.6122 74.9198 68.9353 73.6209C69.2584 72.3219 68.8595 70.9274 68.0419 70.5021C67.2243 70.0768 66.3078 70.7823 65.9781 72.0813Z" fill="#102F4E"/>
<path opacity="0.2" d="M61.4944 89.6073C62.3119 89.6073 62.9747 88.3733 62.9747 86.8511C62.9747 85.3289 62.3119 84.095 61.4944 84.095C60.6769 84.095 60.0141 85.3289 60.0141 86.8511C60.0141 88.3733 60.6769 89.6073 61.4944 89.6073Z" fill="#102F4E"/>
<path d="M36.7056 58.1882C30.9658 53.4342 25.826 53.065 24.0523 53.9287C22.2787 54.7925 26.8909 64.1126 26.8909 64.1126C26.8909 64.1126 33.1879 63.7434 36.7056 58.1882Z" fill="#2C6CF6"/>
<path opacity="0.2" d="M33.4747 61.6106C30.3262 57.9841 26.9239 56.4742 25.9315 56.85C24.9392 57.2259 27.4547 63.6613 27.4547 63.6613C27.4547 63.6613 31.5098 64.8283 33.4747 61.6106Z" fill="#102F4E"/>
<path opacity="0.4" d="M48.2972 55.6432H53.1469C53.1469 55.6432 52.0919 54.4827 48.5115 54.1299C46.4839 53.9652 44.4432 54.0761 42.4454 54.4596C42.4454 54.4596 46.4411 54.3706 48.2972 55.6432Z" fill="#102F4E"/>
</svg>
