<svg width="20" height="20" viewBox="0 0 20 20" fill="none" xmlns="http://www.w3.org/2000/svg">
<path d="M13.2039 0C10.2966 0 7.92969 2.36694 7.92969 5.27419C7.92969 8.18145 10.2966 10.5524 13.2039 10.5524C16.1111 10.5524 18.4781 8.18548 18.4781 5.27823C18.4781 2.37097 16.1111 0 13.2039 0ZM13.2079 9.74597C10.7402 9.74597 8.73614 7.74597 8.73614 5.27823C8.73614 5.27823 8.73614 5.27823 8.73614 5.27419C8.74017 2.81048 10.7361 0.810484 13.2039 0.806452C15.6716 0.806452 17.6757 2.80645 17.6757 5.27419C17.6757 7.74194 15.6757 9.74597 13.2079 9.74597Z" fill="#405971"/>
<path d="M15.3085 7.53631C15.244 7.3226 15.0222 7.20163 14.8085 7.26614C14.8045 7.26614 14.8045 7.26614 14.8004 7.27018L14.5262 7.35485C14.24 7.44356 13.9295 7.41534 13.6633 7.27824C13.3891 7.13711 13.0827 7.06453 12.7762 7.06453C12.7319 7.06453 12.6754 7.06453 12.6069 7.0726C12.7037 6.84679 12.7641 6.60485 12.7843 6.35889C12.7843 6.35082 12.7843 6.33469 12.7843 6.32663C12.7924 6.21373 12.8004 6.09679 12.8004 5.97582H13.7964C14.0182 5.97582 14.1996 5.79437 14.1996 5.5726C14.1996 5.35082 14.0182 5.16937 13.7964 5.16937H12.752C12.7279 4.97582 12.6875 4.78631 12.6432 4.59679C12.5908 4.39114 12.5625 4.18147 12.5545 3.97179C12.5545 3.86292 12.5746 3.75808 12.615 3.65727C12.6512 3.5605 12.7077 3.47582 12.7803 3.40324C12.8569 3.32663 12.9456 3.26614 13.0424 3.22582C13.1512 3.18147 13.2641 3.16131 13.3811 3.16131C13.9738 3.16131 14.115 3.49195 14.1674 3.74195C14.2077 3.95969 14.4214 4.10485 14.6391 4.0605C14.8569 4.02018 15.002 3.80647 14.9577 3.58873C14.9577 3.58469 14.9577 3.58066 14.9537 3.57663C14.7924 2.80243 14.2158 2.35889 13.3811 2.35889C13.1553 2.35889 12.9335 2.40324 12.7279 2.48792C12.5303 2.56856 12.3529 2.69356 12.1996 2.84276C12.0545 2.99195 11.9416 3.16937 11.865 3.36292C11.7883 3.55647 11.748 3.76614 11.748 3.97582C11.752 4.25002 11.7924 4.52018 11.8569 4.78631C11.8891 4.91534 11.9133 5.05244 11.9335 5.1734H11.0585C10.8367 5.1734 10.6553 5.35485 10.6553 5.57663C10.6553 5.7984 10.8367 5.96776 11.0585 5.96776H11.99C11.99 6.08873 11.9859 6.1734 11.9779 6.26614C11.9779 6.27421 11.9779 6.29034 11.9779 6.2984C11.9537 6.56453 11.8569 6.8226 11.6996 7.04034L11.49 7.32663C11.3569 7.50808 11.3972 7.75808 11.5787 7.89114C11.6593 7.95163 11.7641 7.97985 11.865 7.96776L12.6391 7.87502H12.6472C12.6916 7.87098 12.7359 7.86695 12.7762 7.86695C12.9577 7.86695 13.1351 7.91131 13.3004 7.99195C13.752 8.22179 14.2803 8.27018 14.7641 8.12098L15.0383 8.03631C15.252 7.97179 15.373 7.75002 15.3085 7.53631Z" fill="#405971"/>
<path d="M19.3167 12.1936C19.3087 12.1734 19.2966 12.1573 19.2845 12.1412C18.7643 11.5 17.8248 11.4033 17.1796 11.9234C16.3732 12.5807 15.1998 13.5283 14.4377 14.1452C13.9014 14.5767 13.2401 14.8226 12.5506 14.8468L10.4861 14.9154C10.4014 14.9194 10.3248 14.875 10.2804 14.8065L10.0506 14.4113C10.0103 14.3468 10.0062 14.2702 10.0385 14.2017C10.0708 14.1331 10.1312 14.0847 10.2038 14.0726L12.3369 13.6694C13.0869 13.5283 13.6111 12.8186 13.5264 12.0484C13.4458 11.3065 12.8167 10.75 12.0748 10.75C12.0546 10.75 12.0304 10.75 12.0022 10.75L9.1514 10.6331C8.0143 10.5928 7.0385 10.8105 5.89737 11.3629L4.40543 12.0847C4.19575 11.6492 3.75624 11.371 3.27237 11.371H1.62317C0.933657 11.367 0.373173 11.9234 0.369141 12.6129V18.7541C0.373173 19.4436 0.933657 20 1.62317 20H3.27237C3.96188 20 4.51833 19.4436 4.52237 18.7541V18.3388L6.10704 18.0484C6.61914 17.9718 6.94172 17.9436 7.48608 17.9678L11.8208 18.1694C13.3812 18.2379 14.9095 17.7218 16.107 16.7218L19.1111 14.2299L19.1151 14.2258C19.7159 13.7138 19.8046 12.8146 19.3167 12.1936ZM3.71591 18.7541C3.71591 18.996 3.51833 19.1936 3.2764 19.1936H1.61511C1.37317 19.1936 1.17559 18.996 1.17559 18.7541V12.617C1.17559 12.375 1.37317 12.1775 1.61511 12.1775H3.2764C3.51833 12.1775 3.71591 12.375 3.71591 12.617V18.7541ZM18.5949 13.6089L15.5949 16.0968C14.5506 16.9678 13.2159 17.4154 11.857 17.3589L7.52237 17.1573C6.9135 17.1291 6.54253 17.1654 5.98204 17.246C5.97801 17.246 5.97398 17.246 5.96995 17.25L4.52237 17.5162V12.9194L6.24817 12.0847C7.2643 11.5928 8.12317 11.3992 9.11914 11.4355L11.9901 11.5525C12.0062 11.5525 12.0264 11.5525 12.0425 11.5525C12.0466 11.5525 12.0627 11.5525 12.0748 11.5525C12.4054 11.5565 12.6877 11.8025 12.728 12.1331C12.7683 12.4799 12.5345 12.8025 12.1917 12.871L10.0587 13.2742C9.49817 13.3791 9.13124 13.9234 9.23608 14.4839C9.26027 14.6008 9.30059 14.7138 9.36108 14.8146L9.59091 15.2057C9.78446 15.5323 10.1393 15.7258 10.5183 15.7138L12.5828 15.6452C13.4458 15.6129 14.2764 15.3025 14.9498 14.7662C15.7119 14.1492 16.8893 13.2017 17.6958 12.5444C17.9861 12.3186 18.4014 12.3549 18.6474 12.6291C18.6554 12.6452 18.6675 12.6613 18.6796 12.6775C18.9095 12.9557 18.8732 13.375 18.5949 13.6089Z" fill="#405971"/>
</svg>
