<svg width="20" height="20" viewBox="0 0 20 20" fill="none" xmlns="http://www.w3.org/2000/svg">
<path d="M10.8297 8.70507C11.0547 8.45507 11.2422 8.19882 11.4672 7.98007C12.1734 7.31132 13.0172 6.97382 13.9984 6.98007C14.5359 6.98632 15.0672 7.02382 15.5859 7.17382C16.7734 7.51757 17.4609 8.33632 17.7922 9.49257C18.0359 10.3613 18.0859 11.2551 18.0859 12.1488C18.0922 14.0363 18.0797 15.9301 18.0859 17.8176C18.0859 17.9926 18.0359 18.0426 17.8609 18.0426C16.8859 18.0363 15.9109 18.0363 14.9422 18.0426C14.7734 18.0426 14.7359 17.9926 14.7359 17.8301C14.7422 16.0301 14.7422 14.2363 14.7359 12.4363C14.7359 11.9863 14.7047 11.5363 14.5797 11.0988C14.3484 10.2926 13.7672 9.88007 12.9234 9.92382C11.7672 9.98632 11.1672 10.5551 11.0234 11.7301C10.9859 12.0113 10.9734 12.2926 10.9734 12.5738C10.9734 14.3238 10.9734 16.0738 10.9797 17.8176C10.9797 17.9926 10.9359 18.0426 10.7609 18.0426C9.77969 18.0363 8.79844 18.0363 7.81719 18.0426C7.66094 18.0426 7.61719 17.9988 7.61719 17.8426C7.62344 14.3801 7.62344 10.9176 7.61719 7.45507C7.61719 7.28632 7.67344 7.24257 7.83594 7.24257C8.76719 7.24882 9.69844 7.24882 10.6297 7.24257C10.7984 7.24257 10.8422 7.29882 10.8422 7.46132C10.8234 7.88007 10.8297 8.29257 10.8297 8.70507Z" fill="white"/>
<path d="M5.49492 12.6624C5.49492 14.3749 5.49492 16.0874 5.50117 17.7999C5.50117 17.9874 5.45742 18.0499 5.25742 18.0437C4.28242 18.0312 3.31367 18.0374 2.33867 18.0437C2.18242 18.0437 2.13867 18.0062 2.13867 17.8437C2.14492 14.3749 2.14492 10.9062 2.13867 7.4374C2.13867 7.29365 2.17617 7.24365 2.32617 7.24365C3.31367 7.2499 4.30117 7.2499 5.28867 7.24365C5.47617 7.24365 5.50117 7.3124 5.50117 7.4749C5.49492 9.20615 5.49492 10.9374 5.49492 12.6624Z" fill="white"/>
<path d="M5.76253 3.8125C5.76253 4.8875 4.89378 5.7625 3.81878 5.7625C2.76253 5.7625 1.88128 4.8875 1.87503 3.825C1.86878 2.75625 2.75003 1.875 3.82503 1.875C4.88753 1.88125 5.76253 2.75 5.76253 3.8125Z" fill="white"/>
</svg>
