<svg width="24" height="24" viewBox="0 0 24 24" fill="none" xmlns="http://www.w3.org/2000/svg">
<rect width="24" height="24" rx="12" fill="#80A7FA"/>
<path d="M9.828 15.5C9.748 15.5 9.68 15.472 9.624 15.416C9.568 15.36 9.54 15.292 9.54 15.212V14.6C9.54 14.528 9.556 14.444 9.588 14.348C9.628 14.244 9.712 14.14 9.84 14.036L11.736 12.152C12.264 11.736 12.688 11.384 13.008 11.096C13.336 10.8 13.572 10.532 13.716 10.292C13.868 10.044 13.944 9.8 13.944 9.56C13.944 9.2 13.844 8.908 13.644 8.684C13.452 8.46 13.144 8.348 12.72 8.348C12.44 8.348 12.204 8.408 12.012 8.528C11.82 8.64 11.668 8.792 11.556 8.984C11.452 9.176 11.38 9.388 11.34 9.62C11.324 9.724 11.28 9.796 11.208 9.836C11.136 9.876 11.064 9.896 10.992 9.896H9.924C9.852 9.896 9.792 9.872 9.744 9.824C9.696 9.776 9.672 9.72 9.672 9.656C9.68 9.312 9.752 8.98 9.888 8.66C10.024 8.332 10.22 8.044 10.476 7.796C10.74 7.54 11.06 7.336 11.436 7.184C11.812 7.032 12.236 6.956 12.708 6.956C13.372 6.956 13.92 7.068 14.352 7.292C14.792 7.516 15.12 7.82 15.336 8.204C15.56 8.588 15.672 9.02 15.672 9.5C15.672 9.876 15.6 10.224 15.456 10.544C15.312 10.856 15.104 11.16 14.832 11.456C14.56 11.744 14.232 12.04 13.848 12.344L12.144 14.072H15.564C15.652 14.072 15.72 14.1 15.768 14.156C15.824 14.204 15.852 14.272 15.852 14.36V15.212C15.852 15.292 15.824 15.36 15.768 15.416C15.72 15.472 15.652 15.5 15.564 15.5H9.828Z" fill="white"/>
</svg>
