<svg width="24" height="24" viewBox="0 0 24 24" fill="none" xmlns="http://www.w3.org/2000/svg">
<rect width="24" height="24" rx="12" fill="#80A7FA"/>
<path d="M12.324 16C12.236 16 12.164 15.972 12.108 15.916C12.06 15.86 12.036 15.792 12.036 15.712V9.496L10.212 10.9C10.14 10.948 10.068 10.968 9.996 10.96C9.924 10.944 9.86 10.9 9.804 10.828L9.3 10.18C9.252 10.108 9.232 10.032 9.24 9.952C9.256 9.872 9.3 9.808 9.372 9.76L12.06 7.684C12.108 7.644 12.156 7.62 12.204 7.612C12.252 7.604 12.304 7.6 12.36 7.6H13.416C13.496 7.6 13.564 7.628 13.62 7.684C13.676 7.74 13.704 7.808 13.704 7.888V15.712C13.704 15.792 13.676 15.86 13.62 15.916C13.564 15.972 13.496 16 13.416 16H12.324Z" fill="white"/>
</svg>
