<svg width="16" height="16" viewBox="0 0 16 16" fill="none" xmlns="http://www.w3.org/2000/svg">
<path d="M9.33079 8.00023L15.724 1.60701C16.092 1.23902 16.092 0.644225 15.724 0.276236C15.356 -0.0917532 14.7612 -0.0917532 14.3932 0.276236L8.00002 6.66946L1.60677 0.276236C1.23878 -0.0917532 0.643981 -0.0917532 0.275992 0.276236C-0.0919973 0.644225 -0.0919973 1.23902 0.275992 1.60701L6.66921 8.00023L0.275992 14.3934C-0.0919973 14.7614 -0.0919973 15.3562 0.275992 15.7242C0.459518 15.9077 0.700448 16 0.941379 16C1.18231 16 1.42324 15.9077 1.60677 15.7242L7.99998 9.331L14.3932 15.7242C14.5767 15.9077 14.8177 16 15.0586 16C15.2995 16 15.5405 15.9077 15.724 15.7242C16.092 15.3562 16.092 14.7614 15.724 14.3934L9.33079 8.00023Z" fill="#E9F0FE"/>
</svg>
