<svg width="17" height="17" viewBox="0 0 17 17" fill="none" xmlns="http://www.w3.org/2000/svg">
<path d="M8.49975 1.38135C4.58975 1.38135 1.41641 4.55468 1.41641 8.46468C1.41641 12.3747 4.58975 15.548 8.49975 15.548H12.0414V14.1313H8.49975C5.42558 14.1313 2.83308 11.5388 2.83308 8.46468C2.83308 5.39051 5.42558 2.79801 8.49975 2.79801C11.5739 2.79801 14.1664 5.39051 14.1664 8.46468V9.4776C14.1664 10.0372 13.6635 10.5897 13.1039 10.5897C12.5443 10.5897 12.0414 10.0372 12.0414 9.4776V8.46468C12.0414 6.50968 10.4547 4.92301 8.49975 4.92301C6.54475 4.92301 4.95808 6.50968 4.95808 8.46468C4.95808 10.4197 6.54475 12.0063 8.49975 12.0063C9.47725 12.0063 10.3697 11.6097 11.0072 10.9651C11.4677 11.5955 12.261 12.0063 13.1039 12.0063C14.4993 12.0063 15.5831 10.873 15.5831 9.4776V8.46468C15.5831 4.55468 12.4097 1.38135 8.49975 1.38135ZM8.49975 10.5897C7.32391 10.5897 6.37475 9.64051 6.37475 8.46468C6.37475 7.28885 7.32391 6.33968 8.49975 6.33968C9.67558 6.33968 10.6247 7.28885 10.6247 8.46468C10.6247 9.64051 9.67558 10.5897 8.49975 10.5897Z" fill="#102F4E"/>
</svg>
