<svg width="13" height="16" viewBox="0 0 13 16" fill="none" xmlns="http://www.w3.org/2000/svg">
<path d="M10.7503 5.66658H12.167C12.3548 5.66658 12.535 5.74121 12.6678 5.87405C12.8007 6.00689 12.8753 6.18706 12.8753 6.37492V14.8749C12.8753 15.0628 12.8007 15.2429 12.6678 15.3758C12.535 15.5086 12.3548 15.5833 12.167 15.5833H0.833638C0.645777 15.5833 0.465609 15.5086 0.332771 15.3758C0.199933 15.2429 0.125305 15.0628 0.125305 14.8749V6.37492C0.125305 6.18706 0.199933 6.00689 0.332771 5.87405C0.465609 5.74121 0.645777 5.66658 0.833638 5.66658H2.2503V4.95825C2.2503 3.83108 2.69807 2.75008 3.4951 1.95305C4.29213 1.15602 5.37313 0.708252 6.5003 0.708252C7.62747 0.708252 8.70848 1.15602 9.50551 1.95305C10.3025 2.75008 10.7503 3.83108 10.7503 4.95825V5.66658ZM9.33364 5.66658V4.95825C9.33364 4.2068 9.03513 3.48614 8.50377 2.95478C7.97242 2.42343 7.25175 2.12492 6.5003 2.12492C5.74886 2.12492 5.02819 2.42343 4.49684 2.95478C3.96548 3.48614 3.66697 4.2068 3.66697 4.95825V5.66658H9.33364ZM5.79197 9.91658V11.3333H7.20864V9.91658H5.79197ZM2.95864 9.91658V11.3333H4.3753V9.91658H2.95864ZM8.6253 9.91658V11.3333H10.042V9.91658H8.6253Z" fill="#102F4E"/>
</svg>
